<?xml version="1.0" encoding="UTF-8" standalone="no"?>
<!-- Created with Inkscape (http://www.inkscape.org/) -->

<svg
   width="266.59372mm"
   height="106.25781mm"
   viewBox="0 0 266.59372 106.25781"
   version="1.1"
   id="svg5"
   inkscape:version="1.3.2 (091e20e, 2023-11-25)"
   sodipodi:docname="book_artwork.svg"
   xml:space="preserve"
   xmlns:inkscape="http://www.inkscape.org/namespaces/inkscape"
   xmlns:sodipodi="http://sodipodi.sourceforge.net/DTD/sodipodi-0.dtd"
   xmlns="http://www.w3.org/2000/svg"
   xmlns:svg="http://www.w3.org/2000/svg"><sodipodi:namedview
     id="namedview7"
     pagecolor="#ffffff"
     bordercolor="#000000"
     borderopacity="0.25"
     inkscape:showpageshadow="2"
     inkscape:pageopacity="1"
     inkscape:pagecheckerboard="0"
     inkscape:deskcolor="#d1d1d1"
     inkscape:document-units="mm"
     showgrid="false"
     inkscape:zoom="0.4290611"
     inkscape:cx="2898.1886"
     inkscape:cy="644.43036"
     inkscape:window-width="1432"
     inkscape:window-height="916"
     inkscape:window-x="63"
     inkscape:window-y="38"
     inkscape:window-maximized="0"
     inkscape:current-layer="layer1"><inkscape:page
       x="8.9114728e-08"
       y="1.2545589e-05"
       width="266.59372"
       height="106.25781"
       id="page3"
       margin="0"
       bleed="0" /></sodipodi:namedview><defs
     id="defs2" /><g
     inkscape:label="Layer 1"
     inkscape:groupmode="layer"
     id="layer1"
     transform="translate(-521.0332,-169.71095)"><g
       id="path12"><path
         style="color:#000000;fill:#000000;-inkscape-stroke:none"
         d="m 530.77539,173.26172 v 100 h 1 v -100 z"
         id="path194" /><g
         id="g191"><g
           id="path191"><path
             style="color:#000000;fill:#000000;fill-rule:evenodd;-inkscape-stroke:none"
             d="m 531.2753,170.37703 2.5,4.325 h -5 z"
             id="path192" /><path
             style="color:#000000;fill:#000000;fill-rule:evenodd;-inkscape-stroke:none"
             d="m 531.27539,169.71094 -3.07812,5.32422 h 6.15625 z m 0,1.33203 1.92188,3.32617 h -3.84375 z"
             id="path193" /></g></g></g><g
       id="path12-3"><path
         style="color:#000000;fill:#000000;-inkscape-stroke:none"
         d="m 622.9788,265.40504 h -100"
         id="path198" /><path
         style="color:#000000;fill:#000000;-inkscape-stroke:none"
         d="m 522.97852,264.9043 v 1 h 100 v -1 z"
         id="path199" /><g
         id="g195"><g
           id="path195"><path
             style="color:#000000;fill:#000000;fill-rule:evenodd;-inkscape-stroke:none"
             d="m 625.8638,265.40504 -4.325,2.5 v -5 z"
             id="path196" /><path
             style="color:#000000;fill:#000000;fill-rule:evenodd;-inkscape-stroke:none"
             d="m 621.20508,262.32812 v 6.1543 l 5.32422,-3.07812 z m 0.66797,1.15625 3.32617,1.92188 -3.32617,1.91992 z"
             id="path197" /></g></g></g><g
       id="text13"><path
         style="color:#000000;-inkscape-font-specification:'Times New Roman, ';fill:#000000;-inkscape-stroke:none"
         d="m 521.08344,177.44128 h 1.61816 v 0.14021 h -0.0796 q -0.17054,0 -0.2577,0.0758 -0.0834,0.072 -0.0834,0.1819 0,0.14779 0.12506,0.40927 l 0.84508,1.7508 0.77687,-1.91754 q 0.0644,-0.15537 0.0644,-0.30696 0,-0.0682 -0.0265,-0.10232 -0.0303,-0.0417 -0.0947,-0.0644 -0.0644,-0.0265 -0.22737,-0.0265 v -0.14021 h 1.1293 v 0.14021 q -0.14022,0.0152 -0.21601,0.0606 -0.0758,0.0455 -0.16674,0.17053 -0.0341,0.0531 -0.12885,0.2918 l -1.41352,3.46369 q -0.20464,0.50402 -0.53812,0.76171 -0.3297,0.25769 -0.63665,0.25769 -0.22359,0 -0.36759,-0.12884 -0.14401,-0.12885 -0.14401,-0.29559 0,-0.15916 0.10232,-0.25769 0.10611,-0.0947 0.28801,-0.0947 0.12506,0 0.34106,0.0834 0.15159,0.0568 0.18948,0.0568 0.11369,0 0.24633,-0.11748 0.13642,-0.11747 0.27285,-0.45475 l 0.24632,-0.60254 -1.24678,-2.61862 q -0.0568,-0.11747 -0.1819,-0.2918 -0.0947,-0.13263 -0.15537,-0.17811 -0.0872,-0.0606 -0.28043,-0.10611 z"
         id="path200" /><path
         style="color:#000000;-inkscape-font-specification:'Times New Roman, ';fill:#000000;-inkscape-stroke:none"
         d="m 521.0332,177.39062 v 0.23047 l 0.0391,0.01 c 0.12481,0.0294 0.21277,0.064 0.26171,0.0977 0.0318,0.0238 0.0828,0.0795 0.14454,0.16601 0.0824,0.11481 0.14191,0.21107 0.17773,0.28516 l 1.23633,2.59765 -0.23633,0.58203 h -0.002 c -0.0895,0.22136 -0.17855,0.3673 -0.25782,0.43555 v 0.002 c -0.0831,0.0736 -0.15627,0.10352 -0.21484,0.10352 -1.4e-4,0 -0.021,-0.003 -0.0508,-0.0117 -0.0294,-0.009 -0.0702,-0.0227 -0.11914,-0.041 h -0.002 c -0.14597,-0.0562 -0.26342,-0.0879 -0.35743,-0.0879 -0.12994,0 -0.24093,0.0348 -0.32226,0.10742 v 0.002 c -0.0779,0.075 -0.11914,0.1781 -0.11914,0.29492 0,0.12556 0.0581,0.23899 0.16211,0.33203 0.10558,0.0945 0.24172,0.14063 0.40039,0.14063 0.21807,0 0.44086,-0.092 0.66601,-0.26758 0.23089,-0.17841 0.41582,-0.43922 0.55469,-0.78125 l 1.41406,-3.46484 c 0.0624,-0.15709 0.10698,-0.25575 0.12305,-0.28125 l 0.002,-0.002 c 0.0576,-0.0786 0.11014,-0.13013 0.15039,-0.15429 0.041,-0.0246 0.10618,-0.045 0.19532,-0.0547 l 0.0449,-0.004 v -0.23633 h -1.23047 v 0.24024 h 0.0508 c 0.10594,0 0.17782,0.0114 0.20703,0.0234 h 0.002 0.002 c 0.0362,0.0128 0.0575,0.0292 0.0703,0.0469 v 0.002 c 0.008,0.01 0.0176,0.0333 0.0176,0.0723 0,0.094 -0.0198,0.18884 -0.0605,0.28711 l -0.73437,1.8125 -0.79688,-1.64844 c -0.0818,-0.17101 -0.12109,-0.30229 -0.12109,-0.38672 0,-0.0606 0.0203,-0.10475 0.0664,-0.14453 0.0459,-0.0399 0.11833,-0.0644 0.22461,-0.0644 h 0.13086 v -0.24024 z m 0.0996,0.10157 h 1.51953 v 0.0391 h -0.0312 c -0.1211,0 -0.21877,0.0268 -0.28906,0.0879 -0.0651,0.0562 -0.10156,0.13479 -0.10156,0.2207 0,0.11263 0.0459,0.25206 0.13086,0.42969 l 0.89453,1.85352 0.81836,-2.02149 v -0.002 c 0.0446,-0.10827 0.0684,-0.2167 0.0684,-0.32422 0,-0.0519 -0.01,-0.0973 -0.0371,-0.13281 -0.027,-0.0372 -0.0668,-0.0626 -0.11524,-0.0801 -0.0454,-0.0187 -0.11811,-0.0229 -0.19726,-0.0254 v -0.0449 h 1.0293 v 0.0527 c -0.0732,0.0119 -0.1428,0.0256 -0.19141,0.0547 -0.0603,0.0362 -0.11882,0.0972 -0.18164,0.18359 v 0.002 h -0.002 c -0.0298,0.0463 -0.0694,0.14091 -0.13282,0.30078 l -1.41211,3.46289 c -0.13398,0.32999 -0.30968,0.57701 -0.52343,0.74219 -0.21387,0.16715 -0.41483,0.24609 -0.60547,0.24609 -0.13946,0 -0.24757,-0.0379 -0.33399,-0.11524 -0.088,-0.0788 -0.12695,-0.16104 -0.12695,-0.25781 0,-0.0947 0.0283,-0.16457 0.0859,-0.2207 0.06,-0.053 0.14209,-0.082 0.2539,-0.082 0.0723,0 0.18129,0.0256 0.32227,0.0801 0.0512,0.0192 0.0936,0.033 0.12695,0.043 0.0333,0.01 0.055,0.0156 0.0801,0.0156 0.093,0 0.18556,-0.0459 0.2793,-0.12891 0.10232,-0.0881 0.19502,-0.24542 0.28711,-0.47265 v -0.002 l 0.2539,-0.62109 -1.25586,-2.63867 c -0.0399,-0.0825 -0.10113,-0.18315 -0.18554,-0.30078 -0.0645,-0.0903 -0.1169,-0.15068 -0.16602,-0.1875 l -0.002,-0.002 c -0.0591,-0.0411 -0.15156,-0.0713 -0.25977,-0.0996 z"
         id="path201" /></g><g
       id="text14"><path
         style="color:#000000;-inkscape-font-specification:'Times New Roman, ';fill:#000000;-inkscape-stroke:none"
         d="m 616.01223,270.17154 v 1.14066 h 0.81097 v 0.26528 h -0.81097 v 2.25102 q 0,0.33727 0.0947,0.45475 0.0985,0.11748 0.25011,0.11748 0.12506,0 0.24253,-0.0758 0.11748,-0.0796 0.1819,-0.23117 h 0.1478 q -0.13264,0.37138 -0.37517,0.56086 -0.24254,0.18569 -0.50023,0.18569 -0.17432,0 -0.34106,-0.0947 -0.16675,-0.0985 -0.24633,-0.27664 -0.0796,-0.1819 -0.0796,-0.55707 v -2.33439 h -0.54949 v -0.12506 q 0.20843,-0.0834 0.42443,-0.28043 0.2198,-0.20085 0.39033,-0.4737 0.0872,-0.14401 0.24254,-0.52675 z"
         id="path202" /><path
         style="color:#000000;-inkscape-font-specification:'Times New Roman, ';fill:#000000;-inkscape-stroke:none"
         d="m 615.86133,270.12109 -0.0137,0.0312 c -0.10316,0.25417 -0.1835,0.42906 -0.23829,0.51953 -0.11149,0.17839 -0.23789,0.33226 -0.38085,0.4629 -0.14068,0.12832 -0.27829,0.21871 -0.41016,0.27148 l -0.0312,0.0117 v 0.20898 h 0.54883 v 2.28516 c 0,0.25365 0.0258,0.44334 0.084,0.57617 v 0.002 c 0.057,0.12751 0.14805,0.22822 0.26758,0.29883 0.11767,0.0668 0.24192,0.10157 0.36719,0.10156 0.1838,0 0.36081,-0.0683 0.52929,-0.19726 0.17069,-0.13335 0.30182,-0.32789 0.39258,-0.58203 L 617,274.04297 h -0.25195 l -0.0117,0.0312 c -0.0399,0.0939 -0.0944,0.1618 -0.16406,0.20898 -0.0715,0.0461 -0.14158,0.0684 -0.21485,0.0684 -0.0875,0 -0.15369,-0.032 -0.21094,-0.0996 -0.0485,-0.0601 -0.084,-0.20366 -0.084,-0.42383 v -2.20117 h 0.81055 v -0.36523 h -0.81055 v -1.14063 z m 0.0664,0.0996 h 0.0352 v 1.14063 h 0.81055 v 0.16601 h -0.81055 v 2.30078 c 0,0.22953 0.0277,0.38981 0.10547,0.48633 0.0738,0.088 0.17507,0.13672 0.28906,0.13672 0.0935,0 0.18443,-0.0291 0.26953,-0.084 0.0762,-0.0516 0.13097,-0.13282 0.17578,-0.22266 h 0.0352 c -0.0827,0.19675 -0.18105,0.36648 -0.31445,0.4707 -0.15491,0.1186 -0.30897,0.17579 -0.46875,0.17579 -0.10716,0 -0.21176,-0.0304 -0.31641,-0.0899 -0.10212,-0.0607 -0.17762,-0.1424 -0.22656,-0.25195 -0.048,-0.1097 -0.0742,-0.29053 -0.0742,-0.53711 v -2.38477 h -0.55078 v -0.0508 c 0.13553,-0.0594 0.2715,-0.14288 0.4082,-0.26758 0.1501,-0.13716 0.28451,-0.29896 0.40039,-0.48437 0.0579,-0.0957 0.13701,-0.27129 0.23242,-0.50391 z"
         id="path203" /></g><g
       id="path15"><path
         style="color:#000000;fill:#000000;stroke-dasharray:3, 1;-inkscape-stroke:none"
         d="m 552.9029,233.75249 v 31.65255"
         id="path204" /><path
         style="color:#000000;fill:#000000;stroke-dasharray:3, 1;-inkscape-stroke:none"
         d="m 552.40234,233.75195 v 3 h 1 v -3 z m 0,4 v 3 h 1 v -3 z m 0,4 v 3 h 1 v -3 z m 0,4 v 3 h 1 v -3 z m 0,4 v 3 h 1 v -3 z m 0,4 v 3 h 1 v -3 z m 0,4 v 3 h 1 v -3 z m 0,4 v 3 h 1 v -3 z"
         id="path205" /></g><g
       id="path15-6"><path
         style="color:#000000;fill:#000000;stroke-dasharray:3, 1;-inkscape-stroke:none"
         d="m 574.7543,224.9859 v 40.41914"
         id="path206" /><path
         style="color:#000000;fill:#000000;stroke-dasharray:3, 1;-inkscape-stroke:none"
         d="m 574.25391,224.98633 v 3 h 1 v -3 z m 0,4 v 3 h 1 v -3 z m 0,4 v 3 h 1 v -3 z m 0,4 v 3 h 1 v -3 z m 0,4 v 3 h 1 v -3 z m 0,4 v 3 h 1 v -3 z m 0,4 v 3 h 1 v -3 z m 0,4 v 3 h 1 v -3 z m 0,4 v 3 h 1 v -3 z m 0,4 v 3 h 1 v -3 z m 0,4 v 0.41797 h 1 v -0.41797 z"
         id="path207" /></g><g
       id="path15-6-5"><path
         style="color:#000000;fill:#000000;stroke-dasharray:3, 1;-inkscape-stroke:none"
         d="m 596.6057,215.56994 v 49.8351"
         id="path208" /><path
         style="color:#000000;fill:#000000;stroke-dasharray:3, 1;-inkscape-stroke:none"
         d="m 596.10547,215.57031 v 3 h 1 v -3 z m 0,4 v 3 h 1 v -3 z m 0,4 v 3 h 1 v -3 z m 0,4 v 3 h 1 v -3 z m 0,4 v 3 h 1 v -3 z m 0,4 v 3 h 1 v -3 z m 0,4 v 3 h 1 v -3 z m 0,4 v 3 h 1 v -3 z m 0,4 v 3 h 1 v -3 z m 0,4 v 3 h 1 v -3 z m 0,4 v 3 h 1 v -3 z m 0,4 v 3 h 1 v -3 z m 0,4 v 1.83399 h 1 v -1.83399 z"
         id="path209" /></g><g
       id="path16"><path
         style="color:#000000;fill:#000000;-inkscape-stroke:none"
         d="m 554.03881,232.33342 a 1.1364093,1.1364093 0 0 1 -1.13641,1.13641 1.1364093,1.1364093 0 0 1 -1.1364,-1.13641 1.1364093,1.1364093 0 0 1 1.1364,-1.13641 1.1364093,1.1364093 0 0 1 1.13641,1.13641 z"
         id="path210" /><path
         style="color:#000000;fill:#000000;-inkscape-stroke:none"
         d="m 552.90234,230.69727 c -0.89784,0 -1.63671,0.73887 -1.63672,1.63671 0,0.89785 0.73888,1.63672 1.63672,1.63672 0.89784,0 1.63672,-0.73887 1.63672,-1.63672 0,-0.89784 -0.73888,-1.63671 -1.63672,-1.63671 z m 0,1 c 0.3574,0 0.63672,0.27931 0.63672,0.63671 0,0.35741 -0.27932,0.63672 -0.63672,0.63672 -0.3574,0 -0.63672,-0.27931 -0.63672,-0.63672 0,-0.3574 0.27932,-0.63671 0.63672,-0.63671 z"
         id="path211" /></g><g
       id="path16-6"><path
         style="color:#000000;fill:#000000;-inkscape-stroke:none"
         d="m 597.74169,214.67961 a 1.1364093,1.1364093 0 0 1 -1.1364,1.13641 1.1364093,1.1364093 0 0 1 -1.13641,-1.13641 1.1364093,1.1364093 0 0 1 1.13641,-1.13641 1.1364093,1.1364093 0 0 1 1.1364,1.13641 z"
         id="path212" /><path
         style="color:#000000;fill:#000000;-inkscape-stroke:none"
         d="m 596.60547,213.04297 c -0.89784,0 -1.63672,0.73888 -1.63672,1.63672 0,0.89784 0.73888,1.63672 1.63672,1.63672 0.89784,0 1.63672,-0.73888 1.63672,-1.63672 0,-0.89784 -0.73888,-1.63672 -1.63672,-1.63672 z m 0,1 c 0.3574,0 0.63672,0.27932 0.63672,0.63672 0,0.3574 -0.27932,0.63672 -0.63672,0.63672 -0.3574,0 -0.63672,-0.27932 -0.63672,-0.63672 0,-0.3574 0.27932,-0.63672 0.63672,-0.63672 z"
         id="path213" /></g><g
       id="path16-7"><path
         style="color:#000000;fill:#000000;-inkscape-stroke:none"
         d="m 575.89025,223.589 a 1.1364093,1.1364093 0 0 1 -1.1364,1.13641 1.1364093,1.1364093 0 0 1 -1.13641,-1.13641 1.1364093,1.1364093 0 0 1 1.13641,-1.1364 1.1364093,1.1364093 0 0 1 1.1364,1.1364 z"
         id="path214" /><path
         style="color:#000000;fill:#000000;-inkscape-stroke:none"
         d="m 574.75391,221.95312 c -0.89784,0 -1.63672,0.73888 -1.63672,1.63672 0,0.89784 0.73888,1.63477 1.63672,1.63477 0.89784,0 1.63671,-0.73693 1.63671,-1.63477 0,-0.89784 -0.73887,-1.63672 -1.63671,-1.63672 z m 0,1 c 0.3574,0 0.63671,0.27932 0.63671,0.63672 0,0.3574 -0.27931,0.63477 -0.63671,0.63477 -0.3574,0 -0.63672,-0.27737 -0.63672,-0.63477 0,-0.3574 0.27932,-0.63672 0.63672,-0.63672 z"
         id="path215" /></g><g
       id="text14-1"
       style="font-size:7.7611px;font-family:'Times New Roman';-inkscape-font-specification:'Times New Roman, ';stroke:#000000;stroke-width:0.1"
       aria-label="t0&#10;"><g
         id="path216"><path
           style="color:#000000;-inkscape-font-specification:'Times New Roman, ';fill:#000000;stroke:none;-inkscape-stroke:none"
           d="m 551.95693,268.03595 v 1.14067 h 0.81097 v 0.26527 h -0.81097 v 2.25102 q 0,0.33727 0.0947,0.45475 0.0985,0.11748 0.25011,0.11748 0.12506,0 0.24254,-0.0758 0.11747,-0.0796 0.1819,-0.23117 h 0.14779 q -0.13264,0.37138 -0.37517,0.56086 -0.24253,0.18569 -0.50023,0.18569 -0.17432,0 -0.34106,-0.0947 -0.16674,-0.0985 -0.24632,-0.27664 -0.0796,-0.1819 -0.0796,-0.55707 v -2.33439 h -0.54949 v -0.12506 q 0.20843,-0.0834 0.42444,-0.28043 0.21979,-0.20085 0.39033,-0.4737 0.0872,-0.144 0.24253,-0.52675 z"
           id="path218" /><path
           style="color:#000000;-inkscape-font-specification:'Times New Roman, ';fill:#000000;stroke:none;-inkscape-stroke:none"
           d="m 551.80664,267.98633 -0.0137,0.0312 c -0.10315,0.25417 -0.1835,0.42907 -0.23828,0.51953 -0.1115,0.17839 -0.23986,0.33225 -0.38282,0.46289 -0.14068,0.12832 -0.27632,0.21676 -0.4082,0.26953 l -0.0312,0.0137 v 0.20899 h 0.54883 v 2.2832 c 0,0.25365 0.0259,0.44529 0.084,0.57813 0.057,0.1275 0.14806,0.22822 0.26758,0.29882 v 0.002 c 0.11767,0.0668 0.23997,0.0996 0.36524,0.0996 0.18381,0 0.36277,-0.0663 0.53125,-0.19532 0.17069,-0.13335 0.30181,-0.32984 0.39257,-0.58398 l 0.0234,-0.0664 h -0.25195 l -0.0137,0.0312 c -0.0395,0.0929 -0.0935,0.15991 -0.16211,0.20703 -0.0715,0.0462 -0.14353,0.0684 -0.2168,0.0684 -0.0882,0 -0.15338,-0.031 -0.21094,-0.0996 -0.0481,-0.0606 -0.082,-0.20268 -0.082,-0.42187 v -2.20117 h 0.81055 v -0.36524 h -0.81055 v -1.14062 z m 0.0644,0.0996 h 0.0352 v 1.14062 h 0.8125 v 0.16602 h -0.8125 v 2.30078 c 0,0.22953 0.0296,0.38981 0.10742,0.48633 0.0738,0.088 0.17312,0.13476 0.28711,0.13476 0.0935,0 0.18637,-0.0291 0.27149,-0.084 0.0768,-0.0521 0.13085,-0.13175 0.17578,-0.22266 h 0.0332 c -0.0825,0.19695 -0.17927,0.36625 -0.3125,0.47071 -0.1549,0.11859 -0.31091,0.17578 -0.4707,0.17578 -0.10655,0 -0.2104,-0.0291 -0.31446,-0.0879 -0.10279,-0.0607 -0.17741,-0.14389 -0.22656,-0.25391 -0.048,-0.1097 -0.0762,-0.29053 -0.0762,-0.53711 v -2.38281 h -0.54883 v -0.0508 c 0.13553,-0.0594 0.2715,-0.14289 0.4082,-0.26758 0.1501,-0.13716 0.28255,-0.29897 0.39844,-0.48438 v -0.002 c 0.0579,-0.0956 0.13704,-0.2694 0.23242,-0.50195 z"
           id="path219" /></g><g
         id="path217"><path
           style="color:#000000;-inkscape-font-specification:'Times New Roman, ';fill:#000000;stroke:none;-inkscape-stroke:none"
           d="m 553.04492,272.54974 q 0,-0.57147 0.17243,-0.98284 0.17243,-0.41382 0.45816,-0.61581 0.22169,-0.16011 0.45816,-0.16011 0.38427,0 0.68971,0.39166 0.3818,0.48526 0.3818,1.31537 0,0.58132 -0.1675,0.98776 -0.1675,0.40643 -0.4286,0.59118 -0.25864,0.18228 -0.50004,0.18228 -0.47787,0 -0.79563,-0.56409 -0.26849,-0.4754 -0.26849,-1.1454 z m 0.4828,0.0616 q 0,0.68971 0.16996,1.1257 0.1404,0.36702 0.41875,0.36702 0.13302,0 0.27588,-0.11823 0.14287,-0.1207 0.21677,-0.40151 0.11331,-0.42368 0.11331,-1.19467 0,-0.57147 -0.11824,-0.95328 -0.0887,-0.28327 -0.22908,-0.4015 -0.10099,-0.0813 -0.24386,-0.0813 -0.1675,0 -0.29805,0.15026 -0.17735,0.20444 -0.2414,0.6429 -0.064,0.43846 -0.064,0.8646 z"
           id="path220" /><path
           style="color:#000000;-inkscape-font-specification:'Times New Roman, ';fill:#000000;stroke:none;-inkscape-stroke:none"
           d="m 554.13281,270.74023 c -0.16893,0 -0.33169,0.0582 -0.48633,0.16993 -0.19975,0.14121 -0.35699,0.35445 -0.47461,0.63671 -0.11814,0.28186 -0.17773,0.61595 -0.17773,1.00196 l 0.10352,0.006 c -10e-6,-0.002 -0.002,-0.004 -0.002,-0.006 0,-0.37595 0.0562,-0.69626 0.16797,-0.96289 0.11229,-0.2695 0.26019,-0.46565 0.44141,-0.59375 0.14095,-0.1018 0.28137,-0.15039 0.42773,-0.15039 0.0978,0 0.17571,0.11145 0.26563,0.15234 -0.0752,-0.0581 -0.16575,-0.0898 -0.26758,-0.0898 -0.12662,0 -0.24196,0.0579 -0.33594,0.16601 -0.12787,0.14741 -0.20846,0.37219 -0.25195,0.66992 -0.0411,0.28137 -0.0587,0.55797 -0.0605,0.83204 h -0.004 v 0.0391 c 0,0.46391 0.0553,0.84556 0.17187,1.14453 0.0381,0.0997 0.0928,0.16659 0.14844,0.23047 -0.15132,-0.0856 -0.32015,-0.10115 -0.44141,-0.31641 -0.0294,-0.0521 -0.0204,-0.13363 -0.0449,-0.18945 -0.003,0.0716 -0.0807,0.1707 -0.043,0.23828 0.2171,0.3854 0.50159,0.58984 0.83984,0.58984 0.17352,0 0.35089,-0.0657 0.5293,-0.1914 0.18407,-0.13024 0.33118,-0.33634 0.44531,-0.61328 0.11487,-0.27873 0.17188,-0.61351 0.17188,-1.00586 0,-0.56107 -0.12948,-1.01131 -0.39258,-1.34571 -0.20988,-0.26912 -0.4573,-0.41211 -0.73047,-0.41211 z M 554.41016,271 c 0.12569,0.0599 0.25983,0.0677 0.37304,0.21289 0.24597,0.31262 0.3711,0.73942 0.3711,1.28516 0,0.38274 -0.0537,0.70555 -0.16211,0.96875 -0.10895,0.26436 -0.24853,0.4522 -0.41211,0.56836 -0.16644,0.1173 -0.32236,0.17382 -0.47071,0.17382 -0.0669,0 -0.10617,-0.10361 -0.16796,-0.12109 0.0567,0.028 0.10991,0.0664 0.17578,0.0664 0.10349,0 0.20553,-0.0472 0.30664,-0.13086 0.1066,-0.0901 0.18354,-0.23261 0.23437,-0.42578 0.0775,-0.28977 0.11328,-0.69059 0.11328,-1.20704 0,-0.38442 -0.0382,-0.70747 -0.11914,-0.96875 -0.0602,-0.1924 -0.1389,-0.33354 -0.24218,-0.42187 z m -0.2793,0.004 c 0.0858,0 0.15453,0.0233 0.21289,0.0703 0.0821,0.0696 0.15564,0.19411 0.21289,0.37695 0.0767,0.24781 0.11523,0.56192 0.11523,0.93945 0,0.51155 -0.0377,0.90651 -0.11132,1.18165 -0.0477,0.18124 -0.11728,0.30412 -0.20118,0.375 -0.0887,0.0729 -0.16881,0.10742 -0.24218,0.10742 -0.0818,0 -0.14941,-0.0261 -0.21094,-0.0801 -0.0615,-0.0539 -0.11728,-0.13867 -0.16211,-0.25586 -0.11007,-0.28235 -0.16602,-0.65172 -0.16602,-1.10742 0,-0.28159 0.0202,-0.56741 0.0625,-0.85742 0.0419,-0.28688 0.12188,-0.49201 0.23047,-0.61719 0.0801,-0.0922 0.16305,-0.13281 0.25977,-0.13281 z"
           id="path221" /></g></g><g
       id="text14-3"
       style="font-size:7.7611px;font-family:'Times New Roman';-inkscape-font-specification:'Times New Roman, ';stroke:#000000;stroke-width:0.1"
       aria-label="t1&#10;"><g
         id="path222"><path
           style="color:#000000;-inkscape-font-specification:'Times New Roman, ';fill:#000000;stroke:none;-inkscape-stroke:none"
           d="m 574.40029,268.06549 v 1.14067 h 0.81097 v 0.26527 h -0.81097 v 2.25102 q 0,0.33727 0.0947,0.45475 0.0985,0.11748 0.25011,0.11748 0.12506,0 0.24254,-0.0758 0.11747,-0.0796 0.1819,-0.23117 h 0.14779 q -0.13264,0.37138 -0.37517,0.56086 -0.24253,0.18569 -0.50023,0.18569 -0.17432,0 -0.34106,-0.0947 -0.16674,-0.0985 -0.24633,-0.27664 -0.0796,-0.1819 -0.0796,-0.55707 v -2.33439 h -0.54949 v -0.12506 q 0.20843,-0.0834 0.42444,-0.28043 0.21979,-0.20085 0.39033,-0.4737 0.0872,-0.144 0.24253,-0.52675 z"
           id="path224" /><path
           style="color:#000000;-inkscape-font-specification:'Times New Roman, ';fill:#000000;stroke:none;-inkscape-stroke:none"
           d="m 574.25,268.01562 -0.0137,0.0312 c -0.10315,0.25418 -0.1835,0.42907 -0.23828,0.51954 -0.1115,0.17839 -0.23986,0.33225 -0.38282,0.46289 -0.14068,0.12832 -0.27632,0.21871 -0.4082,0.27148 l -0.0312,0.0117 v 0.20898 h 0.54883 v 2.28516 c 0,0.25365 0.0259,0.44334 0.084,0.57617 0.057,0.1275 0.14806,0.22822 0.26758,0.29883 v 0.002 c 0.11767,0.0668 0.23997,0.10157 0.36524,0.10157 0.18381,0 0.36277,-0.0683 0.53125,-0.19727 0.17069,-0.13335 0.30181,-0.32984 0.39257,-0.58398 l 0.0234,-0.0664 h -0.25195 l -0.0137,0.0312 c -0.0399,0.0939 -0.0944,0.1618 -0.16407,0.20898 -0.0709,0.0454 -0.14217,0.0664 -0.21484,0.0664 -0.0882,0 -0.15338,-0.031 -0.21094,-0.0996 -0.0481,-0.0606 -0.082,-0.20268 -0.082,-0.42187 v -2.20118 h 0.81055 v -0.36523 h -0.81055 v -1.14063 z m 0.0644,0.0996 h 0.0352 v 1.14063 h 0.8125 v 0.16601 h -0.8125 v 2.30079 c 0,0.22952 0.0296,0.3898 0.10742,0.48632 0.0738,0.088 0.17312,0.13477 0.28711,0.13477 0.0935,0 0.18637,-0.0271 0.27148,-0.082 v -0.002 c 0.0768,-0.0521 0.13086,-0.13176 0.17579,-0.22266 h 0.0332 c -0.0828,0.19752 -0.17874,0.36816 -0.3125,0.47266 -0.1549,0.11859 -0.31091,0.17382 -0.4707,0.17382 -0.10655,0 -0.2104,-0.0291 -0.31446,-0.0879 -0.10235,-0.0605 -0.1774,-0.14263 -0.22656,-0.25195 v -0.002 c -0.0477,-0.10982 -0.0762,-0.28946 -0.0762,-0.53516 v -2.38477 h -0.54883 v -0.0508 c 0.13553,-0.0594 0.2715,-0.14288 0.4082,-0.26757 0.1501,-0.13717 0.28255,-0.29897 0.39844,-0.48438 0.0579,-0.0957 0.13701,-0.27129 0.23242,-0.50391 z"
           id="path225" /></g><g
         id="path223"><path
           style="color:#000000;-inkscape-font-specification:'Times New Roman, ';fill:#000000;stroke:none;-inkscape-stroke:none"
           d="m 575.89718,271.21711 0.81287,-0.39658 h 0.0813 v 2.8204 q 0,0.28081 0.0222,0.34978 0.0246,0.069 0.0985,0.10592 0.0739,0.0369 0.30052,0.0419 v 0.0911 h -1.25625 v -0.0911 q 0.23647,-0.005 0.30544,-0.0394 0.069,-0.037 0.0961,-0.0961 0.0271,-0.0616 0.0271,-0.3621 v -1.80309 q 0,-0.36456 -0.0246,-0.46801 -0.0172,-0.0788 -0.0641,-0.11577 -0.0443,-0.0369 -0.10838,-0.0369 -0.0911,0 -0.25371,0.0764 z"
           id="path226" /><path
           style="color:#000000;-inkscape-font-specification:'Times New Roman, ';fill:#000000;stroke:none;-inkscape-stroke:none"
           d="m 576.69922,270.77148 -0.86914,0.42188 0.0801,0.16601 0.0449,-0.0215 c 0.10515,-0.0494 0.18566,-0.0703 0.23242,-0.0703 0.0331,0 0.0557,0.008 0.0762,0.0254 h 0.002 c 0.02,0.0158 0.0351,0.043 0.0449,0.0879 h 0.002 c 0.0133,0.0561 0.0215,0.21512 0.0215,0.45703 v 1.80273 c 0,0.0994 -0.001,0.17999 -0.006,0.23829 -0.004,0.0583 -0.0126,0.0967 -0.0156,0.10351 -0.013,0.0284 -0.0356,0.0516 -0.0742,0.0723 -0.0273,0.0131 -0.12893,0.0299 -0.2832,0.0332 l -0.0488,0.002 v 0.18946 h 1.35547 v -0.18946 l -0.0488,-0.002 c -0.14849,-0.003 -0.2475,-0.0193 -0.2793,-0.0352 -0.0401,-0.02 -0.0602,-0.0444 -0.0723,-0.0781 -0.009,-0.0271 -0.0195,-0.1481 -0.0195,-0.33399 v -2.86914 z m 0.0215,0.0996 h 0.0215 v 2.76953 c 0,0.18853 0.003,0.30042 0.0234,0.36524 v 0.002 c 0.0208,0.0583 0.0666,0.10363 0.125,0.13281 0.0533,0.0266 0.14936,0.0336 0.25586,0.0391 h -1.11914 c 0.10645,-0.005 0.20446,-0.01 0.25586,-0.0352 l 0.002,-0.002 c 0.0534,-0.0286 0.0941,-0.0687 0.11718,-0.11914 h 0.002 c 0.0151,-0.0342 0.0188,-0.0763 0.0234,-0.13867 0.005,-0.0624 0.008,-0.14323 0.008,-0.24415 v -1.80273 c 0,-0.24416 -0.008,-0.39864 -0.0274,-0.48047 -0.0133,-0.0589 -0.0383,-0.10961 -0.0801,-0.14258 -0.0386,-0.0322 -0.0883,-0.0469 -0.14062,-0.0469 -0.0509,0 -0.12084,0.0296 -0.1875,0.0547 z"
           id="path227" /></g></g><g
       id="text14-8"
       style="font-size:7.7611px;font-family:'Times New Roman';-inkscape-font-specification:'Times New Roman, ';stroke:#000000;stroke-width:0.1"
       aria-label="t2&#10;"><g
         id="path228"><path
           style="color:#000000;-inkscape-font-specification:'Times New Roman, ';fill:#000000;stroke:none;-inkscape-stroke:none"
           d="m 596.40761,268.06549 v 1.14067 h 0.81098 v 0.26527 h -0.81098 v 2.25102 q 0,0.33727 0.0947,0.45475 0.0985,0.11748 0.25011,0.11748 0.12506,0 0.24254,-0.0758 0.11748,-0.0796 0.1819,-0.23117 h 0.14779 q -0.13263,0.37138 -0.37517,0.56086 -0.24253,0.18569 -0.50022,0.18569 -0.17432,0 -0.34107,-0.0947 -0.16674,-0.0985 -0.24632,-0.27664 -0.0796,-0.1819 -0.0796,-0.55707 v -2.33439 h -0.54949 v -0.12506 q 0.20842,-0.0834 0.42443,-0.28043 0.2198,-0.20085 0.39033,-0.4737 0.0872,-0.144 0.24253,-0.52675 z"
           id="path230" /><path
           style="color:#000000;-inkscape-font-specification:'Times New Roman, ';fill:#000000;stroke:none;-inkscape-stroke:none"
           d="m 596.25586,268.01562 -0.0117,0.0312 c -0.10315,0.25418 -0.18545,0.42907 -0.24023,0.51954 h 0.002 c -0.11149,0.17838 -0.23985,0.33225 -0.38281,0.46289 -0.14069,0.12832 -0.27634,0.21871 -0.40821,0.27148 l -0.0312,0.0117 v 0.20898 h 0.54883 v 2.28516 c 0,0.25365 0.0259,0.44334 0.084,0.57617 0.057,0.1275 0.1461,0.22822 0.26562,0.29883 l 0.002,0.002 c 0.11768,0.0668 0.23997,0.10157 0.36524,0.10157 0.1838,0 0.36278,-0.0683 0.53125,-0.19727 0.1707,-0.13335 0.29986,-0.32984 0.39062,-0.58398 l 0.0254,-0.0664 h -0.25195 l -0.0137,0.0312 c -0.0399,0.0939 -0.0944,0.1618 -0.16406,0.20898 -0.0709,0.0454 -0.14218,0.0664 -0.21485,0.0664 -0.0882,0 -0.15338,-0.031 -0.21093,-0.0996 -0.0481,-0.0606 -0.084,-0.20268 -0.084,-0.42187 v -2.20118 h 0.8125 v -0.36523 h -0.8125 v -1.14063 z m 0.0664,0.0996 h 0.0352 v 1.14063 h 0.81055 v 0.16601 h -0.81055 v 2.30079 c 0,0.22952 0.0277,0.3898 0.10547,0.48632 h 0.002 c 0.0738,0.088 0.17313,0.13477 0.28711,0.13477 0.0935,0 0.18442,-0.0271 0.26953,-0.082 l 0.002,-0.002 c 0.0768,-0.0521 0.13086,-0.13176 0.17578,-0.22266 h 0.0332 c -0.0828,0.19758 -0.18066,0.36813 -0.31445,0.47266 -0.15434,0.11771 -0.30955,0.17382 -0.46875,0.17382 -0.10716,0 -0.21175,-0.0284 -0.31641,-0.0879 -0.10235,-0.0605 -0.17546,-0.14264 -0.22461,-0.25195 v -0.002 c -0.0477,-0.10982 -0.0762,-0.28946 -0.0762,-0.53516 v -2.38477 h -0.54883 v -0.0508 c 0.13553,-0.0594 0.2715,-0.14288 0.40821,-0.26757 0.1501,-0.13717 0.28255,-0.29897 0.39843,-0.48438 0.0579,-0.0957 0.13702,-0.27129 0.23243,-0.50391 z"
           id="path231" /></g><g
         id="path229"><path
           style="color:#000000;-inkscape-font-specification:'Times New Roman, ';fill:#000000;stroke:none;-inkscape-stroke:none"
           d="m 599.62631,273.58674 -0.23401,0.64291 h -1.97059 v -0.0911 q 0.86952,-0.79316 1.22423,-1.29566 0.3547,-0.50251 0.3547,-0.91879 0,-0.31776 -0.19459,-0.52221 -0.1946,-0.20445 -0.46555,-0.20445 -0.24633,0 -0.44339,0.14533 -0.19459,0.14287 -0.2882,0.42122 h -0.0911 q 0.0616,-0.4557 0.3153,-0.69956 0.25618,-0.24386 0.63798,-0.24386 0.40643,0 0.67739,0.2611 0.27342,0.2611 0.27342,0.61581 0,0.25371 -0.11824,0.50743 -0.18228,0.39904 -0.59117,0.84489 -0.61335,0.67 -0.76607,0.80794 h 0.87199 q 0.26602,0 0.37194,-0.0197 0.10839,-0.0197 0.1946,-0.0788 0.0862,-0.0616 0.15026,-0.17243 z"
           id="path232" /><path
           style="color:#000000;-inkscape-font-specification:'Times New Roman, ';fill:#000000;stroke:none;-inkscape-stroke:none"
           d="m 598.4707,270.77148 c -0.26518,0 -0.4921,0.0847 -0.67187,0.25586 v 0.002 c -0.1789,0.17195 -0.28795,0.41686 -0.33008,0.72851 l -0.008,0.0566 h 0.18359 l 0.0117,-0.0352 c 0.0599,-0.1781 0.14921,-0.30814 0.26953,-0.39649 h 0.002 c 0.12337,-0.091 0.25773,-0.13476 0.41211,-0.13476 0.16806,0 0.30795,0.0596 0.42969,0.1875 0.12081,0.12693 0.18164,0.28664 0.18164,0.48828 0,0.26332 -0.11299,0.56093 -0.3457,0.89062 -0.23252,0.3294 -0.6385,0.7596 -1.2168,1.28711 l -0.0176,0.0156 v 0.16211 h 2.05664 l 0.26954,-0.74219 h -0.19141 l -0.0137,0.0254 c -0.0399,0.0689 -0.086,0.12002 -0.13672,0.15625 -0.0512,0.0348 -0.10856,0.0584 -0.17383,0.0703 -0.0632,0.0118 -0.18717,0.0195 -0.36328,0.0195 h -0.75586 c 0.12351,-0.11895 0.32185,-0.32518 0.6875,-0.72461 0.27511,-0.29998 0.47514,-0.58494 0.59961,-0.85742 0.0815,-0.17493 0.12305,-0.35239 0.12305,-0.52929 0,-0.24932 -0.0986,-0.47047 -0.28907,-0.65235 -0.18963,-0.18273 -0.43123,-0.27344 -0.71289,-0.27344 z m 0,0.0996 c 0.26025,0 0.47094,0.0807 0.64258,0.2461 0.1741,0.16625 0.25781,0.35645 0.25781,0.58008 0,0.16137 -0.0371,0.32296 -0.11328,0.48632 -0.11857,0.25958 -0.31196,0.53755 -0.58203,0.83203 -0.40866,0.44641 -0.66703,0.71741 -0.76367,0.80469 l -0.0957,0.0879 h 1.00195 c 0.17858,0 0.30285,-0.007 0.38086,-0.0215 0.0786,-0.0143 0.15145,-0.0425 0.21484,-0.0859 0.0554,-0.0396 0.0992,-0.0998 0.14063,-0.16406 l -0.19727,0.54297 h -1.88476 v -0.0234 c 0.56762,-0.51948 0.97793,-0.94954 1.21484,-1.28516 0.24022,-0.34032 0.36328,-0.65554 0.36328,-0.94726 0,-0.22205 -0.0703,-0.41097 -0.20898,-0.55664 -0.13773,-0.1447 -0.30875,-0.22071 -0.50196,-0.22071 -0.17405,0 -0.33327,0.0535 -0.47265,0.15625 -0.1178,0.0865 -0.19518,0.22469 -0.25977,0.37696 0.0487,-0.23731 0.12279,-0.44595 0.25977,-0.57813 0.1618,-0.15402 0.35963,-0.23047 0.60351,-0.23047 z"
           id="path233" /></g></g><g
       id="path12-6"><path
         style="color:#000000;fill:#000000;-inkscape-stroke:none"
         d="m 692.38867,174.92187 v 100 h 1 v -100 z"
         id="path237" /><g
         id="g234"><g
           id="path234"><path
             style="color:#000000;fill:#000000;fill-rule:evenodd;-inkscape-stroke:none"
             d="m 692.88891,172.03682 2.5,4.325 h -5 z"
             id="path235" /><path
             style="color:#000000;fill:#000000;fill-rule:evenodd;-inkscape-stroke:none"
             d="m 692.88867,171.37109 -3.07812,5.32422 h 6.15625 z m 0,1.33203 1.92188,3.32618 h -3.84375 z"
             id="path236" /></g></g></g><g
       id="path12-3-3"><path
         style="color:#000000;fill:#000000;-inkscape-stroke:none"
         d="M 783.61895,267.06483 H 656.20699"
         id="path241" /><path
         style="color:#000000;fill:#000000;-inkscape-stroke:none"
         d="m 656.20703,266.5 v 1.12891 H 783.61914 V 266.5 Z"
         id="path242" /><g
         id="g238"><g
           id="path238"><path
             style="color:#000000;fill:#000000;fill-rule:evenodd;-inkscape-stroke:none"
             d="m 786.87545,267.06483 -4.88193,2.82192 v -5.64384 z"
             id="path239" /><path
             style="color:#000000;fill:#000000;fill-rule:evenodd;-inkscape-stroke:none"
             d="m 781.61719,263.5918 v 6.94726 l 6.00976,-3.47461 z m 0.75195,1.30273 3.75391,2.16992 -3.75391,2.16992 z"
             id="path240" /></g></g></g><g
       id="text13-4"><path
         style="color:#000000;-inkscape-font-specification:'Times New Roman, ';fill:#000000;-inkscape-stroke:none"
         d="m 682.69764,179.10107 h 1.61815 v 0.14021 h -0.0796 q -0.17053,0 -0.25769,0.0758 -0.0834,0.072 -0.0834,0.1819 0,0.14779 0.12506,0.40927 l 0.84508,1.7508 0.77686,-1.91754 q 0.0644,-0.15537 0.0644,-0.30696 0,-0.0682 -0.0265,-0.10232 -0.0303,-0.0417 -0.0947,-0.0644 -0.0644,-0.0265 -0.22738,-0.0265 v -0.14021 h 1.12931 v 0.14021 q -0.14022,0.0152 -0.21601,0.0606 -0.0758,0.0455 -0.16674,0.17053 -0.0341,0.053 -0.12885,0.2918 l -1.41352,3.46369 q -0.20464,0.50402 -0.53812,0.76171 -0.3297,0.25769 -0.63666,0.25769 -0.22358,0 -0.36759,-0.12884 -0.144,-0.12885 -0.144,-0.29559 0,-0.15916 0.10232,-0.25769 0.1061,-0.0947 0.28801,-0.0947 0.12505,0 0.34106,0.0834 0.15158,0.0568 0.18948,0.0568 0.11369,0 0.24632,-0.11748 0.13643,-0.11747 0.27285,-0.45475 l 0.24633,-0.60254 -1.24678,-2.61862 q -0.0568,-0.11747 -0.1819,-0.2918 -0.0947,-0.13263 -0.15537,-0.17811 -0.0872,-0.0606 -0.28043,-0.10611 z"
         id="path243" /><path
         style="color:#000000;-inkscape-font-specification:'Times New Roman, ';fill:#000000;-inkscape-stroke:none"
         d="m 682.64844,179.05078 v 0.23047 l 0.0371,0.008 c 0.12563,0.0296 0.21493,0.0657 0.26367,0.0996 0.0319,0.0243 0.0816,0.0806 0.14258,0.16602 h 0.002 c 0.0824,0.11481 0.13996,0.21107 0.17578,0.28515 l 1.23828,2.59766 -0.23828,0.58203 c -0.0895,0.22135 -0.1805,0.3673 -0.25976,0.43555 -0.0831,0.0736 -0.15432,0.10547 -0.2129,0.10547 -1.4e-4,0 -0.0229,-0.003 -0.0527,-0.0117 -0.0298,-0.009 -0.0693,-0.0223 -0.11914,-0.041 -0.14703,-0.0568 -0.26489,-0.0879 -0.35938,-0.0879 -0.12994,0 -0.23898,0.0348 -0.32031,0.10742 l -0.002,0.002 c -0.0779,0.075 -0.11719,0.17614 -0.11719,0.29297 0,0.12555 0.0562,0.24093 0.16016,0.33398 0.10559,0.0945 0.24173,0.14062 0.40039,0.14062 0.21863,0 0.44224,-0.0911 0.66797,-0.26757 0.23088,-0.17841 0.41581,-0.44117 0.55468,-0.78321 l 1.41211,-3.46289 c 0.0624,-0.15715 0.10704,-0.25588 0.12305,-0.28125 l 0.002,-0.002 c 0.0576,-0.0786 0.11014,-0.13013 0.15039,-0.1543 0.041,-0.0245 0.10618,-0.045 0.19532,-0.0547 l 0.0449,-0.004 v -0.23633 h -1.22852 v 0.24024 h 0.0488 c 0.10595,0 0.17978,0.0114 0.20899,0.0234 h 0.002 c 0.0362,0.0128 0.0575,0.0292 0.0703,0.0469 h 0.002 v 0.002 c 0.008,0.01 0.0156,0.0313 0.0156,0.0703 0,0.094 -0.0198,0.1908 -0.0606,0.28907 l -0.73437,1.8125 -0.79688,-1.64844 c -0.0818,-0.17101 -0.11914,-0.30425 -0.11914,-0.38867 0,-0.0606 0.0203,-0.1028 0.0664,-0.14258 0.0459,-0.0399 0.11833,-0.0644 0.22461,-0.0644 h 0.1289 v -0.24024 z m 0.0996,0.0996 h 1.51757 v 0.041 h -0.0293 c -0.1211,0 -0.22073,0.0268 -0.29102,0.0879 -0.0651,0.0562 -0.0996,0.13283 -0.0996,0.21875 0,0.11263 0.0439,0.25401 0.12891,0.43164 l 0.89453,1.85351 0.81836,-2.02343 c 0.0451,-0.1089 0.0684,-0.21804 0.0684,-0.32618 0,-0.0519 -0.01,-0.0973 -0.0371,-0.13281 -0.0272,-0.0364 -0.0672,-0.0629 -0.11523,-0.0801 h -0.002 c -0.0448,-0.0181 -0.11615,-0.0209 -0.19336,-0.0234 v -0.0469 h 1.0293 v 0.0547 c -0.0732,0.0119 -0.14279,0.0256 -0.19141,0.0547 -0.0603,0.0362 -0.11882,0.0972 -0.18164,0.18359 h -0.002 v 0.002 c -0.0298,0.0463 -0.0694,0.14085 -0.13281,0.30078 l -1.41407,3.46289 c -0.13398,0.33 -0.30772,0.57506 -0.52148,0.74024 v 0.002 c -0.21387,0.16716 -0.41677,0.2461 -0.60742,0.2461 -0.13945,0 -0.24756,-0.0379 -0.33399,-0.11524 -0.088,-0.0788 -0.12695,-0.163 -0.12695,-0.25976 0,-0.0954 0.0294,-0.16435 0.0879,-0.22071 0.06,-0.053 0.14015,-0.0801 0.25195,-0.0801 0.0723,0 0.18324,0.0237 0.32422,0.0781 v 0.002 c 0.0512,0.0192 0.0936,0.033 0.12696,0.043 0.0333,0.01 0.0549,0.0156 0.0801,0.0156 0.093,0 0.18557,-0.0459 0.2793,-0.12891 0.10264,-0.0884 0.1928,-0.24626 0.28516,-0.47461 l 0.25586,-0.62305 -1.25586,-2.63867 h -0.002 c -0.0399,-0.0825 -0.10113,-0.1812 -0.18554,-0.29883 -0.0645,-0.0903 -0.1169,-0.15263 -0.16602,-0.18945 h -0.002 c -0.0586,-0.0407 -0.15105,-0.0695 -0.25781,-0.0977 z"
         id="path244" /></g><g
       id="text14-4"><path
         style="color:#000000;-inkscape-font-specification:'Times New Roman, ';fill:#000000;-inkscape-stroke:none"
         d="m 779.33443,271.22067 v 1.14067 h 0.81097 v 0.26527 h -0.81097 v 2.25102 q 0,0.33728 0.0947,0.45475 0.0985,0.11748 0.25011,0.11748 0.12506,0 0.24254,-0.0758 0.11748,-0.0796 0.1819,-0.23117 h 0.14779 q -0.13263,0.37138 -0.37517,0.56086 -0.24253,0.1857 -0.50022,0.1857 -0.17433,0 -0.34107,-0.0947 -0.16674,-0.0985 -0.24632,-0.27665 -0.0796,-0.1819 -0.0796,-0.55707 v -2.33439 h -0.5495 v -0.12506 q 0.20843,-0.0834 0.42444,-0.28043 0.2198,-0.20085 0.39033,-0.4737 0.0872,-0.144 0.24253,-0.52675 z"
         id="path245" /><path
         style="color:#000000;-inkscape-font-specification:'Times New Roman, ';fill:#000000;-inkscape-stroke:none"
         d="m 779.18359,271.16992 -0.0137,0.0312 c -0.10315,0.25417 -0.1835,0.42907 -0.23828,0.51953 -0.11149,0.17839 -0.2379,0.33226 -0.38086,0.46289 -0.14068,0.12833 -0.27828,0.21872 -0.41016,0.27149 l -0.0312,0.0117 v 0.20898 h 0.54883 v 2.28516 c 0,0.25365 0.0259,0.44529 0.084,0.57812 0.057,0.12751 0.14805,0.22822 0.26758,0.29883 0.11766,0.0668 0.24191,0.10156 0.36718,0.10156 0.18381,0 0.36083,-0.0663 0.5293,-0.19531 v -0.002 c 0.1707,-0.13336 0.30182,-0.32789 0.39258,-0.58203 l 0.0234,-0.0664 h -0.25196 l -0.0117,0.0293 c -0.0399,0.0939 -0.0944,0.1618 -0.16406,0.20898 -0.0715,0.0462 -0.14157,0.0684 -0.21484,0.0684 -0.0875,0 -0.15369,-0.0321 -0.21094,-0.0996 -0.0485,-0.0601 -0.084,-0.20365 -0.084,-0.42383 v -2.20117 h 0.81054 v -0.36523 h -0.81054 v -1.14063 z m 0.0664,0.10156 h 0.0352 v 1.14063 h 0.81054 v 0.16406 h -0.81054 v 2.30078 c 0,0.22954 0.0277,0.38981 0.10546,0.48633 v 0.002 c 0.0738,0.088 0.17508,0.13477 0.28907,0.13477 0.0935,0 0.18442,-0.0291 0.26953,-0.084 0.0762,-0.0516 0.13097,-0.13283 0.17578,-0.22266 h 0.0352 c -0.0828,0.19748 -0.18071,0.36622 -0.31446,0.4707 -0.1549,0.11861 -0.30896,0.17578 -0.46875,0.17578 -0.10716,0 -0.21175,-0.0284 -0.3164,-0.0879 -0.1028,-0.0607 -0.17742,-0.14388 -0.22657,-0.2539 -0.048,-0.1097 -0.0742,-0.29054 -0.0742,-0.53711 v -2.38477 h -0.55079 v -0.0488 c 0.13556,-0.0594 0.27148,-0.14481 0.40821,-0.26953 0.1501,-0.13716 0.28451,-0.29896 0.40039,-0.48437 0.0579,-0.0956 0.13704,-0.26941 0.23242,-0.50196 z"
         id="path246" /></g><g
       id="path15-5"><path
         style="color:#000000;fill:#000000;stroke-dasharray:3, 1;-inkscape-stroke:none"
         d="m 714.51651,235.41227 v 31.65256"
         id="path247" /><path
         style="color:#000000;fill:#000000;stroke-dasharray:3, 1;-inkscape-stroke:none"
         d="m 714.01562,235.41211 v 3 h 1 v -3 z m 0,4 v 3 h 1 v -3 z m 0,4 v 3 h 1 v -3 z m 0,4 v 3 h 1 v -3 z m 0,4 v 3 h 1 v -3 z m 0,4 v 3 h 1 v -3 z m 0,4 v 3 h 1 v -3 z m 0,4 v 3 h 1 v -3 z"
         id="path248" /></g><g
       id="path15-6-0"><path
         style="color:#000000;fill:#000000;stroke-dasharray:3, 1;-inkscape-stroke:none"
         d="m 736.36791,226.64568 v 40.41915"
         id="path249" /><path
         style="color:#000000;fill:#000000;stroke-dasharray:3, 1;-inkscape-stroke:none"
         d="m 735.86719,226.64648 v 3 h 1 v -3 z m 0,4 v 3 h 1 v -3 z m 0,4 v 3 h 1 v -3 z m 0,4 v 3 h 1 v -3 z m 0,4 v 3 h 1 v -3 z m 0,4 v 3 h 1 v -3 z m 0,4 v 3 h 1 v -3 z m 0,4 v 3 h 1 v -3 z m 0,4 v 3 h 1 v -3 z m 0,4 v 3 h 1 v -3 z m 0,4 v 0.41797 h 1 v -0.41797 z"
         id="path250" /></g><g
       id="path16-5"><path
         style="color:#000000;fill:#000000;-inkscape-stroke:none"
         d="m 715.65295,233.99321 a 1.1364093,1.1364093 0 0 1 -1.13641,1.13641 1.1364093,1.1364093 0 0 1 -1.13641,-1.13641 1.1364093,1.1364093 0 0 1 1.13641,-1.13641 1.1364093,1.1364093 0 0 1 1.13641,1.13641 z"
         id="path251" /><path
         style="color:#000000;fill:#000000;-inkscape-stroke:none"
         d="m 714.51562,232.35742 c -0.89784,0 -1.63476,0.73888 -1.63476,1.63672 0,0.89784 0.73692,1.63477 1.63476,1.63477 0.89785,0 1.63672,-0.73693 1.63672,-1.63477 0,-0.89784 -0.73887,-1.63672 -1.63672,-1.63672 z m 0,1 c 0.35741,0 0.63672,0.27932 0.63672,0.63672 0,0.3574 -0.27931,0.63477 -0.63672,0.63477 -0.3574,0 -0.63476,-0.27737 -0.63476,-0.63477 0,-0.3574 0.27736,-0.63672 0.63476,-0.63672 z"
         id="path252" /></g><g
       id="path16-7-2"><path
         style="color:#000000;fill:#000000;-inkscape-stroke:none"
         d="m 737.50439,225.24879 a 1.1364093,1.1364093 0 0 1 -1.13641,1.13641 1.1364093,1.1364093 0 0 1 -1.13641,-1.13641 1.1364093,1.1364093 0 0 1 1.13641,-1.1364 1.1364093,1.1364093 0 0 1 1.13641,1.1364 z"
         id="path253" /><path
         style="color:#000000;fill:#000000;-inkscape-stroke:none"
         d="m 736.36719,223.61328 c -0.89784,0 -1.63477,0.73693 -1.63477,1.63477 0,0.89784 0.73693,1.63672 1.63477,1.63672 0.89784,0 1.63672,-0.73888 1.63672,-1.63672 0,-0.89784 -0.73888,-1.63477 -1.63672,-1.63477 z m 0,1 c 0.3574,0 0.63672,0.27737 0.63672,0.63477 0,0.3574 -0.27932,0.63672 -0.63672,0.63672 -0.3574,0 -0.63477,-0.27932 -0.63477,-0.63672 0,-0.3574 0.27737,-0.63477 0.63477,-0.63477 z"
         id="path254" /></g><g
       id="text14-1-1"
       style="font-size:7.7611px;font-family:'Times New Roman';-inkscape-font-specification:'Times New Roman, ';stroke:#000000;stroke-width:0.1"
       aria-label="t0&#10;"><g
         id="path255"><path
           style="color:#000000;-inkscape-font-specification:'Times New Roman, ';fill:#000000;stroke:none;-inkscape-stroke:none"
           d="m 713.57106,269.69577 v 1.14067 h 0.81098 v 0.26527 h -0.81098 v 2.25102 q 0,0.33727 0.0947,0.45475 0.0985,0.11748 0.25012,0.11748 0.12505,0 0.24253,-0.0758 0.11748,-0.0796 0.1819,-0.23117 h 0.1478 q -0.13264,0.37138 -0.37517,0.56086 -0.24254,0.18569 -0.50023,0.18569 -0.17432,0 -0.34106,-0.0947 -0.16675,-0.0985 -0.24633,-0.27664 -0.0796,-0.1819 -0.0796,-0.55707 v -2.33439 h -0.54949 v -0.12506 q 0.20843,-0.0834 0.42443,-0.28043 0.2198,-0.20085 0.39033,-0.4737 0.0872,-0.144 0.24254,-0.52675 z"
           id="path257" /><path
           style="color:#000000;-inkscape-font-specification:'Times New Roman, ';fill:#000000;stroke:none;-inkscape-stroke:none"
           d="m 713.41992,269.64648 -0.0137,0.0312 c -0.10316,0.25417 -0.1835,0.42907 -0.23828,0.51954 -0.11129,0.17781 -0.23826,0.33258 -0.38086,0.46289 -0.14068,0.12832 -0.27828,0.21676 -0.41016,0.26953 l -0.0312,0.0137 v 0.20898 h 0.55078 v 2.28321 c 0,0.25365 0.0259,0.44529 0.084,0.57812 0.057,0.1275 0.14609,0.22822 0.26562,0.29883 0.11767,0.0668 0.24192,0.10156 0.36719,0.10156 0.1838,0 0.36082,-0.0663 0.5293,-0.19531 h 0.002 c 0.17069,-0.13335 0.29986,-0.32984 0.39063,-0.58398 l 0.0234,-0.0664 h -0.25195 l -0.0117,0.0293 c -0.0397,0.0933 -0.095,0.16183 -0.16406,0.20898 -0.0715,0.0462 -0.14158,0.0684 -0.21484,0.0684 -0.0875,0 -0.1537,-0.0321 -0.21094,-0.0996 -0.0485,-0.0601 -0.084,-0.20171 -0.084,-0.42187 v -2.20118 h 0.81055 v -0.36523 h -0.81055 v -1.14063 z m 0.0664,0.0996 h 0.0352 v 1.14063 h 0.81055 v 0.16406 h -0.81055 v 2.30274 c 0,0.22952 0.0277,0.38785 0.10547,0.48437 v 0.002 c 0.0738,0.088 0.17507,0.13477 0.28907,0.13477 0.0935,0 0.18442,-0.0291 0.26953,-0.084 0.0762,-0.0516 0.13097,-0.13282 0.17578,-0.22265 h 0.0352 c -0.0828,0.19748 -0.18071,0.36621 -0.31445,0.4707 -0.15491,0.1186 -0.30897,0.17578 -0.46875,0.17578 -0.10716,0 -0.21175,-0.0285 -0.31641,-0.0879 -0.1028,-0.0607 -0.17741,-0.14388 -0.22656,-0.2539 -0.048,-0.1097 -0.0742,-0.29054 -0.0742,-0.53711 v -2.38477 h -0.55078 v -0.0488 c 0.13556,-0.0594 0.27148,-0.14481 0.40821,-0.26953 0.1501,-0.13716 0.28451,-0.29701 0.40039,-0.48242 v -0.002 c 0.0579,-0.0956 0.13703,-0.26941 0.23242,-0.50196 z"
           id="path258" /></g><g
         id="path256"><path
           style="color:#000000;-inkscape-font-specification:'Times New Roman, ';fill:#000000;stroke:none;-inkscape-stroke:none"
           d="m 714.65906,274.20956 q 0,-0.57147 0.17242,-0.98283 0.17243,-0.41383 0.45817,-0.61581 0.22169,-0.16012 0.45816,-0.16012 0.38426,0 0.68971,0.39166 0.3818,0.48526 0.3818,1.31537 0,0.58132 -0.1675,0.98776 -0.1675,0.40643 -0.42861,0.59118 -0.25864,0.18228 -0.50003,0.18228 -0.47787,0 -0.79563,-0.56409 -0.26849,-0.4754 -0.26849,-1.1454 z m 0.48279,0.0616 q 0,0.68971 0.16997,1.1257 0.1404,0.36702 0.41875,0.36702 0.13301,0 0.27588,-0.11823 0.14287,-0.1207 0.21676,-0.40151 0.11331,-0.42368 0.11331,-1.19467 0,-0.57147 -0.11823,-0.95328 -0.0887,-0.28327 -0.22908,-0.4015 -0.101,-0.0813 -0.24386,-0.0813 -0.1675,0 -0.29806,0.15026 -0.17735,0.20445 -0.24139,0.6429 -0.0641,0.43846 -0.0641,0.8646 z"
           id="path259" /><path
           style="color:#000000;-inkscape-font-specification:'Times New Roman, ';fill:#000000;stroke:none;-inkscape-stroke:none"
           d="m 715.74805,272.40039 c -0.16833,0 -0.33218,0.059 -0.48633,0.16992 -0.19977,0.14121 -0.35895,0.35445 -0.47656,0.63672 -0.11814,0.28185 -0.17578,0.61595 -0.17579,1.00195 0,0.45335 0.0915,0.84424 0.2754,1.16993 0.2171,0.38539 0.49963,0.58984 0.83789,0.58984 0.17351,0 0.35088,-0.0657 0.52929,-0.19141 0.18407,-0.13024 0.33118,-0.33633 0.44532,-0.61328 0.11486,-0.27872 0.17187,-0.61351 0.17187,-1.00586 0,-0.56107 -0.12948,-1.0113 -0.39258,-1.3457 -0.20988,-0.26912 -0.45535,-0.41211 -0.72851,-0.41211 z m 0,0.0996 c 0.0999,0 0.17978,0.11355 0.27148,0.15625 -0.076,-0.0606 -0.16938,-0.0937 -0.27344,-0.0937 -0.12661,0 -0.24195,0.0598 -0.33593,0.16797 -0.12788,0.14741 -0.21042,0.37024 -0.25391,0.66797 -0.0431,0.2946 -0.0644,0.58644 -0.0644,0.87304 v 0.041 l 0.006,0.002 c 0.004,0.44052 0.0558,0.81186 0.16796,1.09961 0.0387,0.10121 0.0917,0.1701 0.14844,0.23438 -0.15224,-0.0854 -0.32149,-0.10202 -0.44336,-0.31836 -0.17404,-0.30818 -0.26172,-0.68111 -0.26172,-1.1211 0,-0.37595 0.0562,-0.69626 0.16797,-0.96289 0.1123,-0.2695 0.26019,-0.46565 0.44141,-0.59375 0.14095,-0.1018 0.28333,-0.15234 0.42969,-0.15234 z m 0.27343,0.15625 c 0.12725,0.0596 0.26248,0.07 0.37696,0.2168 0.24596,0.31261 0.37109,0.73941 0.37109,1.28515 0,0.38275 -0.0556,0.70556 -0.16406,0.96875 -0.1092,0.26496 -0.24803,0.45227 -0.41211,0.56836 -0.16576,0.11643 -0.3229,0.17383 -0.4707,0.17383 -0.0683,0 -0.1089,-0.10483 -0.17188,-0.12305 0.0576,0.0292 0.11245,0.0684 0.17969,0.0684 0.10349,0 0.20747,-0.0472 0.30859,-0.13086 0.1066,-0.0901 0.18159,-0.23261 0.23242,-0.42578 0.0775,-0.28976 0.11524,-0.69254 0.11524,-1.20898 0,-0.38443 -0.0402,-0.70553 -0.1211,-0.9668 -0.0608,-0.19413 -0.13947,-0.33763 -0.24414,-0.42578 z m -0.27539,0.008 c 0.0858,0 0.15258,0.0233 0.21094,0.0703 0.0821,0.0697 0.15564,0.19412 0.21289,0.37696 0.0767,0.2478 0.11719,0.55997 0.11719,0.9375 0,0.51154 -0.0377,0.9065 -0.11133,1.18164 -0.0477,0.18124 -0.11728,0.30608 -0.20117,0.37695 -0.0894,0.074 -0.17028,0.10742 -0.24414,0.10742 -0.0818,0 -0.14941,-0.0261 -0.21094,-0.0801 -0.0615,-0.0539 -0.11532,-0.13867 -0.16016,-0.25586 -0.11007,-0.28235 -0.16796,-0.65173 -0.16796,-1.10743 0,-0.28158 0.0221,-0.56741 0.0644,-0.85742 0.0419,-0.28687 0.11992,-0.492 0.22851,-0.61719 0.0801,-0.0922 0.16501,-0.13281 0.26172,-0.13281 z"
           id="path260" /></g></g><g
       id="path15-5-3"><path
         style="color:#000000;fill:#a4a4a4;stroke-dasharray:2.60362, 0.867873;-inkscape-stroke:none"
         d="m 671.07874,243.22403 v 23.8408"
         id="path261" /><path
         style="color:#000000;fill:#a4a4a4;stroke-dasharray:2.60362, 0.867873;-inkscape-stroke:none"
         d="m 670.64453,243.22461 v 2.60351 h 0.86719 v -2.60351 z m 0,3.4707 v 2.60352 h 0.86719 v -2.60352 z m 0,3.47266 v 2.60351 h 0.86719 v -2.60351 z m 0,3.4707 v 2.60352 h 0.86719 v -2.60352 z m 0,3.4707 v 2.60352 h 0.86719 v -2.60352 z m 0,3.47266 v 2.60352 h 0.86719 v -2.60352 z m 0,3.4707 v 2.60352 h 0.86719 v -2.60352 z"
         id="path262" /></g><g
       id="path16-5-8"><path
         style="color:#000000;fill:#a4a4a4;-inkscape-stroke:none"
         d="m 672.21051,243.70512 a 1.1364093,1.1364093 0 0 1 -1.13641,1.13641 1.1364093,1.1364093 0 0 1 -1.13641,-1.13641 1.1364093,1.1364093 0 0 1 1.13641,-1.13641 1.1364093,1.1364093 0 0 1 1.13641,1.13641 z"
         id="path263" /><path
         style="color:#000000;fill:#a4a4a4;-inkscape-stroke:none"
         d="m 671.07422,242.06836 c -0.89784,0 -1.63672,0.73888 -1.63672,1.63672 0,0.89784 0.73888,1.63672 1.63672,1.63672 0.89784,0 1.63672,-0.73888 1.63672,-1.63672 0,-0.89784 -0.73888,-1.63672 -1.63672,-1.63672 z m 0,1 c 0.3574,0 0.63672,0.27932 0.63672,0.63672 0,0.3574 -0.27932,0.63672 -0.63672,0.63672 -0.3574,0 -0.63672,-0.27932 -0.63672,-0.63672 0,-0.3574 0.27932,-0.63672 0.63672,-0.63672 z"
         id="path264" /></g><g
       id="text14-1-1-6"
       style="font-size:7.7611px;font-family:'Times New Roman';-inkscape-font-specification:'Times New Roman, ';stroke:#000000;stroke-width:0.1"
       aria-label="t-1&#10;"><g
         id="path265"><path
           style="color:#000000;-inkscape-font-specification:'Times New Roman, ';fill:#000000;stroke:none;-inkscape-stroke:none"
           d="m 670.13326,269.69577 v 1.14067 h 0.81097 v 0.26527 h -0.81097 v 2.25102 q 0,0.33727 0.0947,0.45475 0.0985,0.11748 0.25011,0.11748 0.12506,0 0.24254,-0.0758 0.11747,-0.0796 0.1819,-0.23117 h 0.14779 q -0.13263,0.37138 -0.37517,0.56086 -0.24253,0.18569 -0.50023,0.18569 -0.17432,0 -0.34106,-0.0947 -0.16674,-0.0985 -0.24632,-0.27664 -0.0796,-0.1819 -0.0796,-0.55707 v -2.33439 h -0.54949 v -0.12506 q 0.20843,-0.0834 0.42444,-0.28043 0.21979,-0.20085 0.39033,-0.4737 0.0872,-0.144 0.24253,-0.52675 z"
           id="path267" /><path
           style="color:#000000;-inkscape-font-specification:'Times New Roman, ';fill:#000000;stroke:none;-inkscape-stroke:none"
           d="m 669.98242,269.64648 -0.0137,0.0312 c -0.10315,0.25417 -0.1835,0.42907 -0.23828,0.51954 -0.1113,0.17782 -0.23826,0.33258 -0.38086,0.46289 -0.14069,0.12832 -0.27828,0.21676 -0.41016,0.26953 l -0.0312,0.0137 v 0.20898 h 0.54883 v 2.28321 c 0,0.25365 0.0259,0.44529 0.084,0.57812 0.057,0.1275 0.14805,0.22822 0.26757,0.29883 0.11767,0.0668 0.24192,0.10156 0.36719,0.10156 0.18381,0 0.36082,-0.0663 0.5293,-0.19531 0.1707,-0.13335 0.30182,-0.32984 0.39258,-0.58398 l 0.0234,-0.0664 h -0.25195 l -0.0117,0.0293 c -0.0397,0.0933 -0.095,0.16183 -0.16406,0.20898 -0.0715,0.0462 -0.14157,0.0684 -0.21484,0.0684 -0.0875,0 -0.15369,-0.0321 -0.21094,-0.0996 -0.0485,-0.0601 -0.084,-0.20171 -0.084,-0.42187 v -2.20118 h 0.81055 v -0.36523 h -0.81055 v -1.14063 z m 0.0664,0.0996 h 0.0352 v 1.14063 h 0.81055 v 0.16406 h -0.81055 v 2.30274 c 0,0.22952 0.0277,0.38785 0.10547,0.48437 v 0.002 c 0.0738,0.088 0.17508,0.13477 0.28907,0.13477 0.0935,0 0.18442,-0.0291 0.26953,-0.084 0.0762,-0.0516 0.13096,-0.13282 0.17578,-0.22265 h 0.0352 c -0.0828,0.19748 -0.1807,0.36621 -0.31445,0.4707 -0.1549,0.1186 -0.30896,0.17578 -0.46875,0.17578 -0.10716,0 -0.21175,-0.0285 -0.31641,-0.0879 -0.10279,-0.0607 -0.17741,-0.14388 -0.22656,-0.2539 -0.048,-0.1097 -0.0742,-0.29054 -0.0742,-0.53711 v -2.38477 h -0.55078 v -0.0488 c 0.13556,-0.0594 0.27148,-0.14481 0.40821,-0.26953 0.15009,-0.13716 0.2845,-0.29701 0.40039,-0.48242 v -0.002 c 0.0579,-0.0956 0.13703,-0.26941 0.23242,-0.50196 z"
           id="path268" /></g><g
         id="path266"><path
           style="color:#000000;-inkscape-font-specification:'Times New Roman, ';fill:#000000;stroke:none;-inkscape-stroke:none"
           d="m 671.24342,274.5421 h 1.2735 v 0.37194 h -1.2735 z m 2.06666,-1.69471 0.81287,-0.39659 h 0.0813 v 2.82041 q 0,0.28081 0.0222,0.34978 0.0246,0.069 0.0985,0.10592 0.0739,0.037 0.30052,0.0419 v 0.0911 h -1.25625 v -0.0911 q 0.23647,-0.005 0.30544,-0.0394 0.069,-0.0369 0.0961,-0.0961 0.0271,-0.0616 0.0271,-0.3621 v -1.80309 q 0,-0.36456 -0.0246,-0.46801 -0.0172,-0.0788 -0.0641,-0.11577 -0.0443,-0.0369 -0.10838,-0.0369 -0.0911,0 -0.25371,0.0764 z"
           id="path269" /><path
           style="color:#000000;-inkscape-font-specification:'Times New Roman, ';fill:#000000;stroke:none;-inkscape-stroke:none"
           d="m 674.11133,272.40039 -0.86719,0.42383 0.0215,0.0449 0.0586,0.12109 0.0449,-0.0215 c 0.10515,-0.0494 0.18567,-0.0723 0.23242,-0.0723 0.0331,0 0.0558,0.008 0.0762,0.0254 v 0.002 c 0.02,0.0158 0.0371,0.043 0.0469,0.0879 0.0133,0.0561 0.0234,0.21511 0.0234,0.45703 v 1.80273 c 0,0.0994 -0.002,0.17804 -0.006,0.23633 -0.004,0.0583 -0.0146,0.0987 -0.0176,0.10547 -0.013,0.0284 -0.0356,0.0516 -0.0742,0.0723 -0.0273,0.0131 -0.12893,0.0299 -0.2832,0.0332 l -0.0488,0.002 v 0.18946 h 1.35742 v -0.18946 l -0.0488,-0.002 c -0.14847,-0.003 -0.24753,-0.0212 -0.27929,-0.0371 -0.0396,-0.0198 -0.0621,-0.0431 -0.0742,-0.0762 v -0.002 c -0.009,-0.0281 -0.0195,-0.14723 -0.0195,-0.33204 v -2.87109 z m 0.0234,0.0996 h 0.0195 v 2.77148 c 0,0.18853 0.005,0.30042 0.0254,0.36524 v 0.002 c 0.0208,0.0583 0.0646,0.10363 0.12304,0.13281 0.0554,0.0278 0.15428,0.0339 0.26758,0.0391 h -1.14258 c 0.1159,-0.005 0.21538,-0.0101 0.26954,-0.0371 0.0534,-0.0286 0.096,-0.0686 0.11914,-0.11914 0.0151,-0.0342 0.0207,-0.0763 0.0254,-0.13868 0.005,-0.0624 0.006,-0.14322 0.006,-0.24414 v -1.80273 c 0,-0.24317 -0.006,-0.39644 -0.0254,-0.47852 v -0.002 c -0.0133,-0.0594 -0.04,-0.10942 -0.082,-0.14258 -0.0386,-0.0322 -0.0864,-0.0488 -0.13867,-0.0488 -0.0514,0 -0.1219,0.0311 -0.18945,0.0566 z m -2.48829,1.99219 -0.0957,0.0996 h 0.91602 v 0.27148 h -1.17383 -0.002 -0.0469 l 0.0234,0.0234 -0.0742,0.0781 h 1.37305 v -0.47265 z m -0.35351,0.0508 -0.0488,0.0488 h 0.0488 z"
           id="path270" /></g></g><g
       id="text14-3-0"
       style="font-size:7.7611px;font-family:'Times New Roman';-inkscape-font-specification:'Times New Roman, ';stroke:#000000;stroke-width:0.1"
       aria-label="t1&#10;"><g
         id="path271"><path
           style="color:#000000;-inkscape-font-specification:'Times New Roman, ';fill:#000000;stroke:none;-inkscape-stroke:none"
           d="m 736.01442,269.72531 v 1.14067 h 0.81098 v 0.26527 h -0.81098 v 2.25102 q 0,0.33728 0.0947,0.45475 0.0985,0.11748 0.25012,0.11748 0.12505,0 0.24253,-0.0758 0.11748,-0.0796 0.1819,-0.23117 h 0.1478 q -0.13264,0.37138 -0.37517,0.56086 -0.24254,0.18569 -0.50023,0.18569 -0.17432,0 -0.34107,-0.0947 -0.16674,-0.0985 -0.24632,-0.27664 -0.0796,-0.1819 -0.0796,-0.55707 v -2.33439 h -0.54949 v -0.12506 q 0.20842,-0.0834 0.42443,-0.28043 0.2198,-0.20085 0.39033,-0.4737 0.0872,-0.144 0.24254,-0.52675 z"
           id="path273" /><path
           style="color:#000000;-inkscape-font-specification:'Times New Roman, ';fill:#000000;stroke:none;-inkscape-stroke:none"
           d="m 735.86328,269.67578 -0.0137,0.0312 c -0.10316,0.25417 -0.1835,0.42907 -0.23828,0.51953 -0.11149,0.17839 -0.2379,0.33226 -0.38086,0.46289 -0.14069,0.12833 -0.27829,0.21677 -0.41016,0.26953 l -0.0312,0.0137 v 0.20898 h 0.55078 v 2.2832 c 0,0.25365 0.0259,0.4453 0.084,0.57813 0.057,0.1275 0.1461,0.22822 0.26562,0.29883 v 0.002 c 0.11768,0.0668 0.24192,0.0996 0.36719,0.0996 0.1838,0 0.36082,-0.0663 0.5293,-0.19531 h 0.002 c 0.17069,-0.13336 0.29986,-0.32985 0.39063,-0.58399 l 0.0234,-0.0664 h -0.252 l -0.0117,0.0312 c -0.0397,0.0933 -0.095,0.15988 -0.16406,0.20703 -0.0715,0.0462 -0.14158,0.0684 -0.21485,0.0684 -0.0875,0 -0.15369,-0.032 -0.21093,-0.0996 -0.0485,-0.0601 -0.084,-0.2017 -0.084,-0.42188 v -2.20117 h 0.81055 v -0.36523 h -0.81055 v -1.14063 z m 0.0664,0.0996 h 0.0351 v 1.14063 h 0.81055 v 0.16601 h -0.81055 v 2.30078 c 0,0.22954 0.0277,0.38981 0.10547,0.48633 0.0738,0.088 0.17507,0.13477 0.28906,0.13477 0.0935,0 0.18443,-0.0291 0.26954,-0.084 0.0769,-0.0521 0.1328,-0.13169 0.17773,-0.22265 h 0.0332 c -0.0825,0.19702 -0.18119,0.36622 -0.31445,0.4707 -0.15491,0.1186 -0.30897,0.17578 -0.46875,0.17578 -0.10716,0 -0.21174,-0.0285 -0.31641,-0.0879 -0.10279,-0.0607 -0.17741,-0.14389 -0.22656,-0.25391 -0.048,-0.1097 -0.0742,-0.29053 -0.0742,-0.53711 V 271.082 h -0.55078 v -0.0508 c 0.13553,-0.0594 0.2715,-0.14288 0.4082,-0.26758 0.15011,-0.13716 0.28451,-0.29896 0.4004,-0.48437 v -0.002 c 0.0579,-0.0956 0.13703,-0.2694 0.23242,-0.50195 z"
           id="path274" /></g><g
         id="path272"><path
           style="color:#000000;-inkscape-font-specification:'Times New Roman, ';fill:#000000;stroke:none;-inkscape-stroke:none"
           d="m 737.51131,272.87693 0.81287,-0.39658 h 0.0813 v 2.82041 q 0,0.2808 0.0222,0.34978 0.0246,0.069 0.0985,0.10591 0.0739,0.037 0.30051,0.0419 v 0.0911 h -1.25625 v -0.0911 q 0.23647,-0.005 0.30544,-0.0394 0.069,-0.0369 0.0961,-0.0961 0.0271,-0.0616 0.0271,-0.36209 v -1.8031 q 0,-0.36456 -0.0246,-0.46801 -0.0172,-0.0788 -0.064,-0.11577 -0.0443,-0.0369 -0.10838,-0.0369 -0.0911,0 -0.25372,0.0764 z"
           id="path275" /><path
           style="color:#000000;-inkscape-font-specification:'Times New Roman, ';fill:#000000;stroke:none;-inkscape-stroke:none"
           d="m 738.3125,272.42969 -0.86719,0.42383 0.0801,0.16601 0.0449,-0.0215 c 0.10516,-0.0494 0.18567,-0.0703 0.23242,-0.0703 0.0331,0 0.0557,0.008 0.0762,0.0254 0.02,0.0158 0.0371,0.043 0.0469,0.0879 0.0133,0.0561 0.0234,0.21511 0.0234,0.45703 v 1.80273 c 0,0.0994 -10e-4,0.17803 -0.006,0.23633 -0.004,0.0583 -0.0146,0.0987 -0.0176,0.10547 -0.013,0.0284 -0.0356,0.0516 -0.0742,0.0723 -0.0273,0.0131 -0.12698,0.0299 -0.28125,0.0332 l -0.0508,0.002 v 0.18945 h 1.35742 V 275.75 l -0.0488,-0.002 c -0.14847,-0.003 -0.24753,-0.0212 -0.27929,-0.0371 -0.0396,-0.0198 -0.0621,-0.0431 -0.0742,-0.0762 v -0.002 c -0.009,-0.0281 -0.0195,-0.14723 -0.0195,-0.33203 v -2.87109 z m 0.0234,0.10156 h 0.0195 v 2.76953 c 0,0.18852 0.005,0.30041 0.0254,0.36524 v 0.002 c 0.0208,0.0583 0.0646,0.10363 0.12305,0.13281 0.0558,0.028 0.15493,0.034 0.26953,0.0391 h -1.14453 c 0.11589,-0.005 0.21537,-0.0101 0.26953,-0.0371 h 0.002 c 0.0534,-0.0286 0.0941,-0.0686 0.11719,-0.11914 0.0151,-0.0342 0.0207,-0.0763 0.0254,-0.13867 0.005,-0.0624 0.006,-0.14322 0.006,-0.24414 v -1.80273 c 0,-0.24318 -0.006,-0.39644 -0.0254,-0.47852 v -0.002 c -0.0133,-0.0594 -0.0401,-0.10941 -0.082,-0.14258 -0.0384,-0.0314 -0.087,-0.0488 -0.13868,-0.0488 -0.0509,0 -0.12076,0.0315 -0.1875,0.0566 z"
           id="path276" /></g></g><g
       id="path28"><path
         style="color:#000000;fill:#000000;-inkscape-stroke:none"
         d="m 585.02148,206.10156 c -0.75455,-0.0113 -1.51657,0.0681 -2.27539,0.26367 -1.55497,0.40081 -2.8381,1.53128 -3.89257,2.9668 -1.05448,1.43553 -1.88789,3.18529 -2.53711,4.88281 -1.29845,3.39505 -1.85743,6.59375 -1.85743,6.59375 l 0.58985,0.10352 c 0,0 0.55408,-3.15119 1.82812,-6.48242 0.63703,-1.66562 1.45322,-3.37297 2.45899,-4.74219 1.00577,-1.36922 2.19207,-2.38995 3.55859,-2.74219 2.80762,-0.72369 5.77648,0.28776 8.04883,1.50586 2.27235,1.2181 3.82422,2.61914 3.82422,2.61914 l 0.40234,-0.44531 c 0,0 -1.60218,-1.44813 -3.94336,-2.70313 -1.75588,-0.94124 -3.94141,-1.78631 -6.20508,-1.82031 z"
         id="path278" /><g
         id="g277"><path
           style="color:#000000;fill:#000000;fill-rule:evenodd;-inkscape-stroke:none"
           d="m 595.41403,211.25043 -2.54235,0.12841 -0.89025,-0.80464 2.54234,-0.12841 -0.12841,-2.54235 0.89025,0.80465 z"
           id="path277" /></g></g><g
       id="path28-3"><path
         style="color:#000000;fill:#000000;-inkscape-stroke:none"
         d="m 572.91602,211.55664 c -3.35985,-0.0471 -6.76546,0.18811 -9.87696,0.90234 -6.26694,1.43857 -8.91429,5.78467 -9.94336,9.72071 -1.02906,3.93603 -0.49023,7.5039 -0.49023,7.5039 l 0.59375,-0.0898 c 0,0 -0.51707,-3.46119 0.47656,-7.26172 0.99364,-3.80053 3.44785,-7.89874 9.49609,-9.28711 12.1846,-2.79693 29.32227,1.92383 29.32227,1.92383 l 0.16016,-0.57813 c 0,0 -9.65876,-2.69269 -19.73828,-2.83398 z"
         id="path280" /><g
         id="g279"><path
           style="color:#000000;fill:#000000;fill-rule:evenodd;-inkscape-stroke:none"
           d="m 593.1517,214.83987 -2.2154,1.25379 -1.1564,-0.32053 2.2154,-1.2538 -1.2538,-2.2154 1.1564,0.32054 z"
           id="path279" /></g></g><g
       id="path29"><path
         style="color:#000000;fill:#a4a4a4;-inkscape-stroke:none"
         d="m 666.18202,237.82191 9.78418,10.80425"
         id="path281" /><path
         style="color:#000000;fill:#ff4949;-inkscape-stroke:none"
         d="m 666.4043,237.62109 -0.44532,0.40235 9.78516,10.80468 0.44531,-0.40429 z"
         id="path282" /></g><g
       id="path30"><path
         style="color:#000000;fill:#a4a4a4;-inkscape-stroke:none"
         d="m 676.18856,237.62053 -10.22892,11.207"
         id="path283" /><path
         style="color:#000000;fill:#ff4949;-inkscape-stroke:none"
         d="m 675.9668,237.41797 -10.22852,11.20703 0.44336,0.4043 10.22852,-11.20703 z"
         id="path284" /></g></g></svg>
