<?xml version="1.0" encoding="UTF-8" standalone="no"?>
<!-- Created with Inkscape (http://www.inkscape.org/) -->

<svg
   width="87.515007mm"
   height="34.159851mm"
   viewBox="0 0 87.515007 34.159851"
   version="1.1"
   id="svg5"
   inkscape:version="1.3.2 (091e20e, 2023-11-25)"
   sodipodi:docname="book_artwork.svg"
   xml:space="preserve"
   xmlns:inkscape="http://www.inkscape.org/namespaces/inkscape"
   xmlns:sodipodi="http://sodipodi.sourceforge.net/DTD/sodipodi-0.dtd"
   xmlns="http://www.w3.org/2000/svg"
   xmlns:svg="http://www.w3.org/2000/svg"><sodipodi:namedview
     id="namedview7"
     pagecolor="#ffffff"
     bordercolor="#000000"
     borderopacity="0.25"
     inkscape:showpageshadow="2"
     inkscape:pageopacity="1"
     inkscape:pagecheckerboard="0"
     inkscape:deskcolor="#d1d1d1"
     inkscape:document-units="mm"
     showgrid="false"
     inkscape:zoom="0.4290611"
     inkscape:cx="2898.1886"
     inkscape:cy="644.43036"
     inkscape:window-width="1432"
     inkscape:window-height="916"
     inkscape:window-x="63"
     inkscape:window-y="38"
     inkscape:window-maximized="0"
     inkscape:current-layer="layer1"><inkscape:page
       x="1.406823e-06"
       y="-2.2806435e-06"
       width="87.515007"
       height="34.159851"
       id="page3"
       margin="0"
       bleed="0" /></sodipodi:namedview><defs
     id="defs2" /><g
     inkscape:label="Layer 1"
     inkscape:groupmode="layer"
     id="layer1"
     transform="translate(-320.1914,-216.85969)"><g
       id="ellipse1833"><path
         style="color:#000000;fill:#000000;stroke-miterlimit:1.9;-inkscape-stroke:none"
         d="m 383.24826,234.68294 a 1.1787455,1.0161599 0 0 1 -1.17874,1.01616 1.1787455,1.0161599 0 0 1 -1.17875,-1.01616 1.1787455,1.0161599 0 0 1 1.17875,-1.01616 1.1787455,1.0161599 0 0 1 1.17874,1.01616 z"
         id="path641" /><path
         style="color:#000000;fill:#000000;stroke-miterlimit:1.9;-inkscape-stroke:none"
         d="m 382.07031,233.43359 c -0.75932,0 -1.41211,0.54304 -1.41211,1.25 0,0.70697 0.65279,1.24805 1.41211,1.24805 0.75933,0 1.41016,-0.54108 1.41016,-1.24805 0,-0.70696 -0.65083,-1.25 -1.41016,-1.25 z m 0,0.46485 c 0.54268,0 0.94531,0.3697 0.94531,0.78515 0,0.41546 -0.40263,0.78321 -0.94531,0.78321 -0.54268,0 -0.94726,-0.36775 -0.94726,-0.78321 0,-0.41545 0.40458,-0.78515 0.94726,-0.78515 z"
         id="path642" /></g><g
       id="ellipse1835"><path
         style="color:#000000;fill:#000000;stroke-miterlimit:1.9;-inkscape-stroke:none"
         d="m 372.66495,234.68294 a 1.1787455,1.0161599 0 0 1 -1.17874,1.01616 1.1787455,1.0161599 0 0 1 -1.17875,-1.01616 1.1787455,1.0161599 0 0 1 1.17875,-1.01616 1.1787455,1.0161599 0 0 1 1.17874,1.01616 z"
         id="path643" /><path
         style="color:#000000;fill:#000000;stroke-miterlimit:1.9;-inkscape-stroke:none"
         d="m 371.48633,233.43359 c -0.75933,0 -1.41211,0.54304 -1.41211,1.25 0,0.70697 0.65278,1.24805 1.41211,1.24805 0.75932,0 1.41015,-0.54108 1.41015,-1.24805 0,-0.70696 -0.65083,-1.25 -1.41015,-1.25 z m 0,0.46485 c 0.54268,0 0.94531,0.3697 0.94531,0.78515 0,0.41546 -0.40263,0.78321 -0.94531,0.78321 -0.54268,0 -0.94727,-0.36775 -0.94727,-0.78321 0,-0.41545 0.40459,-0.78515 0.94727,-0.78515 z"
         id="path644" /></g><g
       id="ellipse1837"><path
         style="color:#000000;fill:#000000;stroke-miterlimit:1.9;-inkscape-stroke:none"
         d="m 362.08164,234.68294 a 1.1787455,1.0161599 0 0 1 -1.17875,1.01616 1.1787455,1.0161599 0 0 1 -1.17874,-1.01616 1.1787455,1.0161599 0 0 1 1.17874,-1.01616 1.1787455,1.0161599 0 0 1 1.17875,1.01616 z"
         id="path645" /><path
         style="color:#000000;fill:#000000;stroke-miterlimit:1.9;-inkscape-stroke:none"
         d="m 360.90234,233.43359 c -0.75932,0 -1.41015,0.54304 -1.41015,1.25 0,0.70697 0.65083,1.24805 1.41015,1.24805 0.75933,0 1.41211,-0.54108 1.41211,-1.24805 0,-0.70696 -0.65278,-1.25 -1.41211,-1.25 z m 0,0.46485 c 0.54269,0 0.94727,0.3697 0.94727,0.78515 0,0.41546 -0.40458,0.78321 -0.94727,0.78321 -0.54268,0 -0.94531,-0.36775 -0.94531,-0.78321 0,-0.41545 0.40263,-0.78515 0.94531,-0.78515 z"
         id="path646" /></g><g
       id="ellipse1839"><path
         style="color:#000000;fill:#000000;stroke-miterlimit:1.9;-inkscape-stroke:none"
         d="m 351.49833,234.68294 a 1.1787455,1.0161599 0 0 1 -1.17875,1.01616 1.1787455,1.0161599 0 0 1 -1.17875,-1.01616 1.1787455,1.0161599 0 0 1 1.17875,-1.01616 1.1787455,1.0161599 0 0 1 1.17875,1.01616 z"
         id="path647" /><path
         style="color:#000000;fill:#000000;stroke-miterlimit:1.9;-inkscape-stroke:none"
         d="m 350.32031,233.43359 c -0.75932,0 -1.41211,0.54304 -1.41211,1.25 0,0.70697 0.65279,1.24805 1.41211,1.24805 0.75933,0 1.41016,-0.54108 1.41016,-1.24805 0,-0.70696 -0.65083,-1.25 -1.41016,-1.25 z m 0,0.46485 c 0.54268,0 0.94531,0.3697 0.94531,0.78515 0,0.41546 -0.40263,0.78321 -0.94531,0.78321 -0.54268,0 -0.94726,-0.36775 -0.94726,-0.78321 0,-0.41545 0.40458,-0.78515 0.94726,-0.78515 z"
         id="path648" /></g><g
       id="ellipse1841"><path
         style="color:#000000;fill:#000000;stroke-miterlimit:1.9;-inkscape-stroke:none"
         d="m 340.91498,234.68294 a 1.1787455,1.0161599 0 0 1 -1.17874,1.01616 1.1787455,1.0161599 0 0 1 -1.17875,-1.01616 1.1787455,1.0161599 0 0 1 1.17875,-1.01616 1.1787455,1.0161599 0 0 1 1.17874,1.01616 z"
         id="path649" /><path
         style="color:#000000;fill:#000000;stroke-miterlimit:1.9;-inkscape-stroke:none"
         d="m 339.73633,233.43359 c -0.75933,0 -1.41211,0.54304 -1.41211,1.25 0,0.70697 0.65278,1.24805 1.41211,1.24805 0.75932,0 1.41211,-0.54108 1.41211,-1.24805 0,-0.70696 -0.65279,-1.25 -1.41211,-1.25 z m 0,0.46485 c 0.54268,0 0.94531,0.3697 0.94531,0.78515 0,0.41546 -0.40263,0.78321 -0.94531,0.78321 -0.54268,0 -0.94727,-0.36775 -0.94727,-0.78321 0,-0.41545 0.40459,-0.78515 0.94727,-0.78515 z"
         id="path650" /></g><g
       id="ellipse1843"><path
         style="color:#000000;fill:#000000;stroke-miterlimit:1.9;-inkscape-stroke:none"
         d="m 330.33161,234.68294 a 1.1787455,1.0161599 0 0 1 -1.17875,1.01616 1.1787455,1.0161599 0 0 1 -1.17874,-1.01616 1.1787455,1.0161599 0 0 1 1.17874,-1.01616 1.1787455,1.0161599 0 0 1 1.17875,1.01616 z"
         id="path651" /><path
         style="color:#000000;fill:#000000;stroke-miterlimit:1.9;-inkscape-stroke:none"
         d="m 329.15234,233.43359 c -0.75932,0 -1.41015,0.54304 -1.41015,1.25 0,0.70697 0.65083,1.24805 1.41015,1.24805 0.75933,0 1.41211,-0.54108 1.41211,-1.24805 0,-0.70696 -0.65278,-1.25 -1.41211,-1.25 z m 0,0.46485 c 0.54269,0 0.94727,0.3697 0.94727,0.78515 0,0.41546 -0.40458,0.78321 -0.94727,0.78321 -0.54268,0 -0.94531,-0.36775 -0.94531,-0.78321 0,-0.41545 0.40263,-0.78515 0.94531,-0.78515 z"
         id="path652" /></g><path
       style="-inkscape-font-specification:'Times New Roman,  Italic';stroke-width:0.2"
       d="m 406.21534,237.94009 q 0.13505,0.14332 0.20395,0.28664 0.0496,0.0992 0.16261,0.52089 l 0.24254,-0.3638 q 0.0965,-0.13229 0.23426,-0.2508 0.13781,-0.12127 0.24254,-0.16537 0.0661,-0.0276 0.14607,-0.0276 0.11851,0 0.18741,0.0634 0.0717,0.0634 0.0717,0.15434 0,0.10473 -0.0413,0.14332 -0.0772,0.0689 -0.17639,0.0689 -0.0579,0 -0.12402,-0.0248 -0.12954,-0.0441 -0.17363,-0.0441 -0.0661,0 -0.1571,0.0772 -0.17088,0.14332 -0.4079,0.55397 l 0.226,0.94809 q 0.0524,0.21773 0.0882,0.26183 0.0358,0.0413 0.0717,0.0413 0.0579,0 0.13505,-0.0634 0.15158,-0.12678 0.25907,-0.33073 l 0.0965,0.0496 q -0.17363,0.32522 -0.44097,0.54019 -0.15158,0.12127 -0.25632,0.12127 -0.15434,0 -0.24529,-0.17364 -0.0579,-0.10748 -0.23977,-0.92604 -0.42995,0.7469 -0.68902,0.96187 -0.16812,0.13781 -0.32522,0.13781 -0.11024,0 -0.20119,-0.0799 -0.0661,-0.0606 -0.0661,-0.16261 0,-0.0909 0.0606,-0.15158 0.0606,-0.0606 0.14883,-0.0606 0.0882,0 0.18742,0.0882 0.0716,0.0634 0.11024,0.0634 0.0331,0 0.0854,-0.0441 0.12953,-0.10473 0.35277,-0.45199 0.22325,-0.34727 0.29215,-0.50161 -0.17088,-0.66973 -0.18466,-0.70831 -0.0634,-0.17915 -0.16536,-0.25356 -0.10198,-0.0744 -0.30042,-0.0744 -0.0634,0 -0.14607,0.006 v -0.0992 z"
       id="text1909"
       aria-label="x" /><g
       id="path1913"><path
         style="color:#000000;fill:#000000;-inkscape-stroke:none"
         d="m 320.19157,234.53904 h 85.64002"
         id="path654" /><path
         style="color:#000000;fill:#000000;-inkscape-stroke:none"
         d="m 320.19141,234.4082 v 0.26172 h 85.64062 v -0.26172 z"
         id="path655" /><g
         id="g653"><path
           style="color:#000000;fill:#000000;fill-rule:evenodd;-inkscape-stroke:none"
           d="m 406.63159,234.53904 -2.4,2.4 h -1.6 l 2.4,-2.4 -2.4,-2.4 h 1.6 z"
           id="path653" /></g></g><g
       id="ellipse1941"><path
         style="color:#000000;fill:#000000;stroke-miterlimit:1.9;-inkscape-stroke:none"
         d="m 383.24826,234.68294 a 1.1787455,1.0161599 0 0 1 -1.17874,1.01616 1.1787455,1.0161599 0 0 1 -1.17875,-1.01616 1.1787455,1.0161599 0 0 1 1.17875,-1.01616 1.1787455,1.0161599 0 0 1 1.17874,1.01616 z"
         id="path656" /><path
         style="color:#000000;fill:#000000;stroke-miterlimit:1.9;-inkscape-stroke:none"
         d="m 382.07031,233.43359 c -0.75932,0 -1.41211,0.54304 -1.41211,1.25 0,0.70697 0.65279,1.24805 1.41211,1.24805 0.75933,0 1.41016,-0.54108 1.41016,-1.24805 0,-0.70696 -0.65083,-1.25 -1.41016,-1.25 z m 0,0.46485 c 0.54268,0 0.94531,0.3697 0.94531,0.78515 0,0.41546 -0.40263,0.78321 -0.94531,0.78321 -0.54268,0 -0.94726,-0.36775 -0.94726,-0.78321 0,-0.41545 0.40458,-0.78515 0.94726,-0.78515 z"
         id="path657" /></g><g
       id="ellipse1943"><path
         style="color:#000000;fill:#000000;stroke-miterlimit:1.9;-inkscape-stroke:none"
         d="m 372.66495,234.68294 a 1.1787455,1.0161599 0 0 1 -1.17874,1.01616 1.1787455,1.0161599 0 0 1 -1.17875,-1.01616 1.1787455,1.0161599 0 0 1 1.17875,-1.01616 1.1787455,1.0161599 0 0 1 1.17874,1.01616 z"
         id="path658" /><path
         style="color:#000000;fill:#000000;stroke-miterlimit:1.9;-inkscape-stroke:none"
         d="m 371.48633,233.43359 c -0.75933,0 -1.41211,0.54304 -1.41211,1.25 0,0.70697 0.65278,1.24805 1.41211,1.24805 0.75932,0 1.41015,-0.54108 1.41015,-1.24805 0,-0.70696 -0.65083,-1.25 -1.41015,-1.25 z m 0,0.46485 c 0.54268,0 0.94531,0.3697 0.94531,0.78515 0,0.41546 -0.40263,0.78321 -0.94531,0.78321 -0.54268,0 -0.94727,-0.36775 -0.94727,-0.78321 0,-0.41545 0.40459,-0.78515 0.94727,-0.78515 z"
         id="path659" /></g><g
       id="ellipse1945"><path
         style="color:#000000;fill:#000000;stroke-miterlimit:1.9;-inkscape-stroke:none"
         d="m 362.08164,234.68294 a 1.1787455,1.0161599 0 0 1 -1.17875,1.01616 1.1787455,1.0161599 0 0 1 -1.17874,-1.01616 1.1787455,1.0161599 0 0 1 1.17874,-1.01616 1.1787455,1.0161599 0 0 1 1.17875,1.01616 z"
         id="path660" /><path
         style="color:#000000;fill:#000000;stroke-miterlimit:1.9;-inkscape-stroke:none"
         d="m 360.90234,233.43359 c -0.75932,0 -1.41015,0.54304 -1.41015,1.25 0,0.70697 0.65083,1.24805 1.41015,1.24805 0.75933,0 1.41211,-0.54108 1.41211,-1.24805 0,-0.70696 -0.65278,-1.25 -1.41211,-1.25 z m 0,0.46485 c 0.54269,0 0.94727,0.3697 0.94727,0.78515 0,0.41546 -0.40458,0.78321 -0.94727,0.78321 -0.54268,0 -0.94531,-0.36775 -0.94531,-0.78321 0,-0.41545 0.40263,-0.78515 0.94531,-0.78515 z"
         id="path661" /></g><g
       id="ellipse1947"><path
         style="color:#000000;fill:#000000;stroke-miterlimit:1.9;-inkscape-stroke:none"
         d="m 351.49833,234.68294 a 1.1787455,1.0161599 0 0 1 -1.17875,1.01616 1.1787455,1.0161599 0 0 1 -1.17875,-1.01616 1.1787455,1.0161599 0 0 1 1.17875,-1.01616 1.1787455,1.0161599 0 0 1 1.17875,1.01616 z"
         id="path662" /><path
         style="color:#000000;fill:#000000;stroke-miterlimit:1.9;-inkscape-stroke:none"
         d="m 350.32031,233.43359 c -0.75932,0 -1.41211,0.54304 -1.41211,1.25 0,0.70697 0.65279,1.24805 1.41211,1.24805 0.75933,0 1.41016,-0.54108 1.41016,-1.24805 0,-0.70696 -0.65083,-1.25 -1.41016,-1.25 z m 0,0.46485 c 0.54268,0 0.94531,0.3697 0.94531,0.78515 0,0.41546 -0.40263,0.78321 -0.94531,0.78321 -0.54268,0 -0.94726,-0.36775 -0.94726,-0.78321 0,-0.41545 0.40458,-0.78515 0.94726,-0.78515 z"
         id="path663" /></g><g
       id="ellipse1949"><path
         style="color:#000000;fill:#000000;stroke-miterlimit:1.9;-inkscape-stroke:none"
         d="m 340.91498,234.68294 a 1.1787455,1.0161599 0 0 1 -1.17874,1.01616 1.1787455,1.0161599 0 0 1 -1.17875,-1.01616 1.1787455,1.0161599 0 0 1 1.17875,-1.01616 1.1787455,1.0161599 0 0 1 1.17874,1.01616 z"
         id="path664" /><path
         style="color:#000000;fill:#000000;stroke-miterlimit:1.9;-inkscape-stroke:none"
         d="m 339.73633,233.43359 c -0.75933,0 -1.41211,0.54304 -1.41211,1.25 0,0.70697 0.65278,1.24805 1.41211,1.24805 0.75932,0 1.41211,-0.54108 1.41211,-1.24805 0,-0.70696 -0.65279,-1.25 -1.41211,-1.25 z m 0,0.46485 c 0.54268,0 0.94531,0.3697 0.94531,0.78515 0,0.41546 -0.40263,0.78321 -0.94531,0.78321 -0.54268,0 -0.94727,-0.36775 -0.94727,-0.78321 0,-0.41545 0.40459,-0.78515 0.94727,-0.78515 z"
         id="path665" /></g><g
       id="ellipse1951"><path
         style="color:#000000;fill:#000000;stroke-miterlimit:1.9;-inkscape-stroke:none"
         d="m 330.33161,234.68294 a 1.1787455,1.0161599 0 0 1 -1.17875,1.01616 1.1787455,1.0161599 0 0 1 -1.17874,-1.01616 1.1787455,1.0161599 0 0 1 1.17874,-1.01616 1.1787455,1.0161599 0 0 1 1.17875,1.01616 z"
         id="path666" /><path
         style="color:#000000;fill:#000000;stroke-miterlimit:1.9;-inkscape-stroke:none"
         d="m 329.15234,233.43359 c -0.75932,0 -1.41015,0.54304 -1.41015,1.25 0,0.70697 0.65083,1.24805 1.41015,1.24805 0.75933,0 1.41211,-0.54108 1.41211,-1.24805 0,-0.70696 -0.65278,-1.25 -1.41211,-1.25 z m 0,0.46485 c 0.54269,0 0.94727,0.3697 0.94727,0.78515 0,0.41546 -0.40458,0.78321 -0.94727,0.78321 -0.54268,0 -0.94531,-0.36775 -0.94531,-0.78321 0,-0.41545 0.40263,-0.78515 0.94531,-0.78515 z"
         id="path667" /></g><g
       id="ellipse4493"><path
         style="color:#000000;fill:#000000;stroke-miterlimit:1.9;-inkscape-stroke:none"
         d="m 393.83158,234.68294 a 1.1787455,1.0161599 0 0 1 -1.17875,1.01616 1.1787455,1.0161599 0 0 1 -1.17874,-1.01616 1.1787455,1.0161599 0 0 1 1.17874,-1.01616 1.1787455,1.0161599 0 0 1 1.17875,1.01616 z"
         id="path668" /><path
         style="color:#000000;fill:#000000;stroke-miterlimit:1.9;-inkscape-stroke:none"
         d="m 392.65234,233.43359 c -0.75932,0 -1.41015,0.54304 -1.41015,1.25 0,0.70697 0.65083,1.24805 1.41015,1.24805 0.75933,0 1.41211,-0.54108 1.41211,-1.24805 0,-0.70696 -0.65278,-1.25 -1.41211,-1.25 z m 0,0.46485 c 0.54269,0 0.94727,0.3697 0.94727,0.78515 0,0.41546 -0.40458,0.78321 -0.94727,0.78321 -0.54268,0 -0.94531,-0.36775 -0.94531,-0.78321 0,-0.41545 0.40263,-0.78515 0.94531,-0.78515 z"
         id="path669" /></g><path
       style="color:#000000;opacity:0.554017;fill:#000000;stroke-miterlimit:1.9;stroke-dasharray:1.82401, 1.82401;-inkscape-stroke:none"
       d="m 336.1582,230.69922 v 0.15039 h -0.15234 v 0.5293 h 0.30469 v -0.37696 h 1.67187 v -0.30273 z m 3.64844,0 v 0.30273 h 1.82422 v -0.30273 z m 3.64844,0 v 0.30273 h 1.82422 v -0.30273 z m 3.64844,0 v 0.30273 h 1.82421 v -0.30273 z m 3.64648,0 v 0.30273 h 1.82422 v -0.30273 z m 3.64844,0 v 0.30273 h 1.82422 v -0.30273 z m 3.64843,0 v 0.30273 h 1.82422 v -0.30273 z m 3.64844,0 v 0.30273 h 1.82422 v -0.30273 z m 3.64844,0 v 0.30273 h 1.82227 v -0.30273 z m 3.64648,0 v 0.30273 h 1.82422 v -0.30273 z m 3.64844,0 v 0.30273 h 1.82422 v -0.30273 z m 3.64844,0 v 0.30273 h 1.82422 v -0.30273 z m 3.64844,0 v 0.30273 h 1.82422 v -0.30273 z m 3.64648,0 v 0.30273 h 1.82422 v -0.30273 z m 2.89453,0.7539 v 1.82422 h 0.30469 v -1.82422 z m -50.4707,1.75 v 1.82422 h 0.30469 v -1.82422 z m 50.4707,1.89844 v 1.82422 h 0.30469 v -1.82422 z m -50.4707,1.75 v 1.82227 h 0.30469 v -1.82227 z m 50.4707,1.89649 v 0.11328 h -1.4082 v 0.30273 h 1.71289 v -0.41601 z m -48.83203,0.11328 v 0.30273 h 1.82422 v -0.30273 z m 3.64844,0 v 0.30273 h 1.82422 v -0.30273 z m 3.64844,0 v 0.30273 h 1.82226 v -0.30273 z m 3.64648,0 v 0.30273 h 1.82422 v -0.30273 z m 3.64844,0 v 0.30273 h 1.82422 v -0.30273 z m 3.64844,0 v 0.30273 h 1.82421 v -0.30273 z m 3.64843,0 v 0.30273 h 1.82422 v -0.30273 z m 3.64649,0 v 0.30273 h 1.82422 v -0.30273 z m 3.64843,0 v 0.30273 h 1.82422 v -0.30273 z m 3.64844,0 v 0.30273 h 1.82422 v -0.30273 z m 3.64844,0 v 0.30273 h 1.82422 v -0.30273 z m 3.64844,0 v 0.30273 h 1.82226 v -0.30273 z m 3.64648,0 v 0.30273 h 1.82422 v -0.30273 z"
       id="rect4547" /><path
       style="-inkscape-font-specification:'Times New Roman, ';opacity:0.554017;stroke-width:0.304;stroke-miterlimit:1.9"
       d="m 349.27858,220.49326 q 0.11575,0 0.19568,0.0827 0.0827,0.0799 0.0827,0.19569 0,0.11575 -0.0827,0.19843 -0.0799,0.0827 -0.19568,0.0827 -0.11576,0 -0.19844,-0.0827 -0.0827,-0.0827 -0.0827,-0.19843 0,-0.11576 0.0799,-0.19569 0.0827,-0.0827 0.2012,-0.0827 z m 0.22875,1.32016 v 2.02847 q 0,0.23702 0.0331,0.31695 0.0358,0.0772 0.10198,0.11576 0.0689,0.0386 0.24804,0.0386 v 0.0992 H 348.664 v -0.0992 q 0.18466,0 0.24805,-0.0358 0.0634,-0.0358 0.0992,-0.11851 0.0386,-0.0827 0.0386,-0.31695 V 222.869 q 0,-0.41066 -0.0248,-0.53192 -0.0193,-0.0882 -0.0606,-0.12127 -0.0413,-0.0358 -0.113,-0.0358 -0.0772,0 -0.18741,0.0413 l -0.0386,-0.0992 0.76067,-0.30868 z m 1.43316,0.53468 q 0.44373,-0.53468 0.84611,-0.53468 0.20671,0 0.35554,0.10473 0.14883,0.10198 0.23702,0.339 0.0606,0.16536 0.0606,0.50712 v 1.07762 q 0,0.23978 0.0386,0.32522 0.0303,0.0689 0.0965,0.10749 0.0689,0.0386 0.2508,0.0386 v 0.0992 h -1.2485 v -0.0992 h 0.0524 q 0.17639,0 0.24529,-0.0524 0.0717,-0.0551 0.0992,-0.15986 0.011,-0.0413 0.011,-0.25907 v -1.03353 q 0,-0.34451 -0.091,-0.49885 -0.0882,-0.15709 -0.30041,-0.15709 -0.32797,0 -0.65319,0.35829 v 1.33118 q 0,0.25632 0.0303,0.31695 0.0386,0.0799 0.10473,0.11851 0.0689,0.0358 0.2756,0.0358 v 0.0992 h -1.2485 v -0.0992 h 0.0551 q 0.19293,0 0.25907,-0.0965 0.0689,-0.0992 0.0689,-0.37483 v -0.93706 q 0,-0.45476 -0.0221,-0.55397 -0.0193,-0.0992 -0.0634,-0.13505 -0.0413,-0.0358 -0.113,-0.0358 -0.0772,0 -0.18466,0.0413 l -0.0413,-0.0992 0.76068,-0.30868 h 0.11851 z m 2.82222,0 q 0.44373,-0.53468 0.84611,-0.53468 0.20671,0 0.35554,0.10473 0.14883,0.10198 0.23702,0.339 0.0606,0.16536 0.0606,0.50712 v 1.07762 q 0,0.23978 0.0386,0.32522 0.0303,0.0689 0.0965,0.10749 0.0689,0.0386 0.2508,0.0386 v 0.0992 h -1.2485 v -0.0992 h 0.0524 q 0.17639,0 0.24529,-0.0524 0.0717,-0.0551 0.0992,-0.15986 0.011,-0.0413 0.011,-0.25907 v -1.03353 q 0,-0.34451 -0.0909,-0.49885 -0.0882,-0.15709 -0.30041,-0.15709 -0.32797,0 -0.65319,0.35829 v 1.33118 q 0,0.25632 0.0303,0.31695 0.0386,0.0799 0.10473,0.11851 0.0689,0.0358 0.2756,0.0358 v 0.0992 h -1.2485 v -0.0992 h 0.0551 q 0.19293,0 0.25908,-0.0965 0.0689,-0.0992 0.0689,-0.37483 v -0.93706 q 0,-0.45476 -0.022,-0.55397 -0.0193,-0.0992 -0.0634,-0.13505 -0.0413,-0.0358 -0.113,-0.0358 -0.0772,0 -0.18466,0.0413 l -0.0413,-0.0992 0.76068,-0.30868 h 0.11851 z m 2.51078,0.49058 q -0.003,0.56224 0.27285,0.88194 0.27561,0.31971 0.64768,0.31971 0.24805,0 0.42995,-0.13505 0.18466,-0.1378 0.30868,-0.46853 l 0.0854,0.0551 q -0.0579,0.37758 -0.33624,0.68902 -0.27837,0.30868 -0.69729,0.30868 -0.45475,0 -0.77997,-0.35278 -0.32246,-0.35553 -0.32246,-0.9536 0,-0.64768 0.33073,-1.00872 0.33348,-0.3638 0.83509,-0.3638 0.42443,0 0.69729,0.28111 0.27285,0.27837 0.27285,0.7469 z m 0,-0.15985 h 1.16858 q -0.0138,-0.24254 -0.0579,-0.34175 -0.0689,-0.15434 -0.2067,-0.24254 -0.13505,-0.0882 -0.28388,-0.0882 -0.22875,0 -0.41066,0.17914 -0.17914,0.17639 -0.20946,0.49334 z m 2.81947,-0.86541 v 0.56775 q 0.31695,-0.56775 0.65043,-0.56775 0.15158,0 0.2508,0.0937 0.0992,0.0909 0.0992,0.21222 0,0.10748 -0.0717,0.1819 -0.0716,0.0744 -0.17087,0.0744 -0.0965,0 -0.21773,-0.0937 -0.11851,-0.0965 -0.17639,-0.0965 -0.0496,0 -0.10749,0.0551 -0.12402,0.113 -0.25631,0.37207 v 1.20992 q 0,0.20946 0.0524,0.31695 0.0358,0.0744 0.12678,0.12402 0.0909,0.0496 0.26183,0.0496 v 0.0992 h -1.2926 v -0.0992 q 0.19293,0 0.28663,-0.0606 0.0689,-0.0441 0.0965,-0.14056 0.0138,-0.0469 0.0138,-0.26734 v -0.97841 q 0,-0.44097 -0.0193,-0.52365 -0.0165,-0.0854 -0.0661,-0.12403 -0.0469,-0.0386 -0.11851,-0.0386 -0.0854,0 -0.19293,0.0413 l -0.0276,-0.0992 0.76343,-0.30868 z m 2.37022,0.32522 0.77721,-0.31419 h 0.10473 v 0.5898 q 0.19569,-0.33349 0.39137,-0.46578 0.19843,-0.13505 0.41616,-0.13505 0.38034,0 0.6339,0.29766 0.31144,0.3638 0.31144,0.94809 0,0.65319 -0.37483,1.08038 -0.30868,0.35002 -0.77721,0.35002 -0.20395,0 -0.35278,-0.0579 -0.11024,-0.0413 -0.24805,-0.16536 v 0.76894 q 0,0.25907 0.0303,0.32797 0.0331,0.0717 0.11024,0.113 0.0799,0.0414 0.28664,0.0414 v 0.10197 h -1.32292 v -0.10197 h 0.0689 q 0.15159,0.003 0.25907,-0.0579 0.0524,-0.0303 0.0799,-0.0992 0.0303,-0.0661 0.0303,-0.34175 v -2.38676 q 0,-0.2453 -0.0221,-0.31144 -0.022,-0.0661 -0.0717,-0.0992 -0.0469,-0.0331 -0.12954,-0.0331 -0.0661,0 -0.16812,0.0386 z m 0.88194,0.43821 v 0.94258 q 0,0.30593 0.0248,0.40239 0.0386,0.15985 0.18741,0.28112 0.15159,0.12126 0.38034,0.12126 0.27561,0 0.44648,-0.21497 0.22325,-0.28112 0.22325,-0.79099 0,-0.57878 -0.25356,-0.89021 -0.17639,-0.21498 -0.41893,-0.21498 -0.13229,0 -0.26182,0.0661 -0.0992,0.0496 -0.32798,0.29765 z m 3.3569,-0.76343 q 0.57327,0 0.92053,0.43546 0.2949,0.37207 0.2949,0.85438 0,0.339 -0.16261,0.68627 -0.16261,0.34726 -0.44924,0.52365 -0.28387,0.17639 -0.63389,0.17639 -0.57051,0 -0.90675,-0.45475 -0.28388,-0.3831 -0.28388,-0.8599 0,-0.34726 0.17088,-0.68902 0.17363,-0.34451 0.45475,-0.50711 0.28112,-0.16537 0.59531,-0.16537 z m -0.0854,0.17915 q -0.14607,0 -0.2949,0.0882 -0.14607,0.0854 -0.23702,0.30317 -0.0909,0.21773 -0.0909,0.55948 0,0.55122 0.21773,0.95085 0.22049,0.39963 0.57878,0.39963 0.26734,0 0.44097,-0.22049 0.17363,-0.22048 0.17363,-0.75792 0,-0.67248 -0.28939,-1.05833 -0.19568,-0.26458 -0.49885,-0.26458 z m 2.31511,-1.49931 q 0.11575,0 0.19568,0.0827 0.0827,0.0799 0.0827,0.19569 0,0.11575 -0.0827,0.19843 -0.0799,0.0827 -0.19568,0.0827 -0.11576,0 -0.19844,-0.0827 -0.0827,-0.0827 -0.0827,-0.19843 0,-0.11576 0.0799,-0.19569 0.0827,-0.0827 0.2012,-0.0827 z m 0.22875,1.32016 v 2.02847 q 0,0.23702 0.0331,0.31695 0.0358,0.0772 0.10198,0.11576 0.0689,0.0386 0.24805,0.0386 v 0.0992 h -1.22646 v -0.0992 q 0.18466,0 0.24805,-0.0358 0.0634,-0.0358 0.0992,-0.11851 0.0386,-0.0827 0.0386,-0.31695 V 222.869 q 0,-0.41066 -0.0248,-0.53192 -0.0193,-0.0882 -0.0606,-0.12127 -0.0413,-0.0358 -0.11299,-0.0358 -0.0772,0 -0.18742,0.0413 l -0.0386,-0.0992 0.76067,-0.30868 z m 1.43316,0.53468 q 0.44373,-0.53468 0.84611,-0.53468 0.20671,0 0.35554,0.10473 0.14883,0.10198 0.23702,0.339 0.0606,0.16536 0.0606,0.50712 v 1.07762 q 0,0.23978 0.0386,0.32522 0.0303,0.0689 0.0965,0.10749 0.0689,0.0386 0.2508,0.0386 v 0.0992 h -1.2485 v -0.0992 h 0.0524 q 0.17639,0 0.24529,-0.0524 0.0717,-0.0551 0.0992,-0.15986 0.011,-0.0413 0.011,-0.25907 v -1.03353 q 0,-0.34451 -0.091,-0.49885 -0.0882,-0.15709 -0.30041,-0.15709 -0.32797,0 -0.65319,0.35829 v 1.33118 q 0,0.25632 0.0303,0.31695 0.0386,0.0799 0.10473,0.11851 0.0689,0.0358 0.2756,0.0358 v 0.0992 h -1.2485 v -0.0992 h 0.0551 q 0.19293,0 0.25908,-0.0965 0.0689,-0.0992 0.0689,-0.37483 v -0.93706 q 0,-0.45476 -0.022,-0.55397 -0.0193,-0.0992 -0.0634,-0.13505 -0.0413,-0.0358 -0.113,-0.0358 -0.0772,0 -0.18466,0.0413 l -0.0413,-0.0992 0.76068,-0.30868 h 0.11851 z m 2.81946,-1.28984 v 0.82958 h 0.5898 v 0.19292 h -0.5898 v 1.63711 q 0,0.24529 0.0689,0.33073 0.0717,0.0854 0.1819,0.0854 0.091,0 0.17639,-0.0551 0.0854,-0.0579 0.13229,-0.16812 h 0.10748 q -0.0965,0.2701 -0.27285,0.4079 -0.17639,0.13505 -0.3638,0.13505 -0.12678,0 -0.24805,-0.0689 -0.12126,-0.0717 -0.17914,-0.20119 -0.0579,-0.1323 -0.0579,-0.40515 v -1.69774 h -0.39963 v -0.0909 q 0.15158,-0.0606 0.30868,-0.20395 0.15985,-0.14607 0.28388,-0.34451 0.0634,-0.10473 0.17639,-0.38309 z m 2.46669,0.75516 v 0.8599 h -0.091 q -0.10473,-0.40515 -0.2701,-0.55122 -0.1626,-0.14607 -0.41616,-0.14607 -0.19293,0 -0.31144,0.10197 -0.11851,0.10198 -0.11851,0.226 0,0.15434 0.0882,0.26459 0.0854,0.11299 0.34727,0.23977 l 0.40239,0.19569 q 0.55948,0.27285 0.55948,0.71933 0,0.34451 -0.26183,0.55673 -0.25907,0.20946 -0.58153,0.20946 -0.23151,0 -0.52917,-0.0827 -0.0909,-0.0276 -0.14882,-0.0276 -0.0634,0 -0.0992,0.0716 h -0.0909 v -0.90123 h 0.0909 q 0.0772,0.38585 0.2949,0.58153 0.21773,0.19568 0.48782,0.19568 0.19017,0 0.30868,-0.11024 0.12127,-0.113 0.12127,-0.2701 0,-0.19017 -0.13505,-0.3197 -0.13229,-0.12954 -0.53192,-0.32797 -0.39963,-0.19844 -0.52365,-0.35829 -0.12403,-0.1571 -0.12403,-0.39688 0,-0.31144 0.21222,-0.5209 0.21497,-0.20946 0.55397,-0.20946 0.14883,0 0.36105,0.0634 0.14056,0.0413 0.18741,0.0413 0.0441,0 0.0689,-0.0193 0.0248,-0.0193 0.0579,-0.0854 z"
       id="text5019"
       aria-label="inner points" /><g
       id="path5021"
       style="opacity:0.733051"><path
         style="color:#000000;fill:#333333;-inkscape-stroke:none"
         d="m 361.09871,229.81542 -0.0713,-3.52746"
         id="path672" /><path
         style="color:#000000;fill:#323232;-inkscape-stroke:none"
         d="m 361.12695,226.28516 -0.19922,0.004 0.0703,3.5293 0.20117,-0.006 z"
         id="path673" /><g
         id="g671"><path
           style="color:#000000;fill:#323232;-inkscape-stroke:none"
           d="m 361.02344,226.0957 -0.65625,0.68555 0.14453,0.13867 0.51758,-0.54101 0.53906,0.51953 0.13867,-0.14453 z"
           id="path671" /></g></g><path
       style="-inkscape-font-specification:'Times New Roman, ';opacity:0.554017;stroke-width:0.304;stroke-miterlimit:1.9"
       d="m 349.59002,248.23872 q -0.003,0.56224 0.27285,0.88194 0.27561,0.31971 0.64768,0.31971 0.24805,0 0.42995,-0.13505 0.18465,-0.1378 0.30868,-0.46853 l 0.0854,0.0551 q -0.0579,0.37758 -0.33625,0.68902 -0.27836,0.30868 -0.69728,0.30868 -0.45475,0 -0.77997,-0.35278 -0.32246,-0.35553 -0.32246,-0.9536 0,-0.64768 0.33073,-1.00872 0.33348,-0.36381 0.83509,-0.36381 0.42443,0 0.69728,0.28112 0.27286,0.27837 0.27286,0.7469 z m 0,-0.15985 h 1.16858 q -0.0138,-0.24254 -0.0579,-0.34175 -0.0689,-0.15435 -0.20671,-0.24254 -0.13504,-0.0882 -0.28387,-0.0882 -0.22876,0 -0.41066,0.17914 -0.17914,0.17639 -0.20946,0.49334 z m 2.81671,-0.33073 q 0.44373,-0.53468 0.84611,-0.53468 0.20671,0 0.35554,0.10473 0.14883,0.10198 0.23702,0.339 0.0606,0.16536 0.0606,0.50712 v 1.07762 q 0,0.23978 0.0386,0.32522 0.0303,0.0689 0.0965,0.10749 0.0689,0.0386 0.2508,0.0386 v 0.0992 h -1.2485 v -0.0992 h 0.0524 q 0.17639,0 0.24529,-0.0524 0.0717,-0.0551 0.0992,-0.15985 0.011,-0.0413 0.011,-0.25907 v -1.03353 q 0,-0.34451 -0.091,-0.49885 -0.0882,-0.15709 -0.30041,-0.15709 -0.32797,0 -0.65319,0.35829 v 1.33118 q 0,0.25632 0.0303,0.31695 0.0386,0.0799 0.10473,0.11851 0.0689,0.0358 0.2756,0.0358 v 0.0992 h -1.2485 v -0.0992 h 0.0551 q 0.19293,0 0.25907,-0.0965 0.0689,-0.0992 0.0689,-0.37483 v -0.93706 q 0,-0.45476 -0.022,-0.55397 -0.0193,-0.0992 -0.0634,-0.13505 -0.0413,-0.0358 -0.113,-0.0358 -0.0772,0 -0.18466,0.0413 l -0.0413,-0.0992 0.76068,-0.30868 h 0.11851 z m 3.86953,1.78042 q -0.18466,0.19293 -0.36105,0.27837 -0.17639,0.0827 -0.38034,0.0827 -0.41341,0 -0.72209,-0.34451 -0.30868,-0.34727 -0.30868,-0.89021 0,-0.54295 0.34175,-0.99219 0.34176,-0.452 0.87919,-0.452 0.33349,0 0.55122,0.21222 v -0.46577 q 0,-0.43271 -0.022,-0.53193 -0.0193,-0.0992 -0.0634,-0.13504 -0.0441,-0.0358 -0.11024,-0.0358 -0.0717,0 -0.19017,0.0441 l -0.0358,-0.0965 0.75241,-0.30868 h 0.12402 v 2.91868 q 0,0.44373 0.0193,0.54295 0.0221,0.0965 0.0661,0.13505 0.0469,0.0386 0.10748,0.0386 0.0744,0 0.19844,-0.0469 l 0.0303,0.0965 -0.74965,0.31144 h -0.12678 z m 0,-0.19292 v -1.30087 q -0.0165,-0.18741 -0.0992,-0.34175 -0.0827,-0.15434 -0.22049,-0.23151 -0.13504,-0.0799 -0.26458,-0.0799 -0.24253,0 -0.4327,0.21773 -0.25081,0.28663 -0.25081,0.83785 0,0.55672 0.24254,0.85438 0.24253,0.2949 0.54019,0.2949 0.2508,0 0.48507,-0.2508 z m 2.26825,-1.79696 0.77721,-0.31419 h 0.10473 v 0.5898 q 0.19568,-0.33349 0.39136,-0.46578 0.19844,-0.13505 0.41617,-0.13505 0.38034,0 0.6339,0.29766 0.31143,0.3638 0.31143,0.94809 0,0.65319 -0.37482,1.08038 -0.30868,0.35002 -0.77722,0.35002 -0.20395,0 -0.35277,-0.0579 -0.11025,-0.0413 -0.24805,-0.16536 v 0.76894 q 0,0.25907 0.0303,0.32797 0.0331,0.0717 0.11024,0.113 0.0799,0.0413 0.28663,0.0413 v 0.10198 h -1.32291 v -0.10198 h 0.0689 q 0.15158,0.003 0.25907,-0.0579 0.0524,-0.0303 0.0799,-0.0992 0.0303,-0.0661 0.0303,-0.34175 v -2.38677 q 0,-0.24529 -0.022,-0.31143 -0.022,-0.0662 -0.0716,-0.0992 -0.0469,-0.0331 -0.12954,-0.0331 -0.0661,0 -0.16812,0.0386 z m 0.88194,0.43821 v 0.94258 q 0,0.30593 0.0248,0.40239 0.0386,0.15985 0.18742,0.28112 0.15158,0.12126 0.38034,0.12126 0.2756,0 0.44648,-0.21497 0.22324,-0.28112 0.22324,-0.79099 0,-0.57878 -0.25356,-0.89021 -0.17639,-0.21498 -0.41892,-0.21498 -0.13229,0 -0.26183,0.0661 -0.0992,0.0496 -0.32797,0.29765 z m 3.3569,-0.76343 q 0.57326,0 0.92053,0.43546 0.2949,0.37207 0.2949,0.85438 0,0.339 -0.16261,0.68627 -0.16261,0.34726 -0.44924,0.52365 -0.28388,0.17639 -0.6339,0.17639 -0.57051,0 -0.90675,-0.45475 -0.28387,-0.3831 -0.28387,-0.8599 0,-0.34726 0.17087,-0.68902 0.17364,-0.34451 0.45476,-0.50711 0.28112,-0.16537 0.59531,-0.16537 z m -0.0854,0.17915 q -0.14607,0 -0.2949,0.0882 -0.14607,0.0854 -0.23702,0.30317 -0.091,0.21773 -0.091,0.55948 0,0.55122 0.21773,0.95085 0.22048,0.39963 0.57877,0.39963 0.26734,0 0.44097,-0.22049 0.17364,-0.22048 0.17364,-0.75792 0,-0.67248 -0.28939,-1.05833 -0.19568,-0.26458 -0.49885,-0.26458 z m 2.3151,-1.49931 q 0.11576,0 0.19568,0.0827 0.0827,0.0799 0.0827,0.19568 0,0.11576 -0.0827,0.19844 -0.0799,0.0827 -0.19568,0.0827 -0.11575,0 -0.19843,-0.0827 -0.0827,-0.0827 -0.0827,-0.19844 0,-0.11575 0.0799,-0.19568 0.0827,-0.0827 0.20119,-0.0827 z m 0.22876,1.32016 v 2.02847 q 0,0.23702 0.0331,0.31695 0.0358,0.0772 0.10197,0.11576 0.0689,0.0386 0.24805,0.0386 v 0.0992 h -1.22645 v -0.0992 q 0.18466,0 0.24805,-0.0358 0.0634,-0.0358 0.0992,-0.11851 0.0386,-0.0827 0.0386,-0.31695 v -0.97289 q 0,-0.41066 -0.0248,-0.53192 -0.0193,-0.0882 -0.0606,-0.12127 -0.0413,-0.0358 -0.113,-0.0358 -0.0772,0 -0.18741,0.0413 l -0.0386,-0.0992 0.76068,-0.30868 z m 1.43316,0.53468 q 0.44372,-0.53468 0.84611,-0.53468 0.20671,0 0.35553,0.10473 0.14883,0.10198 0.23703,0.339 0.0606,0.16536 0.0606,0.50712 v 1.07762 q 0,0.23978 0.0386,0.32522 0.0303,0.0689 0.0965,0.10749 0.0689,0.0386 0.2508,0.0386 v 0.0992 h -1.2485 v -0.0992 h 0.0524 q 0.17639,0 0.24529,-0.0524 0.0717,-0.0551 0.0992,-0.15985 0.011,-0.0413 0.011,-0.25907 v -1.03353 q 0,-0.34451 -0.0909,-0.49885 -0.0882,-0.15709 -0.30042,-0.15709 -0.32797,0 -0.65318,0.35829 v 1.33118 q 0,0.25632 0.0303,0.31695 0.0386,0.0799 0.10473,0.11851 0.0689,0.0358 0.27561,0.0358 v 0.0992 h -1.2485 v -0.0992 h 0.0551 q 0.19293,0 0.25907,-0.0965 0.0689,-0.0992 0.0689,-0.37483 v -0.93706 q 0,-0.45476 -0.022,-0.55397 -0.0193,-0.0992 -0.0634,-0.13505 -0.0413,-0.0358 -0.11299,-0.0358 -0.0772,0 -0.18466,0.0413 l -0.0413,-0.0992 0.76067,-0.30868 h 0.11852 z m 2.81946,-1.28984 v 0.82957 h 0.5898 v 0.19293 h -0.5898 v 1.63711 q 0,0.24529 0.0689,0.33073 0.0717,0.0854 0.1819,0.0854 0.091,0 0.17639,-0.0551 0.0854,-0.0579 0.13229,-0.16812 h 0.10749 q -0.0965,0.2701 -0.27285,0.4079 -0.17639,0.13505 -0.3638,0.13505 -0.12678,0 -0.24805,-0.0689 -0.12127,-0.0717 -0.17915,-0.2012 -0.0579,-0.13229 -0.0579,-0.40514 v -1.69774 h -0.39963 v -0.0909 q 0.15158,-0.0606 0.30868,-0.20395 0.15985,-0.14607 0.28387,-0.34451 0.0634,-0.10473 0.17639,-0.38309 z m 2.46669,0.75516 v 0.8599 h -0.0909 q -0.10474,-0.40515 -0.2701,-0.55122 -0.16261,-0.14607 -0.41617,-0.14607 -0.19292,0 -0.31143,0.10197 -0.11851,0.10198 -0.11851,0.226 0,0.15434 0.0882,0.26459 0.0854,0.11299 0.34727,0.23977 l 0.40238,0.19568 q 0.55949,0.27286 0.55949,0.71934 0,0.34451 -0.26183,0.55673 -0.25907,0.20946 -0.58153,0.20946 -0.23151,0 -0.52917,-0.0827 -0.091,-0.0276 -0.14883,-0.0276 -0.0634,0 -0.0992,0.0717 h -0.0909 v -0.90123 h 0.0909 q 0.0772,0.38585 0.2949,0.58153 0.21773,0.19568 0.48783,0.19568 0.19017,0 0.30868,-0.11024 0.12127,-0.113 0.12127,-0.2701 0,-0.19017 -0.13505,-0.3197 -0.13229,-0.12954 -0.53192,-0.32798 -0.39963,-0.19843 -0.52366,-0.35828 -0.12402,-0.1571 -0.12402,-0.39688 0,-0.31144 0.21222,-0.5209 0.21497,-0.20946 0.55397,-0.20946 0.14883,0 0.36104,0.0634 0.14056,0.0413 0.18742,0.0413 0.0441,0 0.0689,-0.0193 0.0248,-0.0193 0.0579,-0.0854 z"
       id="text5025"
       aria-label="end points" /><g
       id="path5081"><path
         style="color:#000000;fill:#626564;stroke-miterlimit:1.9;-inkscape-stroke:none"
         d="m 328.87891,237.86328 v 10.49805 h 19.69531 v -0.30274 h -19.39063 v -10.19531 z"
         id="path675" /><g
         id="g674"><path
           style="color:#000000;fill:#626564;fill-rule:evenodd;-inkscape-stroke:none"
           d="m 348.87896,248.21022 -0.912,0.912 h -0.608 l 0.912,-0.912 -0.912,-0.912 h 0.608 z"
           id="path674" /></g></g><g
       id="path5680"><path
         style="color:#000000;fill:#626564;stroke-miterlimit:1.9;-inkscape-stroke:none"
         d="m 392.60352,237.86523 v 10.19141 h -19.51368 v 0.30469 h 19.81836 v -10.4961 z"
         id="path677" /><g
         id="g676"><path
           style="color:#000000;fill:#626564;fill-rule:evenodd;-inkscape-stroke:none"
           d="m 372.78496,248.20935 0.91476,-0.91476 h 0.60984 l -0.91476,0.91476 0.91476,0.91476 h -0.60984 z"
           id="path676" /></g></g><path
       style="-inkscape-font-specification:'Times New Roman, ';opacity:0.554017;stroke-width:0.304;stroke-miterlimit:1.9"
       d="m 166.78127,356.67726 0.9095,-0.44372 h 0.091 v 3.1557 q 0,0.31419 0.0248,0.39136 0.0276,0.0772 0.11024,0.11852 0.0827,0.0413 0.33624,0.0469 v 0.10197 h -1.40559 v -0.10197 q 0.26458,-0.006 0.34175,-0.0441 0.0772,-0.0413 0.10749,-0.10749 0.0303,-0.0689 0.0303,-0.40514 v -2.01745 q 0,-0.40789 -0.0276,-0.52365 -0.0193,-0.0882 -0.0717,-0.12953 -0.0496,-0.0414 -0.12126,-0.0414 -0.10198,0 -0.28388,0.0854 z m 2.25722,3.37068 v -0.10197 h 0.14056 q 0.23703,0 0.33625,-0.15159 0.0606,-0.0909 0.0606,-0.40789 v -2.41433 q 0,-0.35002 -0.0772,-0.43821 -0.10749,-0.12127 -0.31971,-0.12127 h -0.14056 v -0.10197 h 1.52136 q 0.83784,0 1.2733,0.19017 0.43822,0.19016 0.7028,0.63389 0.26734,0.44373 0.26734,1.02526 0,0.77997 -0.47404,1.30363 -0.53192,0.58428 -1.62057,0.58428 z m 1.06661,-0.27009 q 0.35002,0.0772 0.58704,0.0772 0.63941,0 1.06109,-0.44924 0.42168,-0.44924 0.42168,-1.21819 0,-0.77445 -0.42168,-1.22094 -0.42168,-0.44648 -1.08314,-0.44648 -0.24805,0 -0.56499,0.0799 z m 5.1759,-0.65044 q -0.23151,-0.11299 -0.35553,-0.31419 -0.12402,-0.20395 -0.12402,-0.44924 0,-0.37482 0.28112,-0.64492 0.28387,-0.27009 0.72484,-0.27009 0.36105,0 0.62563,0.17638 h 0.53468 q 0.11851,0 0.1378,0.008 0.0193,0.006 0.0276,0.022 0.0165,0.0248 0.0165,0.0882 0,0.0717 -0.0138,0.0992 -0.008,0.0138 -0.0303,0.0221 -0.0193,0.008 -0.1378,0.008 h -0.32797 q 0.15434,0.19844 0.15434,0.50712 0,0.35278 -0.2701,0.60358 -0.27009,0.2508 -0.72485,0.2508 -0.18741,0 -0.38309,-0.0551 -0.12127,0.10473 -0.16536,0.18466 -0.0413,0.0772 -0.0413,0.13229 0,0.0469 0.0441,0.0909 0.0469,0.0441 0.17915,0.0634 0.0772,0.011 0.38585,0.0193 0.56775,0.0138 0.73587,0.0386 0.25631,0.0358 0.4079,0.19017 0.15434,0.15434 0.15434,0.38033 0,0.31144 -0.29215,0.58429 -0.42994,0.40239 -1.12172,0.40239 -0.53192,0 -0.89848,-0.23978 -0.2067,-0.1378 -0.2067,-0.28663 0,-0.0661 0.0303,-0.13229 0.0469,-0.10198 0.19293,-0.28388 0.0193,-0.0248 0.28112,-0.29766 -0.14332,-0.0854 -0.20395,-0.15158 -0.0579,-0.0689 -0.0579,-0.15434 0,-0.0965 0.0772,-0.226 0.0799,-0.12953 0.3638,-0.36656 z m 0.47956,-1.54615 q -0.20395,0 -0.34175,0.1626 -0.13781,0.16261 -0.13781,0.49885 0,0.43546 0.18742,0.67524 0.14331,0.1819 0.3638,0.1819 0.20946,0 0.34451,-0.15709 0.13504,-0.1571 0.13504,-0.49334 0,-0.43822 -0.19016,-0.68626 -0.14056,-0.1819 -0.36105,-0.1819 z m -0.50712,2.46668 q -0.12953,0.14056 -0.19568,0.26183 -0.0661,0.12127 -0.0661,0.22324 0,0.13229 0.15986,0.23151 0.2756,0.17088 0.7965,0.17088 0.4961,0 0.73036,-0.17639 0.23702,-0.17363 0.23702,-0.37207 0,-0.14332 -0.14056,-0.20395 -0.14331,-0.0606 -0.56775,-0.0717 -0.62011,-0.0165 -0.9536,-0.0634 z m 2.91317,-2.59897 v 0.56775 q 0.31695,-0.56775 0.65044,-0.56775 0.15158,0 0.2508,0.0937 0.0992,0.091 0.0992,0.21222 0,0.10749 -0.0717,0.1819 -0.0717,0.0744 -0.17088,0.0744 -0.0965,0 -0.21773,-0.0937 -0.11851,-0.0965 -0.17639,-0.0965 -0.0496,0 -0.10748,0.0551 -0.12403,0.113 -0.25632,0.37207 v 1.20991 q 0,0.20946 0.0524,0.31695 0.0358,0.0744 0.12678,0.12403 0.0909,0.0496 0.26183,0.0496 v 0.0992 h -1.2926 v -0.0992 q 0.19292,0 0.28663,-0.0606 0.0689,-0.0441 0.0965,-0.14056 0.0138,-0.0469 0.0138,-0.26734 v -0.9784 q 0,-0.44098 -0.0193,-0.52366 -0.0165,-0.0854 -0.0661,-0.12402 -0.0469,-0.0386 -0.11851,-0.0386 -0.0854,0 -0.19292,0.0413 l -0.0276,-0.0992 0.76343,-0.30868 z m 1.78318,-1.32016 q 0.11576,0 0.19568,0.0827 0.0827,0.0799 0.0827,0.19568 0,0.11575 -0.0827,0.19844 -0.0799,0.0827 -0.19568,0.0827 -0.11575,0 -0.19843,-0.0827 -0.0827,-0.0827 -0.0827,-0.19844 0,-0.11576 0.0799,-0.19568 0.0827,-0.0827 0.20119,-0.0827 z m 0.22876,1.32016 v 2.02847 q 0,0.23702 0.0331,0.31694 0.0358,0.0772 0.10197,0.11576 0.0689,0.0386 0.24805,0.0386 v 0.0992 h -1.22645 v -0.0992 q 0.18466,0 0.24805,-0.0358 0.0634,-0.0358 0.0992,-0.11852 0.0386,-0.0827 0.0386,-0.31694 v -0.9729 q 0,-0.41065 -0.0248,-0.53192 -0.0193,-0.0882 -0.0606,-0.12127 -0.0413,-0.0358 -0.113,-0.0358 -0.0772,0 -0.18741,0.0413 l -0.0386,-0.0992 0.76068,-0.30868 z m 2.48046,2.3151 q -0.18465,0.19292 -0.36104,0.27836 -0.17639,0.0827 -0.38034,0.0827 -0.41341,0 -0.72209,-0.34451 -0.30868,-0.34726 -0.30868,-0.89021 0,-0.54294 0.34175,-0.99218 0.34175,-0.452 0.87919,-0.452 0.33348,0 0.55121,0.21222 v -0.46578 q 0,-0.4327 -0.022,-0.53192 -0.0193,-0.0992 -0.0634,-0.13505 -0.0441,-0.0358 -0.11025,-0.0358 -0.0717,0 -0.19017,0.0441 l -0.0358,-0.0965 0.75241,-0.30868 h 0.12403 v 2.91868 q 0,0.44373 0.0193,0.54294 0.0221,0.0965 0.0661,0.13505 0.0469,0.0386 0.10749,0.0386 0.0744,0 0.19844,-0.0469 l 0.0303,0.0965 -0.74966,0.31143 h -0.12678 z m 0,-0.19293 v -1.30086 q -0.0165,-0.18742 -0.0992,-0.34176 -0.0827,-0.15434 -0.22048,-0.23151 -0.13505,-0.0799 -0.26458,-0.0799 -0.24254,0 -0.43271,0.21773 -0.2508,0.28663 -0.2508,0.83784 0,0.55673 0.24253,0.85439 0.24254,0.2949 0.54019,0.2949 0.25081,0 0.48507,-0.25081 z"
       id="text5808"
       transform="rotate(-30)"
       aria-label="1D grid" /><g
       id="path8065"><path
         style="color:#000000;fill:#000000;stroke-miterlimit:1.9;-inkscape-stroke:none"
         d="M 382.05579,228.2 H 392.6645"
         id="path680" /><path
         style="color:#000000;fill:#0b0b0b;stroke-miterlimit:1.9;-inkscape-stroke:none"
         d="m 382.05664,228.05859 v 0.28125 h 10.60742 v -0.28125 z"
         id="path681" /><g
         id="g678"><path
           style="color:#000000;fill:#0b0b0b;-inkscape-stroke:none"
           d="m 392.52344,227.07617 v 2.24805 h 0.28125 v -2.24805 z"
           id="path679" /><path
           style="color:#000000;fill:#0b0b0b;-inkscape-stroke:none"
           d="m 381.91602,227.07617 v 2.24805 h 0.28125 v -2.24805 z"
           id="path678" /></g></g><g
       id="text11801"
       style="font-size:5.64444px;font-family:'0394Times New Roman';-inkscape-font-specification:'0394Times New Roman, ';letter-spacing:0.79375px;stroke:#0b0b0b;stroke-width:0.281001;stroke-miterlimit:1.9"
       aria-label="Δx"><path
         style="stroke:none;stroke-width:0.281"
         d="m 387.88278,227.67877 h -3.82543 l 1.54891,-4.10379 h 0.7276 z m -0.73588,-0.46302 -1.19062,-3.16122 -1.18787,3.16122 z"
         id="path682" /><path
         style="-inkscape-font-specification:'Times New Roman,  Italic';stroke:none;stroke-width:0.281"
         d="m 389.72659,225.18452 q 0.13505,0.14332 0.20395,0.28664 0.0496,0.0992 0.16261,0.52089 l 0.24253,-0.3638 q 0.0965,-0.13229 0.23427,-0.2508 0.1378,-0.12127 0.24253,-0.16536 0.0661,-0.0276 0.14608,-0.0276 0.11851,0 0.18741,0.0634 0.0717,0.0634 0.0717,0.15434 0,0.10474 -0.0413,0.14332 -0.0772,0.0689 -0.17639,0.0689 -0.0579,0 -0.12403,-0.0248 -0.12953,-0.0441 -0.17363,-0.0441 -0.0661,0 -0.1571,0.0772 -0.17087,0.14332 -0.40789,0.55397 l 0.22599,0.94809 q 0.0524,0.21773 0.0882,0.26183 0.0358,0.0413 0.0717,0.0413 0.0579,0 0.13504,-0.0634 0.15159,-0.12678 0.25907,-0.33073 l 0.0965,0.0496 q -0.17364,0.32522 -0.44097,0.54019 -0.15159,0.12127 -0.25632,0.12127 -0.15434,0 -0.24529,-0.17363 -0.0579,-0.10749 -0.23978,-0.92605 -0.42995,0.7469 -0.68902,0.96187 -0.16812,0.13781 -0.32521,0.13781 -0.11025,0 -0.2012,-0.0799 -0.0661,-0.0606 -0.0661,-0.16261 0,-0.0909 0.0606,-0.15158 0.0606,-0.0606 0.14883,-0.0606 0.0882,0 0.18741,0.0882 0.0717,0.0634 0.11024,0.0634 0.0331,0 0.0854,-0.0441 0.12954,-0.10473 0.35278,-0.45199 0.22324,-0.34727 0.29214,-0.50161 -0.17087,-0.66973 -0.18465,-0.70831 -0.0634,-0.17915 -0.16537,-0.25356 -0.10197,-0.0744 -0.30041,-0.0744 -0.0634,0 -0.14607,0.006 v -0.0992 z"
         id="path683" /></g></g></svg>
