<?xml version="1.0" encoding="UTF-8" standalone="no"?>
<!-- Created with Inkscape (http://www.inkscape.org/) -->

<svg
   width="219.84959mm"
   height="71.996048mm"
   viewBox="0 0 219.84959 71.996048"
   version="1.1"
   id="svg5"
   inkscape:version="1.3.2 (091e20e, 2023-11-25)"
   sodipodi:docname="book_artwork.svg"
   xml:space="preserve"
   xmlns:inkscape="http://www.inkscape.org/namespaces/inkscape"
   xmlns:sodipodi="http://sodipodi.sourceforge.net/DTD/sodipodi-0.dtd"
   xmlns="http://www.w3.org/2000/svg"
   xmlns:svg="http://www.w3.org/2000/svg"><sodipodi:namedview
     id="namedview7"
     pagecolor="#ffffff"
     bordercolor="#000000"
     borderopacity="0.25"
     inkscape:showpageshadow="2"
     inkscape:pageopacity="1"
     inkscape:pagecheckerboard="0"
     inkscape:deskcolor="#d1d1d1"
     inkscape:document-units="mm"
     showgrid="false"
     inkscape:zoom="0.4290611"
     inkscape:cx="2898.1886"
     inkscape:cy="644.43036"
     inkscape:window-width="1432"
     inkscape:window-height="916"
     inkscape:window-x="63"
     inkscape:window-y="38"
     inkscape:window-maximized="0"
     inkscape:current-layer="layer1"><inkscape:page
       x="2.6228304e-07"
       y="8.7258604e-07"
       width="219.84959"
       height="71.996048"
       id="page3"
       margin="0"
       bleed="0" /></sodipodi:namedview><defs
     id="defs2" /><g
     inkscape:label="Layer 1"
     inkscape:groupmode="layer"
     id="layer1"
     transform="translate(-520.03711,-17.46297)"><path
       style="color:#000000;fill:#000000;-inkscape-stroke:none"
       d="m 623.89648,52.689453 c 0,0 -23.91013,8.211922 -49.94921,12.978516 -26.36513,4.826271 -53.83399,2.75 -53.83399,2.75 l -0.0762,0.998047 c 0,0 27.5539,2.093867 54.08984,-2.763672 26.13252,-4.783697 50.09571,-13.017578 50.09571,-13.017578 z"
       id="path2"
       inkscape:export-filename="week 1.6/path2.svg"
       inkscape:export-xdpi="160"
       inkscape:export-ydpi="160" /><g
       id="path3"><path
         style="color:#000000;fill:#ff0000;-inkscape-stroke:none"
         d="m 533.4555,69.280838 a 1.7724537,1.65385 0 0 1 -1.77246,1.65385 1.7724537,1.65385 0 0 1 -1.77245,-1.65385 1.7724537,1.65385 0 0 1 1.77245,-1.65385 1.7724537,1.65385 0 0 1 1.77246,1.65385 z"
         id="path105" /><path
         style="color:#000000;fill:#ff0000;-inkscape-stroke:none"
         d="m 531.68359,67.126953 c -1.23103,0 -2.27343,0.951304 -2.27343,2.154297 0,1.202993 1.0424,2.154297 2.27343,2.154297 1.23104,0 2.27149,-0.951304 2.27149,-2.154297 0,-1.202993 -1.04045,-2.154297 -2.27149,-2.154297 z m 0,1 c 0.72676,0 1.27149,0.5305 1.27149,1.154297 0,0.623797 -0.54473,1.154297 -1.27149,1.154297 -0.72676,0 -1.27343,-0.5305 -1.27343,-1.154297 0,-0.623797 0.54667,-1.154297 1.27343,-1.154297 z"
         id="path106" /></g><g
       id="path3-7"><path
         style="color:#000000;fill:#0fb900;-inkscape-stroke:none"
         d="m 615.5985,56.051533 a 1.7724537,1.65385 0 0 1 -1.77245,1.65385 1.7724537,1.65385 0 0 1 -1.77245,-1.65385 1.7724537,1.65385 0 0 1 1.77245,-1.65385 1.7724537,1.65385 0 0 1 1.77245,1.65385 z"
         id="path107" /><path
         style="color:#000000;fill:#0fb900;-inkscape-stroke:none"
         d="m 613.82617,53.898437 c -1.23103,0 -2.27344,0.949351 -2.27344,2.152344 0,1.202994 1.04241,2.154297 2.27344,2.154297 1.23104,0 2.27149,-0.951303 2.27149,-2.154297 0,-1.202993 -1.04045,-2.152344 -2.27149,-2.152344 z m 0,1 c 0.72676,0 1.27149,0.528547 1.27149,1.152344 0,0.623797 -0.54473,1.154297 -1.27149,1.154297 -0.72676,0 -1.27344,-0.5305 -1.27344,-1.154297 0,-0.623797 0.54668,-1.152344 1.27344,-1.152344 z"
         id="path108" /></g><g
       id="path4"><path
         style="color:#000000;fill:#a0bfe5;-inkscape-stroke:none"
         d="m 568.95508,44.298828 c -21.61935,0 -37.67774,22.537109 -37.67774,22.537109 l 0.8125,0.582032 c 0,0 15.94573,-22.119141 36.86524,-22.119141 21.17063,0 39.58203,6.275391 39.58203,6.275391 l 0.32226,-0.945313 c 0,0 -18.53611,-6.330078 -39.90429,-6.330078 z"
         id="path112" /><g
         id="g109"><g
           id="path109"><path
             style="color:#000000;fill:#a0bfe5;fill-rule:evenodd;-inkscape-stroke:none"
             d="m 611.4288,52.033472 -4.90056,0.969589 1.61445,-4.732181 z"
             id="path110" /><path
             style="color:#000000;fill:#a0bfe5;fill-rule:evenodd;-inkscape-stroke:none"
             d="m 608.01367,47.617187 -1.98828,5.824219 6.0332,-1.193359 z m 0.25977,1.308594 2.52539,2.892578 -3.76758,0.746094 z"
             id="path111" /></g></g></g><g
       id="text4"><path
         style="color:#000000;-inkscape-font-specification:'Times New Roman, ';fill:#000000;-inkscape-stroke:none"
         d="m 566.66901,50.735056 1.02319,-0.499194 h 0.10232 v 3.550171 q 0,0.353467 0.0279,0.440283 0.031,0.08682 0.12403,0.133325 0.093,0.04651 0.37827,0.05271 v 0.114722 h -1.5813 v -0.114722 q 0.29766,-0.0062 0.38447,-0.04961 0.0868,-0.04651 0.12093,-0.120923 0.0341,-0.07751 0.0341,-0.455786 v -2.269629 q 0,-0.458887 -0.031,-0.589111 -0.0217,-0.09922 -0.0806,-0.145728 -0.0558,-0.04651 -0.13642,-0.04651 -0.11473,0 -0.31936,0.09612 z"
         id="path113" /><path
         style="color:#000000;-inkscape-font-specification:'Times New Roman, ';fill:#000000;-inkscape-stroke:none"
         d="m 567.67969,50.185547 -1.07813,0.527344 0.0899,0.183593 0.0449,-0.01953 c 0.13316,-0.06255 0.2363,-0.0918 0.29883,-0.0918 0.0441,0 0.0754,0.01173 0.10351,0.03516 h 0.002 c 0.028,0.02214 0.0497,0.05867 0.0625,0.117188 v 0.002 c 0.0176,0.07395 0.0293,0.271374 0.0293,0.576172 v 2.269531 c 0,0.125341 -0.002,0.22687 -0.008,0.300781 -0.005,0.07288 -0.0161,0.121774 -0.0215,0.134766 -0.0177,0.0386 -0.0491,0.0706 -0.0996,0.09766 -0.039,0.01906 -0.16626,0.04086 -0.36133,0.04492 h -0.0488 v 0.212891 h 1.68164 v -0.212891 h -0.0488 c -0.18758,-0.0041 -0.31292,-0.02657 -0.35742,-0.04883 -0.0524,-0.02617 -0.0832,-0.05857 -0.0996,-0.103516 v -0.002 c -0.0125,-0.0399 -0.0254,-0.19057 -0.0254,-0.423828 v -3.599609 z m 0.0234,0.09961 h 0.041 v 3.5 c 0,0.23696 0.007,0.380336 0.0312,0.457031 0.025,0.07014 0.0773,0.126535 0.14844,0.16211 0.0698,0.0349 0.19616,0.04478 0.35156,0.05078 v 0.02148 h -1.48242 v -0.01953 c 0.16152,-0.0056 0.28925,-0.01474 0.35742,-0.04883 v -0.002 h 0.002 c 0.0652,-0.03496 0.11478,-0.08391 0.14258,-0.144531 0.0174,-0.03956 0.0235,-0.08995 0.0293,-0.167969 0.006,-0.07802 0.008,-0.181751 0.008,-0.308594 v -2.269531 c 0,-0.30705 -0.008,-0.499922 -0.0312,-0.599609 -0.0161,-0.07378 -0.0472,-0.133957 -0.0977,-0.173829 -0.0463,-0.03859 -0.1046,-0.05664 -0.16796,-0.05664 -0.0776,0 -0.18016,0.03717 -0.29297,0.08594 l -0.006,-0.01367 z"
         id="path114" /></g><g
       id="path5"><path
         style="color:#000000;fill:#000000;stroke-dasharray:0.499999, 0.499999;-inkscape-stroke:none"
         d="m 531.68302,71.434693 v 7.90203"
         id="path115" /><path
         style="color:#000000;fill:#000000;stroke-dasharray:0.499999, 0.499999;-inkscape-stroke:none"
         d="m 531.43359,71.435547 v 0.5 h 0.5 v -0.5 z m 0,1 v 0.5 h 0.5 v -0.5 z m 0,1 v 0.5 h 0.5 v -0.5 z m 0,1 v 0.5 h 0.5 v -0.5 z m 0,1 v 0.5 h 0.5 v -0.5 z m 0,1 v 0.5 h 0.5 v -0.5 z m 0,1 v 0.5 h 0.5 v -0.5 z m 0,1 v 0.5 h 0.5 v -0.5 z"
         id="path116" /></g><g
       id="path5-8"><path
         style="color:#000000;fill:#000000;stroke-dasharray:0.499999, 0.499999;-inkscape-stroke:none"
         d="m 613.82603,58.222683 v 21.11404"
         id="path117" /><path
         style="color:#000000;fill:#000000;stroke-dasharray:0.499999, 0.499999;-inkscape-stroke:none"
         d="m 613.57617,58.222656 v 0.5 h 0.5 v -0.5 z m 0,1 v 0.5 h 0.5 v -0.5 z m 0,1 v 0.5 h 0.5 v -0.5 z m 0,1 v 0.5 h 0.5 v -0.5 z m 0,1 v 0.5 h 0.5 v -0.5 z m 0,1 v 0.5 h 0.5 v -0.5 z m 0,1 v 0.5 h 0.5 v -0.5 z m 0,1 v 0.5 h 0.5 v -0.5 z m 0,1 v 0.5 h 0.5 v -0.5 z m 0,1 v 0.5 h 0.5 v -0.5 z m 0,1 v 0.5 h 0.5 v -0.5 z m 0,1 v 0.5 h 0.5 v -0.5 z m 0,1 v 0.5 h 0.5 v -0.5 z m 0,1 v 0.5 h 0.5 v -0.5 z m 0,1 v 0.5 h 0.5 v -0.5 z m 0,1 v 0.5 h 0.5 v -0.5 z m 0,1 v 0.5 h 0.5 v -0.5 z m 0,1 v 0.5 h 0.5 v -0.5 z m 0,1 v 0.5 h 0.5 v -0.5 z m 0,1 v 0.5 h 0.5 v -0.5 z m 0,1 v 0.5 h 0.5 v -0.5 z m 0,1 v 0.113281 h 0.5 v -0.113281 z"
         id="path118" /></g><g
       id="text6"
       style="font-size:7.05556px;font-family:'Times New Roman';-inkscape-font-specification:'Times New Roman, ';stroke:#000000;stroke-width:0.1"
       aria-label="ti"><g
         id="path119"><path
           style="color:#000000;-inkscape-font-specification:'Times New Roman, ';fill:#000000;stroke:none;-inkscape-stroke:none"
           d="m 530.33598,82.833747 v 1.036974 h 0.73725 v 0.241157 h -0.73725 v 2.046386 q 0,0.306614 0.0861,0.413412 0.0896,0.106798 0.22737,0.106798 0.11369,0 0.22049,-0.0689 0.1068,-0.07235 0.16536,-0.210151 h 0.13436 q -0.12058,0.337619 -0.34106,0.509874 -0.22049,0.16881 -0.45476,0.16881 -0.15847,0 -0.31005,-0.08613 -0.15159,-0.08957 -0.22394,-0.251492 -0.0723,-0.165364 -0.0723,-0.506429 V 84.111878 H 529.268 v -0.113689 q 0.18948,-0.07579 0.38585,-0.254937 0.19981,-0.18259 0.35484,-0.430637 0.0792,-0.130913 0.22049,-0.478868 z"
           id="path121" /><path
           style="color:#000000;-inkscape-font-specification:'Times New Roman, ';fill:#000000;stroke:none;-inkscape-stroke:none"
           d="m 530.19531,82.783203 -0.0117,0.03125 c -0.0938,0.230978 -0.16733,0.390901 -0.21679,0.472656 -0.10096,0.161284 -0.21643,0.301786 -0.34571,0.419922 -0.12759,0.116401 -0.25185,0.196447 -0.37109,0.244141 l -0.0312,0.01367 v 0.197265 h 0.49805 v 2.072266 c 0,0.230909 0.0249,0.403587 0.0781,0.525391 v 0.002 c 0.0521,0.116687 0.13472,0.208784 0.24414,0.273437 0.10756,0.06112 0.21928,0.09375 0.33399,0.09375 0.16819,0 0.33255,-0.06195 0.48632,-0.179687 0.156,-0.121871 0.2747,-0.30157 0.35743,-0.533203 l 0.0234,-0.06641 h -0.23828 l -0.0117,0.0293 c -0.036,0.0847 -0.0859,0.147107 -0.14843,0.189453 -0.0638,0.04077 -0.12632,0.06055 -0.19141,0.06055 -0.0789,0 -0.13783,-0.02831 -0.18945,-0.08984 -0.0424,-0.05348 -0.0742,-0.182112 -0.0742,-0.380859 v -1.996094 h 0.73633 v -0.341797 h -0.73633 v -1.037109 z m 0.0664,0.09961 h 0.0234 v 1.03711 h 0.73828 V 84.0625 h -0.73828 v 2.095703 c 0,0.209089 0.0256,0.355912 0.0976,0.445313 0.0679,0.08087 0.16281,0.125 0.26758,0.125 0.0859,0 0.1681,-0.02586 0.24609,-0.07617 l 0.002,-0.002 c 0.0697,-0.04723 0.11915,-0.119299 0.16015,-0.201172 h 0.0195 c -0.0746,0.175073 -0.16215,0.326879 -0.28125,0.419922 -0.13963,0.10646 -0.28023,0.158203 -0.42382,0.158203 -0.096,0 -0.18927,-0.0251 -0.28321,-0.07813 -0.0927,-0.05477 -0.16075,-0.129308 -0.20507,-0.228516 -0.0431,-0.09868 -0.0664,-0.262485 -0.0664,-0.486328 V 84.0625 h -0.5 v -0.03906 c 0.12287,-0.05426 0.2455,-0.131342 0.36914,-0.24414 0.13678,-0.124989 0.25773,-0.270578 0.36328,-0.439453 v -0.002 c 0.0527,-0.08718 0.12448,-0.244485 0.21094,-0.455079 z"
           id="path122" /></g><g
         id="path120"><path
           style="color:#000000;-inkscape-font-specification:'Times New Roman, ';fill:#000000;stroke:none;-inkscape-stroke:none"
           d="m 532.18255,83.538614 q 0.14469,0 0.2446,0.103353 0.10335,0.09991 0.10335,0.244601 0,0.144694 -0.10335,0.248047 -0.0999,0.103353 -0.2446,0.103353 -0.14469,0 -0.24805,-0.103353 -0.10335,-0.103353 -0.10335,-0.248047 0,-0.144694 0.0999,-0.244601 0.10335,-0.103353 0.25149,-0.103353 z m 0.28594,1.6502 v 2.535591 q 0,0.296278 0.0413,0.396186 0.0448,0.09646 0.12747,0.144694 0.0861,0.04823 0.31006,0.04823 v 0.124023 h -1.53307 v -0.124023 q 0.23082,0 0.31006,-0.04479 0.0792,-0.04479 0.12403,-0.148139 0.0482,-0.103353 0.0482,-0.396186 v -1.216119 q 0,-0.513319 -0.031,-0.664903 -0.0241,-0.110244 -0.0758,-0.151585 -0.0517,-0.04479 -0.14125,-0.04479 -0.0965,0 -0.23427,0.05168 l -0.0482,-0.124024 0.95085,-0.385851 z"
           id="path123" /><path
           style="color:#000000;-inkscape-font-specification:'Times New Roman, ';fill:#000000;stroke:none;-inkscape-stroke:none"
           d="m 532.18164,83.488281 0.0215,0.109375 c 0.0724,0.0052 0.13534,0.02416 0.1875,0.07813 l 0.002,0.002 c 0.0602,0.05822 0.0879,0.124429 0.0879,0.208985 0,0.08456 -0.0272,0.152238 -0.0879,0.21289 h -0.002 c -0.0218,0.02255 -0.0536,0.01949 -0.0781,0.0332 l 0.0195,0.0918 c 0.0434,-0.01982 0.096,-0.01858 0.13086,-0.05469 0.0771,-0.07715 0.11719,-0.174836 0.11719,-0.283203 0,-0.107457 -0.0409,-0.204568 -0.11719,-0.279297 -0.075,-0.07757 -0.17288,-0.119141 -0.28125,-0.119141 z m -0.28516,0.119141 c -0.0751,0.07514 -0.11523,0.171327 -0.11523,0.279297 0,0.108367 0.04,0.206051 0.11719,0.283203 0.074,0.07405 0.1683,0.110136 0.27148,0.113281 -0.0206,-0.0608 -0.0293,-0.06482 -0.0488,-0.121094 -0.0539,-0.01176 -0.10716,-0.01927 -0.15039,-0.0625 -0.0607,-0.06065 -0.0898,-0.128332 -0.0898,-0.21289 0,-0.06423 0.0318,-0.110819 0.0644,-0.158203 -0.0102,-0.01333 -0.0427,-0.127206 -0.0488,-0.121094 z m 0.41016,1.53125 -1.00586,0.408203 0.084,0.216797 0.0469,-0.01758 c 0.0883,-0.03311 0.16139,-0.04883 0.2168,-0.04883 0.0514,0 0.0857,0.0127 0.10937,0.0332 0.0205,0.01639 0.0438,0.05556 0.0586,0.123047 0.0184,0.0902 0.0293,0.313091 0.0293,0.654296 v 1.216797 c 0,0.192479 -0.0185,0.322492 -0.043,0.375 v 0.002 c -0.0267,0.06146 -0.0615,0.09931 -0.10351,0.123047 -0.0347,0.01963 -0.13451,0.03906 -0.28516,0.03906 h -0.0508 v 0.224609 h 1.63477 v -0.224609 h -0.0508 c -0.14572,0 -0.24389,-0.01985 -0.28516,-0.04297 -0.0446,-0.02635 -0.0796,-0.06463 -0.10547,-0.119141 -0.0209,-0.05048 -0.0391,-0.181757 -0.0391,-0.376953 v -2.585937 h -0.0488 z m 0.0195,0.09961 h 0.0918 v 2.486328 c 0,0.199842 0.0107,0.333285 0.0449,0.416016 h 0.002 v 0.002 c 0.0335,0.07207 0.0822,0.12853 0.14649,0.166016 h 0.002 c 0.0624,0.03493 0.16486,0.04314 0.2832,0.04687 v 0.03125 h -1.43164 v -0.03125 c 0.12049,-0.0032 0.22306,-0.009 0.28321,-0.04297 0.0632,-0.03575 0.11338,-0.0943 0.14648,-0.169922 v -0.002 c 0.0394,-0.08535 0.0527,-0.218961 0.0527,-0.416016 v -1.216797 c 0,-0.343218 -0.0103,-0.561917 -0.0332,-0.673828 v -0.002 c -0.0171,-0.07847 -0.0445,-0.138916 -0.0918,-0.177734 -4.6e-4,-3.98e-4 -10e-4,3.94e-4 -0.002,0 -0.0451,-0.03839 -0.10453,-0.05664 -0.17187,-0.05664 -0.0591,0 -0.12988,0.02132 -0.20313,0.04492 l -0.0156,-0.04102 z"
           id="path124" /></g></g><g
       id="text6-4"
       style="font-size:7.05556px;font-family:'Times New Roman';-inkscape-font-specification:'Times New Roman, ';stroke:#000000;stroke-width:0.1"
       aria-label="ti+1&#10;"><g
         id="path125"><path
           style="color:#000000;-inkscape-font-specification:'Times New Roman, ';fill:#000000;stroke:none;-inkscape-stroke:none"
           d="m 609.87687,82.833747 v 1.036974 h 0.73725 v 0.241157 h -0.73725 v 2.046386 q 0,0.306614 0.0861,0.413412 0.0896,0.106798 0.22738,0.106798 0.11368,0 0.22048,-0.0689 0.1068,-0.07235 0.16537,-0.210151 h 0.13435 q -0.12057,0.337619 -0.34106,0.509874 -0.22049,0.16881 -0.45475,0.16881 -0.15848,0 -0.31006,-0.08613 -0.15159,-0.08957 -0.22393,-0.251492 -0.0723,-0.165364 -0.0723,-0.506429 v -2.122178 h -0.49954 v -0.113689 q 0.18948,-0.07579 0.38585,-0.254937 0.19982,-0.18259 0.35485,-0.430637 0.0792,-0.130913 0.22048,-0.478868 z"
           id="path127" /><path
           style="color:#000000;-inkscape-font-specification:'Times New Roman, ';fill:#000000;stroke:none;-inkscape-stroke:none"
           d="m 609.73633,82.783203 -0.0117,0.03125 c -0.0938,0.230978 -0.16929,0.390901 -0.21875,0.472656 -0.10079,0.16082 -0.21671,0.302053 -0.3457,0.419922 -0.1276,0.116401 -0.24991,0.196447 -0.36914,0.244141 l -0.0312,0.01367 v 0.197265 h 0.49804 v 2.072266 c 0,0.230909 0.0229,0.403587 0.0762,0.525391 h 0.002 v 0.002 c 0.0521,0.116688 0.13472,0.208783 0.24414,0.273437 0.10756,0.06112 0.21927,0.09375 0.33398,0.09375 0.16819,0 0.33255,-0.06195 0.48633,-0.179687 0.156,-0.121871 0.2747,-0.30157 0.35742,-0.533203 l 0.0234,-0.06641 h -0.23828 l -0.0137,0.0293 c -0.036,0.0847 -0.084,0.147107 -0.14649,0.189453 -0.0644,0.04155 -0.12767,0.06055 -0.19336,0.06055 -0.0789,0 -0.13587,-0.02831 -0.1875,-0.08984 -0.0424,-0.05348 -0.0742,-0.182112 -0.0742,-0.380859 v -1.996094 h 0.73633 v -0.341797 h -0.73633 v -1.037109 z m 0.0664,0.09961 h 0.0234 v 1.03711 h 0.73828 V 84.0625 h -0.73828 v 2.095703 c 0,0.209089 0.0256,0.355912 0.0977,0.445313 0.0678,0.08087 0.16085,0.125 0.26562,0.125 0.0859,0 0.17006,-0.02586 0.24805,-0.07617 v -0.002 h 0.002 c 0.0697,-0.04723 0.11915,-0.1193 0.16016,-0.201172 h 0.0195 c -0.0746,0.175073 -0.16215,0.326879 -0.28125,0.419922 -0.13964,0.10646 -0.28025,0.158203 -0.42383,0.158203 -0.096,0 -0.18926,-0.0251 -0.2832,-0.07813 -0.0927,-0.05477 -0.16076,-0.129309 -0.20508,-0.228516 -0.0431,-0.09868 -0.0664,-0.262485 -0.0664,-0.486328 V 84.0625 h -0.5 v -0.03906 c 0.12288,-0.05426 0.2455,-0.131342 0.36915,-0.24414 0.13678,-0.124989 0.25773,-0.270577 0.36328,-0.439453 v -0.002 c 0.0527,-0.08718 0.12448,-0.244485 0.21093,-0.455079 z"
           id="path128" /></g><g
         id="path126"><path
           style="color:#000000;-inkscape-font-specification:'Times New Roman, ';fill:#000000;stroke:none;-inkscape-stroke:none"
           d="m 611.72344,83.538614 q 0.1447,0 0.2446,0.103353 0.10336,0.09991 0.10336,0.244601 0,0.144694 -0.10336,0.248047 -0.0999,0.103353 -0.2446,0.103353 -0.14469,0 -0.24804,-0.103353 -0.10336,-0.103353 -0.10336,-0.248047 0,-0.144694 0.0999,-0.244601 0.10335,-0.103353 0.25149,-0.103353 z m 0.28595,1.6502 v 2.535591 q 0,0.296278 0.0413,0.396186 0.0448,0.09646 0.12747,0.144694 0.0861,0.04823 0.31005,0.04823 v 0.124023 h -1.53306 v -0.124023 q 0.23082,0 0.31006,-0.04479 0.0792,-0.04479 0.12402,-0.148139 0.0482,-0.103353 0.0482,-0.396186 v -1.216119 q 0,-0.513319 -0.031,-0.664903 -0.0241,-0.110244 -0.0758,-0.151585 -0.0517,-0.04479 -0.14125,-0.04479 -0.0965,0 -0.23426,0.05168 l -0.0482,-0.124024 0.95084,-0.385851 z m 2.49424,2.762967 v -1.719103 h -1.71565 V 85.95018 h 1.71565 v -1.712212 h 0.27561 v 1.712212 h 1.72255 v 0.282498 h -1.72255 v 1.719103 z m 2.96279,-3.727593 1.13688,-0.554661 h 0.11369 v 3.944635 q 0,0.39274 0.031,0.489203 0.0344,0.09646 0.13781,0.148139 0.10335,0.05168 0.4203,0.05857 v 0.127468 h -1.757 v -0.127468 q 0.33073,-0.0069 0.42719,-0.05512 0.0965,-0.05168 0.13436,-0.134358 0.0379,-0.08613 0.0379,-0.506429 v -2.52181 q 0,-0.509874 -0.0345,-0.654568 -0.0241,-0.110243 -0.0896,-0.16192 -0.062,-0.05168 -0.15158,-0.05168 -0.12747,0 -0.35485,0.106798 z"
           id="path129" /><path
           style="color:#000000;-inkscape-font-specification:'Times New Roman, ';fill:#000000;stroke:none;-inkscape-stroke:none"
           d="m 611.4375,83.607422 c -0.0751,0.07514 -0.11523,0.171327 -0.11523,0.279297 0,0.108368 0.04,0.206052 0.11718,0.283203 0.0772,0.07715 0.17484,0.117187 0.28321,0.117187 0.10837,0 0.20626,-0.03961 0.28125,-0.117187 0.0771,-0.07715 0.11718,-0.174835 0.11718,-0.283203 0,-0.08507 -0.0453,-0.154739 -0.0937,-0.220703 -0.0286,-0.0015 -0.13408,-0.01499 -0.15625,-0.01563 0.0184,0.01212 0.0437,0.0079 0.0606,0.02539 l 0.002,0.002 c 0.0602,0.05822 0.0879,0.12443 0.0879,0.208985 0,0.08456 -0.0272,0.152238 -0.0879,0.21289 h -0.002 c -0.0582,0.06023 -0.12442,0.08789 -0.20898,0.08789 -0.0846,0 -0.15029,-0.02724 -0.21094,-0.08789 -0.0607,-0.06065 -0.0898,-0.128333 -0.0898,-0.21289 0,-0.08496 0.0279,-0.150914 0.0859,-0.208985 0.0346,-0.03456 0.0812,-0.03653 0.12305,-0.05078 -0.0141,9.81e-4 -0.19085,-0.02204 -0.19336,-0.01953 z m 7.1543,0.01172 -1.19141,0.582031 0.0215,0.04492 0.0723,0.15039 0.0449,-0.01953 c 0.14833,-0.06967 0.26297,-0.103516 0.33399,-0.103516 0.0501,0 0.0869,0.01415 0.11914,0.04102 h 0.002 c 0.0324,0.02559 0.0559,0.06891 0.0703,0.134766 0.0199,0.08357 0.0332,0.30379 0.0332,0.642578 v 2.521484 c 0,0.139348 -0.002,0.251633 -0.008,0.333985 -0.006,0.08235 -0.0188,0.137355 -0.0254,0.152343 -0.0202,0.04408 -0.0544,0.08083 -0.11133,0.111328 -0.0447,0.02235 -0.18613,0.04428 -0.40429,0.04883 l -0.0488,0.002 v 0.226562 h 1.85547 v -0.226562 l -0.0488,-0.002 c -0.2087,-0.0045 -0.34703,-0.02703 -0.39844,-0.05273 -0.0593,-0.02962 -0.0946,-0.06779 -0.11328,-0.11914 v -0.002 c -0.0146,-0.0463 -0.0273,-0.213213 -0.0273,-0.472656 v -3.99414 z m 0.0234,0.09961 h 0.0508 v 3.894531 c 0,0.263142 0.008,0.422733 0.0352,0.50586 v 0.002 c 0.0273,0.07658 0.084,0.136758 0.16211,0.175781 0.0768,0.03841 0.21653,0.04814 0.39258,0.05469 v 0.03516 h -1.65625 v -0.0332 c 0.18305,-0.0061 0.32368,-0.01732 0.39844,-0.05469 H 618 c 0.0717,-0.03841 0.12596,-0.09205 0.15625,-0.158203 0.0187,-0.04243 0.0267,-0.09909 0.0332,-0.185547 0.006,-0.08646 0.01,-0.200946 0.01,-0.341797 v -2.521484 c 0,-0.340046 -0.0112,-0.55441 -0.0371,-0.664063 v -0.002 c -0.0177,-0.07929 -0.0521,-0.144508 -0.10547,-0.1875 -0.0504,-0.04204 -0.11426,-0.06445 -0.18359,-0.06445 -0.0862,0 -0.20044,0.042 -0.32813,0.09766 l -0.0117,-0.02344 z m -4.16211,0.46875 v 1.712891 h -1.71484 v 0.382812 h 1.71484 v 1.71875 h 0.0508 0.32617 v -1.71875 h 1.72265 v -0.382812 h -1.72265 V 84.1875 Z m 0.0996,0.09961 h 0.17579 V 86 h 1.72265 v 0.183594 h -1.72265 v 1.71875 h -0.17579 v -1.71875 h -1.71484 V 86 h 1.71484 z m -2.70507,0.851563 -1.00586,0.408203 0.084,0.216797 0.0469,-0.01758 c 0.0882,-0.03311 0.16139,-0.04883 0.21679,-0.04883 0.0514,0 0.0857,0.0127 0.10938,0.0332 0.0205,0.01639 0.0438,0.05556 0.0586,0.123047 0.0184,0.0902 0.0293,0.313091 0.0293,0.654296 v 1.216797 c 0,0.192479 -0.0185,0.322492 -0.043,0.375 v 0.002 c -0.0267,0.06146 -0.0615,0.09931 -0.10352,0.123047 -0.0347,0.01963 -0.13451,0.03906 -0.28515,0.03906 h -0.0508 v 0.224609 h 1.63476 v -0.224609 h -0.0508 c -0.14571,0 -0.24388,-0.01985 -0.28516,-0.04297 -0.0446,-0.02635 -0.0796,-0.06463 -0.10546,-0.119141 -0.0209,-0.05048 -0.0391,-0.181757 -0.0391,-0.376953 v -2.585937 h -0.0488 z m 0.0195,0.09961 h 0.0918 v 2.486328 c 0,0.199842 0.0107,0.333285 0.0449,0.416016 h 0.002 v 0.002 c 0.0335,0.07207 0.0822,0.12853 0.14648,0.166016 h 0.002 c 0.0624,0.03493 0.16486,0.04314 0.2832,0.04687 v 0.03125 h -1.43164 v -0.03125 c 0.12049,-0.0032 0.22306,-0.009 0.2832,-0.04297 0.0629,-0.03554 0.11146,-0.09492 0.14453,-0.169922 0.0398,-0.0853 0.0547,-0.220004 0.0547,-0.417969 v -1.216797 c 0,-0.343218 -0.0103,-0.561917 -0.0332,-0.673828 v -0.002 c -0.0172,-0.07847 -0.0445,-0.138916 -0.0918,-0.177734 -4.6e-4,-3.98e-4 -10e-4,3.94e-4 -0.002,0 -0.0451,-0.03839 -0.10453,-0.05664 -0.17188,-0.05664 -0.0591,0 -0.12988,0.02132 -0.20312,0.04492 l -0.0156,-0.04102 z"
           id="path130" /></g></g><text
       xml:space="preserve"
       style="font-style:normal;font-variant:normal;font-weight:normal;font-stretch:normal;font-size:7.76111px;font-family:'Times New Roman';-inkscape-font-specification:'Times New Roman, ';fill:#000000;fill-opacity:1;stroke:#000000;stroke-width:0.1;stroke-dasharray:none;stroke-dashoffset:0;stroke-opacity:1"
       x="544.01025"
       y="22.901787"
       id="text9"><tspan
         sodipodi:role="line"
         id="tspan9"
         style="font-size:7.76111px;stroke-width:0.1;stroke-dasharray:none"
         x="544.01025"
         y="22.901787">Forward Euler</tspan></text><text
       xml:space="preserve"
       style="font-style:normal;font-variant:normal;font-weight:normal;font-stretch:normal;font-size:7.76111px;font-family:'Times New Roman';-inkscape-font-specification:'Times New Roman, ';fill:#000000;fill-opacity:1;stroke:#000000;stroke-width:0.1;stroke-dasharray:none;stroke-dashoffset:0;stroke-opacity:1"
       x="667.18073"
       y="24.189672"
       id="text9-3"><tspan
         sodipodi:role="line"
         id="tspan9-2"
         style="font-size:7.76111px;stroke-width:0.1;stroke-dasharray:none"
         x="667.18073"
         y="24.189672">Runge-Kutta 4</tspan><tspan
         sodipodi:role="line"
         style="font-size:7.76111px;stroke-width:0.1;stroke-dasharray:none"
         x="667.18073"
         y="33.89106"
         id="tspan12" /></text><path
       style="color:#000000;fill:#000000;-inkscape-stroke:none"
       d="m 739.5625,53.166016 c 0,0 -23.91013,8.211921 -49.94922,12.978515 -26.36512,4.826271 -53.83398,2.75 -53.83398,2.75 l -0.0762,0.998047 c 0,0 27.55391,2.093868 54.08985,-2.763672 26.13252,-4.783696 50.09375,-13.017578 50.09375,-13.017578 z"
       id="path2-2" /><g
       id="path3-0"><path
         style="color:#000000;fill:#ff0000;-inkscape-stroke:none"
         d="m 649.12115,69.757286 a 1.7724537,1.65385 0 0 1 -1.77246,1.65385 1.7724537,1.65385 0 0 1 -1.77245,-1.65385 1.7724537,1.65385 0 0 1 1.77245,-1.65385 1.7724537,1.65385 0 0 1 1.77246,1.65385 z"
         id="path131" /><path
         style="color:#000000;fill:#ff0000;-inkscape-stroke:none"
         d="m 647.34961,67.603516 c -1.23104,0 -2.27344,0.951303 -2.27344,2.154296 0,1.202994 1.0424,2.154297 2.27344,2.154297 1.23104,0 2.27148,-0.951303 2.27148,-2.154297 0,-1.202993 -1.04044,-2.154296 -2.27148,-2.154296 z m 0,1 c 0.72676,0 1.27148,0.5305 1.27148,1.154296 0,0.623797 -0.54472,1.154297 -1.27148,1.154297 -0.72676,0 -1.27344,-0.5305 -1.27344,-1.154297 0,-0.623796 0.54668,-1.154296 1.27344,-1.154296 z"
         id="path132" /></g><g
       id="path3-0-1"><path
         style="color:#000000;fill:#827d7d;-inkscape-stroke:none"
         d="m 689.56805,66.797783 a 1.7724537,1.65385 0 0 1 -1.77246,1.65385 1.7724537,1.65385 0 0 1 -1.77245,-1.65385 1.7724537,1.65385 0 0 1 1.77245,-1.65385 1.7724537,1.65385 0 0 1 1.77246,1.65385 z"
         id="path133" /><path
         style="color:#000000;fill:#827d7d;-inkscape-stroke:none"
         d="m 687.79492,64.644531 c -1.23103,0 -2.27148,0.949351 -2.27148,2.152344 0,1.202993 1.04045,2.154297 2.27148,2.154297 1.23104,0 2.27344,-0.951304 2.27344,-2.154297 0,-1.202993 -1.0424,-2.152344 -2.27344,-2.152344 z m 0,1 c 0.72676,0 1.27344,0.528547 1.27344,1.152344 0,0.623797 -0.54668,1.154297 -1.27344,1.154297 -0.72676,0 -1.27148,-0.5305 -1.27148,-1.154297 0,-0.623797 0.54472,-1.152344 1.27148,-1.152344 z"
         id="path134" /></g><g
       id="path3-7-6"><path
         style="color:#000000;fill:#0fb900;-inkscape-stroke:none"
         d="m 731.26415,56.527977 a 1.7724537,1.65385 0 0 1 -1.77245,1.65385 1.7724537,1.65385 0 0 1 -1.77245,-1.65385 1.7724537,1.65385 0 0 1 1.77245,-1.65385 1.7724537,1.65385 0 0 1 1.77245,1.65385 z"
         id="path136" /><path
         style="color:#000000;fill:#0fb900;-inkscape-stroke:none"
         d="m 729.49219,54.375 c -1.23104,0 -2.27344,0.94935 -2.27344,2.152344 0,1.202993 1.0424,2.154297 2.27344,2.154297 1.23103,0 2.27148,-0.951304 2.27148,-2.154297 0,-1.202994 -1.04045,-2.152344 -2.27148,-2.152344 z m 0,1 c 0.72676,0 1.27148,0.528547 1.27148,1.152344 0,0.623797 -0.54472,1.154297 -1.27148,1.154297 -0.72676,0 -1.27344,-0.5305 -1.27344,-1.154297 0,-0.623797 0.54668,-1.152344 1.27344,-1.152344 z"
         id="path137" /></g><g
       id="path4-0"><path
         style="color:#000000;fill:#8eb4e3;-inkscape-stroke:none"
         d="m 665.85937,58.181641 c -10.85253,0 -18.88476,9.089843 -18.88476,9.089843 l 0.74805,0.664063 c 0,0 7.84681,-8.753906 18.13671,-8.753906 8.28653,0 16.10743,4.589843 16.10743,4.589843 l 0.50781,-0.861328 c 0,0 -7.96198,-4.728515 -16.61524,-4.728515 z"
         id="path141" /><g
         id="g138"><g
           id="path138"><path
             style="color:#000000;fill:#8eb4e3;fill-rule:evenodd;-inkscape-stroke:none"
             d="m 684.70436,64.807869 -4.99535,-0.04626 2.5422,-4.305487 z"
             id="path139" /><path
             style="color:#000000;fill:#8eb4e3;fill-rule:evenodd;-inkscape-stroke:none"
             d="m 682.25781,59.789062 -3.1289,5.300782 6.14843,0.05664 z m -0.0137,1.333985 1.88672,3.345703 -3.83984,-0.03516 z"
             id="path140" /></g></g></g><g
       id="path4-0-2"><path
         style="color:#000000;fill:#95b3d6;-inkscape-stroke:none"
         d="m 702.68359,58.097656 c -1.77365,-0.373137 -3.97858,0.201131 -7.83007,1.013672 -3.1358,0.661555 -4.7657,1.627518 -5.61719,2.505859 -0.42575,0.439171 -0.65214,0.855232 -0.76172,1.185547 -0.0548,0.165158 -0.0799,0.30781 -0.0879,0.429688 -0.004,0.06094 -0.006,0.114808 0.002,0.179687 0.004,0.03244 0.009,0.06586 0.0273,0.121094 0.009,0.02762 0.0209,0.0608 0.0508,0.109375 0.0149,0.02429 0.0659,0.08537 0.0664,0.08594 5.5e-4,5.7e-4 0.14007,0.103238 0.14063,0.103515 l 0.44726,-0.894531 c -5.5e-4,-2.77e-4 0.13531,0.10018 0.13477,0.09961 -5.5e-4,-5.7e-4 0.0506,0.05947 0.0644,0.08203 0.0278,0.04513 0.0376,0.07381 0.0449,0.0957 0.0147,0.04379 0.0141,0.062 0.0156,0.07422 0.003,0.02443 10e-4,0.01985 0.002,0.0078 0.002,-0.02407 0.0112,-0.08972 0.041,-0.179688 0.0597,-0.179926 0.20131,-0.464344 0.53125,-0.804687 0.65987,-0.680687 2.09439,-1.587413 5.10547,-2.222656 3.86271,-0.814908 6.035,-1.304206 7.41601,-1.013672 0.69051,0.145267 1.21212,0.453287 1.77539,1.066406 0.56328,0.613119 1.14482,1.539138 1.84375,2.84375 0.40745,0.760544 0.54915,1.377517 0.52149,1.873047 -0.0277,0.49553 -0.21109,0.888855 -0.54883,1.255859 -0.67549,0.734009 -2.02664,1.290607 -3.63672,1.636719 -3.22016,0.692223 -7.36395,0.615146 -9.16016,0.701172 l 0.0488,0.998047 c 1.6876,-0.08082 5.91508,0.0094 9.32031,-0.722656 1.70262,-0.366004 3.22756,-0.920031 4.16211,-1.935547 0.46728,-0.507759 0.77181,-1.147986 0.8125,-1.876953 0.0407,-0.728968 -0.16851,-1.528399 -0.63671,-2.402344 -0.71407,-1.332856 -1.32278,-2.320352 -1.99024,-3.046875 -0.66746,-0.726524 -1.41786,-1.182572 -2.30469,-1.369141 z"
         id="path145" /><g
         id="g142"><g
           id="path142"><path
             style="color:#000000;fill:#95b3d6;fill-rule:evenodd;-inkscape-stroke:none"
             d="m 690.41379,69.089642 4.20046,-2.704038 0.23919,4.994276 z"
             id="path143" /><path
             style="color:#000000;fill:#95b3d6;fill-rule:evenodd;-inkscape-stroke:none"
             d="m 694.91992,65.792969 -5.17187,3.328125 5.46679,2.820312 z m -0.61133,1.185547 0.1836,3.839843 -3.41407,-1.761718 z"
             id="path144" /></g></g></g><g
       id="path4-0-2-1"><path
         style="color:#000000;fill:#376092;-inkscape-stroke:none"
         d="m 701.99219,53.302734 c -4.05224,0.283877 -7.89707,1.409939 -9.99414,2.25586 -1.81642,0.732705 -2.84086,2.433987 -3.42578,3.90039 -0.58493,1.466404 -0.74415,2.761719 -0.74415,2.761719 l 0.99219,0.123047 c 0,0 0.14851,-1.179071 0.68164,-2.515625 0.53313,-1.336554 1.4378,-2.764423 2.86914,-3.341797 2.64691,-1.067714 8.50499,-2.659468 13.58594,-2.150391 2.54047,0.254539 4.87306,1.024975 6.56641,2.583985 1.69334,1.55901 2.79697,3.917985 2.83203,7.53125 0.0309,3.188586 -1.84209,5.043796 -4.33594,6.207031 -2.49385,1.163235 -5.58347,1.529297 -7.6543,1.529297 -6.9948,0 -10.27929,-0.90625 -10.27929,-0.90625 l -0.26367,0.962891 c 0,0 3.4606,0.943359 10.54296,0.943359 2.18488,0 5.37227,-0.361832 8.07618,-1.623047 2.7039,-1.261215 4.94894,-3.526069 4.91406,-7.123047 -0.037,-3.816523 -1.24831,-6.501226 -3.15625,-8.257812 -1.90795,-1.756587 -4.4638,-2.575354 -7.14258,-2.84375 -1.33939,-0.134198 -2.71371,-0.131735 -4.06445,-0.03711 z"
         id="path149" /><g
         id="g146"><g
           id="path146"><path
             style="color:#000000;fill:#376092;fill-rule:evenodd;-inkscape-stroke:none"
             d="m 690.1715,70.999896 4.83207,-1.267591 -1.32191,4.82209 z"
             id="path147" /><path
             style="color:#000000;fill:#376092;fill-rule:evenodd;-inkscape-stroke:none"
             d="m 695.47852,69.263672 -5.94922,1.560547 4.32031,4.375 z m -0.94922,0.9375 -1.01758,3.708984 -2.69922,-2.734375 z"
             id="path148" /></g></g></g><g
       id="text4-7-1"><path
         style="color:#000000;-inkscape-font-specification:'Times New Roman, ';fill:#000000;-inkscape-stroke:none"
         d="m 711.16084,66.798619 -0.29456,0.809253 h -2.48046 V 67.49315 q 1.0945,-0.998388 1.54099,-1.630908 0.44648,-0.632519 0.44648,-1.156518 0,-0.399976 -0.24495,-0.657325 -0.24494,-0.257348 -0.58601,-0.257348 -0.31005,0 -0.5581,0.182934 -0.24495,0.179834 -0.36277,0.530201 h -0.11472 q 0.0775,-0.573609 0.39687,-0.880567 0.32246,-0.306958 0.80306,-0.306958 0.51159,0 0.85266,0.328662 0.34416,0.328662 0.34416,0.775147 0,0.31936 -0.14883,0.63872 -0.22944,0.502295 -0.74414,1.063501 -0.77204,0.84336 -0.96428,1.016993 h 1.09761 q 0.33486,0 0.46819,-0.02481 0.13642,-0.02481 0.24494,-0.09922 0.10852,-0.07751 0.18914,-0.217041 z"
         id="path150" /><path
         style="color:#000000;-inkscape-font-specification:'Times New Roman, ';fill:#000000;-inkscape-stroke:none"
         d="m 709.70703,63.267578 c -0.33104,0 -0.61393,0.107121 -0.83789,0.320313 -0.22267,0.21402 -0.35938,0.519892 -0.41211,0.910156 l -0.008,0.05664 h 0.20898 l 0.01,-0.03516 c 0.076,-0.226105 0.19181,-0.392874 0.3457,-0.505859 0.15736,-0.11605 0.33243,-0.171875 0.5293,-0.171875 0.2148,0 0.39352,0.07706 0.54883,0.240234 0.15438,0.162196 0.23242,0.366604 0.23242,0.623047 0,0.335131 -0.1436,0.712542 -0.4375,1.128906 -0.29371,0.41608 -0.80687,0.958718 -1.53516,1.623047 l -0.0156,0.01367 v 0.1875 h 2.56445 l 0.33203,-0.910156 h -0.21484 l -0.0156,0.02539 c -0.0509,0.08808 -0.10826,0.154343 -0.17383,0.201172 -0.0664,0.04555 -0.14002,0.07641 -0.2246,0.0918 -0.0815,0.01516 -0.23698,0.02344 -0.45899,0.02344 h -0.98047 c 0.15126,-0.144341 0.41239,-0.419709 0.88281,-0.933594 0.34566,-0.376886 0.598,-0.734858 0.75391,-1.076172 0.10192,-0.21869 0.15234,-0.439483 0.15234,-0.660156 0,-0.310503 -0.12175,-0.583629 -0.35937,-0.810547 -0.23637,-0.227775 -0.53495,-0.341797 -0.88672,-0.341797 z m 0,0.09961 c 0.33035,0 0.59998,0.104013 0.81836,0.314454 0.22126,0.211297 0.32813,0.453472 0.32813,0.738281 0,0.205139 -0.048,0.410065 -0.14454,0.617187 v 0.002 c -0.15001,0.328412 -0.39376,0.679394 -0.73437,1.050782 -0.51445,0.561975 -0.83795,0.90259 -0.96094,1.013672 l -0.0977,0.08594 h 1.22851 c 0.22448,0 0.38028,-0.0075 0.47656,-0.02539 0.0973,-0.0177 0.18541,-0.05375 0.26368,-0.107421 h 0.002 c 0.0713,-0.05093 0.13061,-0.124233 0.18359,-0.208985 h 0.0195 l -0.25781,0.710938 h -2.39648 v -0.04492 c 0.7197,-0.657949 1.23259,-1.199956 1.53125,-1.623047 0.3014,-0.426993 0.45703,-0.822014 0.45703,-1.185547 0,-0.276857 -0.0875,-0.51047 -0.25977,-0.691406 -0.17128,-0.17996 -0.38114,-0.273438 -0.62109,-0.273438 -0.21653,0 -0.41452,0.0655 -0.58789,0.19336 -0.16227,0.119135 -0.27607,0.301178 -0.35742,0.521484 h -0.0156 c 0.0569,-0.338084 0.16584,-0.612658 0.35547,-0.794922 0.20599,-0.196085 0.45978,-0.292969 0.76953,-0.292969 z"
         id="path151" /></g><g
       id="text4-7-1-3"><path
         style="color:#000000;-inkscape-font-specification:'Times New Roman, ';fill:#000000;-inkscape-stroke:none"
         d="m 708.57185,49.793837 q 0.17983,-0.42478 0.45269,-0.654224 0.27595,-0.232544 0.68523,-0.232544 0.50539,0 0.77514,0.328663 0.20464,0.244946 0.20464,0.523999 0,0.458886 -0.57671,0.948779 0.38758,0.151929 0.58601,0.434082 0.19844,0.282153 0.19844,0.663525 0,0.545703 -0.34727,0.945679 -0.45268,0.520898 -1.31154,0.520898 -0.42478,0 -0.57981,-0.10542 -0.15193,-0.105419 -0.15193,-0.226342 0,-0.08992 0.0713,-0.15813 0.0744,-0.06821 0.17674,-0.06821 0.0775,0 0.15813,0.02481 0.0527,0.0155 0.23874,0.114721 0.18604,0.09612 0.25735,0.114722 0.11472,0.03411 0.24495,0.03411 0.31625,0 0.5488,-0.244946 0.23564,-0.244946 0.23564,-0.579809 0,-0.244947 -0.10852,-0.477491 -0.0806,-0.173632 -0.17673,-0.263549 -0.13333,-0.124024 -0.36587,-0.223243 -0.23254,-0.102319 -0.47439,-0.102319 h -0.0992 v -0.09302 q 0.24495,-0.03101 0.48989,-0.176733 0.24805,-0.145727 0.35967,-0.350366 0.11162,-0.204639 0.11162,-0.449585 0,-0.31936 -0.20153,-0.514697 -0.19844,-0.198438 -0.4961,-0.198438 -0.48059,0 -0.80305,0.514697 z"
         id="path152" /><path
         style="color:#000000;-inkscape-font-specification:'Times New Roman, ';fill:#000000;-inkscape-stroke:none"
         d="m 709.70898,48.857422 c -0.28232,0 -0.52351,0.08126 -0.71679,0.24414 -0.1894,0.159263 -0.34463,0.383305 -0.4668,0.671875 l -0.0176,0.04492 0.043,0.01953 0.14258,0.07031 0.0234,-0.03906 c 0.20904,-0.333661 0.45722,-0.490235 0.75976,-0.490235 0.18733,0 0.33749,0.06014 0.46094,0.183594 h 0.002 c 0.12458,0.120747 0.18555,0.276127 0.18555,0.478516 0,0.155702 -0.0351,0.296717 -0.10547,0.425781 -0.0693,0.127137 -0.18242,0.238398 -0.3418,0.332031 -0.15833,0.0942 -0.31502,0.150214 -0.4707,0.169922 l -0.043,0.0059 v 0.1875 h 0.14844 c 0.15418,0 0.3059,0.03202 0.45508,0.09766 0.15128,0.06455 0.26842,0.137505 0.35156,0.214843 0.0575,0.05374 0.11409,0.136189 0.16602,0.248047 0.0695,0.148933 0.10351,0.299164 0.10351,0.455078 0,0.211514 -0.0735,0.389829 -0.22265,0.544922 -0.14725,0.15509 -0.3138,0.230469 -0.51172,0.230469 -0.0825,0 -0.15895,-0.01 -0.23047,-0.03125 l -0.002,-0.002 c -0.0372,-0.0097 -0.12449,-0.04665 -0.24609,-0.109375 h -0.002 c -0.12338,-0.06577 -0.19884,-0.105242 -0.2461,-0.119141 -0.058,-0.01786 -0.11682,-0.02734 -0.17382,-0.02734 -0.0793,0 -0.15097,0.02884 -0.20899,0.08203 h -0.002 c -0.0555,0.05306 -0.0859,0.12215 -0.0859,0.195312 0,0.101556 0.0652,0.192195 0.17383,0.267578 0.12091,0.08222 0.3201,0.113282 0.60742,0.113282 0.58268,0 1.03755,-0.178027 1.34961,-0.53711 0.23889,-0.27515 0.35938,-0.604108 0.35938,-0.978515 0,-0.26292 -0.0686,-0.496587 -0.20704,-0.69336 -0.12845,-0.18265 -0.32687,-0.315214 -0.56445,-0.417969 0.35181,-0.314119 0.56445,-0.625591 0.56445,-0.935546 0,-0.198258 -0.0744,-0.386174 -0.21679,-0.556641 -0.18955,-0.230945 -0.46669,-0.345703 -0.81446,-0.345703 z m 0,0.09961 c 0.32609,0 0.56621,0.103275 0.73633,0.310547 h 0.002 c 0.13043,0.156128 0.1914,0.318375 0.1914,0.492188 0,0.284977 -0.17999,0.588548 -0.55859,0.910156 l -0.0625,0.05469 0.0762,0.03125 c 0.25129,0.09851 0.43855,0.23699 0.56445,0.416016 0.1262,0.179431 0.18946,0.38919 0.18946,0.634766 0,0.353195 -0.11181,0.653959 -0.33594,0.912109 -0.29152,0.335448 -0.71097,0.503906 -1.27344,0.503906 -0.27905,0 -0.46499,-0.03932 -0.55078,-0.09766 -0.0925,-0.06465 -0.13086,-0.124338 -0.13086,-0.183594 0,-0.04673 0.017,-0.08516 0.0566,-0.123047 0.0406,-0.03647 0.0844,-0.05469 0.14063,-0.05469 0.0463,0 0.0951,0.0082 0.14453,0.02344 0.0227,0.0067 0.10722,0.04559 0.23047,0.111328 0.12441,0.06428 0.20802,0.103913 0.26562,0.119141 0.0814,0.02421 0.16858,0.03516 0.25977,0.03516 0.22374,0 0.42116,-0.08826 0.58398,-0.259765 0.16499,-0.171501 0.25,-0.380265 0.25,-0.615235 0,-0.170681 -0.0381,-0.336921 -0.11328,-0.498047 -0.0555,-0.11965 -0.11678,-0.213146 -0.1875,-0.279296 -0.0946,-0.08803 -0.22209,-0.164679 -0.38086,-0.232422 -0.16087,-0.07079 -0.32586,-0.105469 -0.49414,-0.105469 h -0.0488 v -0.0098 c 0.1563,-0.026 0.31084,-0.07635 0.46485,-0.167968 0.17135,-0.10067 0.29942,-0.223426 0.3789,-0.369141 0.0784,-0.143788 0.11719,-0.303717 0.11719,-0.474609 0,-0.223424 -0.0727,-0.409126 -0.2168,-0.548829 -0.14113,-0.14113 -0.3217,-0.21289 -0.53125,-0.21289 -0.32104,0 -0.58678,0.191256 -0.80273,0.509765 l -0.0293,-0.01563 c 0.11372,-0.25291 0.24847,-0.458098 0.41211,-0.595703 0.17465,-0.147179 0.38896,-0.220703 0.65234,-0.220703 z"
         id="path153" /></g><g
       id="text4-7"><path
         style="color:#000000;-inkscape-font-specification:'Times New Roman, ';fill:#000000;-inkscape-stroke:none"
         d="m 662.2912,52.25865 1.02319,-0.499194 h 0.10232 v 3.550171 q 0,0.353467 0.0279,0.440283 0.031,0.08682 0.12402,0.133325 0.093,0.04651 0.37827,0.05271 v 0.114722 h -1.5813 v -0.114722 q 0.29766,-0.0062 0.38448,-0.04961 0.0868,-0.04651 0.12092,-0.120923 0.0341,-0.07752 0.0341,-0.455786 v -2.269629 q 0,-0.458887 -0.031,-0.589111 -0.0217,-0.09922 -0.0806,-0.145728 -0.0558,-0.04651 -0.13642,-0.04651 -0.11472,0 -0.31936,0.09612 z"
         id="path154" /><path
         style="color:#000000;-inkscape-font-specification:'Times New Roman, ';fill:#000000;-inkscape-stroke:none"
         d="m 663.30273,51.708984 -1.07812,0.527344 0.0898,0.185547 0.0449,-0.02148 c 0.13318,-0.06255 0.23436,-0.0918 0.29688,-0.0918 0.0441,0 0.0774,0.01173 0.10547,0.03516 0.028,0.02214 0.0516,0.05867 0.0645,0.117187 v 0.002 c 0.0176,0.07394 0.0293,0.271373 0.0293,0.576171 v 2.271485 c 0,0.125337 -0.002,0.224916 -0.008,0.298828 -0.005,0.07288 -0.0161,0.121767 -0.0215,0.134766 -0.0177,0.03859 -0.0491,0.0706 -0.0996,0.09766 -0.039,0.01906 -0.16625,0.04086 -0.36133,0.04492 h -0.0488 v 0.214843 h 1.67968 v -0.214843 h -0.0488 c -0.18759,-0.0041 -0.31097,-0.02657 -0.35547,-0.04883 -0.0524,-0.02617 -0.0832,-0.05857 -0.0996,-0.103516 v -0.002 c -0.0125,-0.03991 -0.0254,-0.188622 -0.0254,-0.421875 v -3.601563 z m 0.0234,0.09961 h 0.041 v 3.501953 c 0,0.23696 0.005,0.378383 0.0293,0.455078 l 0.002,0.002 c 0.025,0.07013 0.0773,0.124581 0.14843,0.160156 0.0697,0.03488 0.19438,0.04478 0.34961,0.05078 V 56 h -1.48046 v -0.01953 c 0.16134,-0.0056 0.28733,-0.01476 0.35546,-0.04883 h 0.002 v -0.002 c 0.0652,-0.03496 0.11478,-0.08196 0.14258,-0.142578 v -0.002 c 0.0174,-0.03956 0.0254,-0.08995 0.0312,-0.167969 0.006,-0.07802 0.008,-0.1798 0.008,-0.30664 v -2.271485 c 0,-0.30705 -0.009,-0.499922 -0.0332,-0.599609 h 0.002 c -0.0159,-0.0728 -0.0483,-0.13199 -0.0977,-0.171875 -0.0463,-0.03859 -0.10656,-0.05859 -0.16992,-0.05859 -0.0775,0 -0.17833,0.03726 -0.29102,0.08594 l -0.008,-0.01367 z"
         id="path155" /></g><g
       id="path5-9"><path
         style="color:#000000;fill:#000000;stroke-dasharray:0.499999, 0.499999;-inkscape-stroke:none"
         d="m 647.34865,71.911129 v 7.90203"
         id="path156" /><path
         style="color:#000000;fill:#000000;stroke-dasharray:0.499999, 0.499999;-inkscape-stroke:none"
         d="m 647.09961,71.910156 v 0.5 h 0.5 v -0.5 z m 0,1 v 0.5 h 0.5 v -0.5 z m 0,1 v 0.5 h 0.5 v -0.5 z m 0,1 v 0.5 h 0.5 v -0.5 z m 0,1 v 0.5 h 0.5 v -0.5 z m 0,1 v 0.5 h 0.5 v -0.5 z m 0,1 v 0.5 h 0.5 v -0.5 z m 0,1 v 0.5 h 0.5 v -0.5 z"
         id="path157" /></g><g
       id="path5-9-5"><path
         style="color:#000000;fill:#000000;stroke-dasharray:0.499999, 0.499999;-inkscape-stroke:none"
         d="m 687.79559,69.003789 v 10.80937"
         id="path158" /><path
         style="color:#000000;fill:#000000;stroke-dasharray:0.499999, 0.499999;-inkscape-stroke:none"
         d="m 687.54492,69.003906 v 0.5 h 0.5 v -0.5 z m 0,1 v 0.5 h 0.5 v -0.5 z m 0,1 v 0.5 h 0.5 v -0.5 z m 0,1 v 0.5 h 0.5 v -0.5 z m 0,1 v 0.5 h 0.5 v -0.5 z m 0,1 v 0.5 h 0.5 v -0.5 z m 0,1 v 0.5 h 0.5 v -0.5 z m 0,1 v 0.5 h 0.5 v -0.5 z m 0,1 v 0.5 h 0.5 v -0.5 z m 0,1 v 0.5 h 0.5 v -0.5 z m 0,1 v 0.5 h 0.5 v -0.5 z"
         id="path159" /></g><g
       id="path5-8-8"><path
         style="color:#000000;fill:#000000;stroke-dasharray:0.499999, 0.499999;-inkscape-stroke:none"
         d="m 729.49166,58.699119 v 21.11404"
         id="path160" /><path
         style="color:#000000;fill:#000000;stroke-dasharray:0.499999, 0.499999;-inkscape-stroke:none"
         d="m 729.24219,58.699219 v 0.5 h 0.5 v -0.5 z m 0,1 v 0.5 h 0.5 v -0.5 z m 0,1 v 0.5 h 0.5 v -0.5 z m 0,1 v 0.5 h 0.5 v -0.5 z m 0,1 v 0.5 h 0.5 v -0.5 z m 0,1 v 0.5 h 0.5 v -0.5 z m 0,1 v 0.5 h 0.5 v -0.5 z m 0,1 v 0.5 h 0.5 v -0.5 z m 0,1 v 0.5 h 0.5 v -0.5 z m 0,1 v 0.5 h 0.5 v -0.5 z m 0,1 v 0.5 h 0.5 v -0.5 z m 0,1 v 0.5 h 0.5 v -0.5 z m 0,1 v 0.5 h 0.5 v -0.5 z m 0,1 v 0.5 h 0.5 v -0.5 z m 0,1 v 0.5 h 0.5 v -0.5 z m 0,1 v 0.5 h 0.5 v -0.5 z m 0,1 v 0.5 h 0.5 v -0.5 z m 0,1 v 0.5 h 0.5 v -0.5 z m 0,1 v 0.5 h 0.5 v -0.5 z m 0,1 v 0.5 h 0.5 v -0.5 z m 0,1 v 0.5 h 0.5 v -0.5 z m 0,1 V 79.8125 h 0.5 v -0.113281 z"
         id="path161" /></g><g
       id="text6-1"
       style="font-size:7.05556px;font-family:'Times New Roman';-inkscape-font-specification:'Times New Roman, ';stroke:#000000;stroke-width:0.1"
       aria-label="ti"><g
         id="path162"><path
           style="color:#000000;-inkscape-font-specification:'Times New Roman, ';fill:#000000;stroke:none;-inkscape-stroke:none"
           d="m 646.00163,83.310192 v 1.036975 h 0.73725 v 0.241157 h -0.73725 v 2.046388 q 0,0.306613 0.0861,0.413411 0.0896,0.106798 0.22737,0.106798 0.11369,0 0.22049,-0.0689 0.1068,-0.07235 0.16536,-0.210151 h 0.13436 q -0.12058,0.33762 -0.34106,0.509875 -0.22049,0.16881 -0.45476,0.16881 -0.15847,0 -0.31005,-0.08613 -0.15159,-0.08957 -0.22394,-0.251492 -0.0723,-0.165365 -0.0723,-0.506429 v -2.12218 h -0.49954 v -0.113689 q 0.18948,-0.07579 0.38585,-0.254937 0.19981,-0.18259 0.35484,-0.430637 0.0792,-0.130914 0.22049,-0.478869 z"
           id="path164" /><path
           style="color:#000000;-inkscape-font-specification:'Times New Roman, ';fill:#000000;stroke:none;-inkscape-stroke:none"
           d="m 645.86133,83.259766 -0.0137,0.03125 c -0.0938,0.230977 -0.16734,0.390899 -0.2168,0.472656 -0.10079,0.16082 -0.21672,0.302053 -0.3457,0.419922 -0.1276,0.1164 -0.24991,0.196447 -0.36914,0.24414 l -0.0332,0.01367 v 0.197266 h 0.5 v 2.072265 c 0,0.230909 0.0229,0.403587 0.0762,0.525391 v 0.002 c 0.0521,0.116688 0.13472,0.208784 0.24414,0.273438 h 0.002 c 0.10756,0.06112 0.21928,0.09375 0.33398,0.09375 0.16819,0 0.33255,-0.06195 0.48633,-0.179688 0.15599,-0.121871 0.2747,-0.301569 0.35742,-0.533203 l 0.0234,-0.06641 h -0.23828 l -0.0137,0.0293 c -0.036,0.0847 -0.084,0.147107 -0.14649,0.189453 -0.0644,0.04155 -0.12766,0.06055 -0.19336,0.06055 -0.0789,0 -0.13587,-0.02831 -0.1875,-0.08984 -0.0424,-0.05348 -0.0762,-0.182111 -0.0762,-0.380859 v -1.996094 h 0.73828 v -0.341797 h -0.73828 v -1.037109 z m 0.0664,0.09961 h 0.0234 v 1.037109 h 0.73828 v 0.142578 h -0.73828 v 2.095704 c 0,0.209088 0.0256,0.355912 0.0977,0.445312 0.0678,0.08087 0.16086,0.125 0.26562,0.125 0.0859,0 0.17006,-0.02586 0.24805,-0.07617 v -0.002 h 0.002 c 0.069,-0.04673 0.11538,-0.120485 0.15625,-0.201172 h 0.0234 c -0.0746,0.175074 -0.16216,0.326879 -0.28125,0.419922 -0.14021,0.107344 -0.27966,0.158203 -0.42383,0.158203 -0.0966,0 -0.19061,-0.0244 -0.28515,-0.07813 -0.0927,-0.05477 -0.1588,-0.129307 -0.20313,-0.228515 -0.0431,-0.09868 -0.0684,-0.262486 -0.0684,-0.486329 v -2.171875 h -0.49805 V 84.5 c 0.12288,-0.05426 0.2455,-0.131343 0.36915,-0.244141 0.13677,-0.124988 0.25773,-0.270577 0.36328,-0.439453 v -0.002 c 0.0526,-0.08689 0.12488,-0.245603 0.21093,-0.455078 z"
           id="path165" /></g><g
         id="path163"><path
           style="color:#000000;-inkscape-font-specification:'Times New Roman, ';fill:#000000;stroke:none;-inkscape-stroke:none"
           d="m 647.8482,84.015059 q 0.14469,0 0.2446,0.103353 0.10336,0.09991 0.10336,0.244602 0,0.144694 -0.10336,0.248047 -0.0999,0.103353 -0.2446,0.103353 -0.14469,0 -0.24805,-0.103353 -0.10335,-0.103353 -0.10335,-0.248047 0,-0.144694 0.0999,-0.244602 0.10335,-0.103353 0.25149,-0.103353 z m 0.28594,1.650202 v 2.535592 q 0,0.296279 0.0413,0.396186 0.0448,0.09646 0.12746,0.144694 0.0861,0.04823 0.31006,0.04823 v 0.124023 h -1.53307 v -0.124023 q 0.23083,0 0.31006,-0.04479 0.0792,-0.04479 0.12403,-0.14814 0.0482,-0.103353 0.0482,-0.396186 v -1.216119 q 0,-0.51332 -0.031,-0.664904 -0.0241,-0.110243 -0.0758,-0.151585 -0.0517,-0.04479 -0.14125,-0.04479 -0.0965,0 -0.23427,0.05168 l -0.0482,-0.124024 0.95085,-0.385851 z"
           id="path166" /><path
           style="color:#000000;-inkscape-font-specification:'Times New Roman, ';fill:#000000;stroke:none;-inkscape-stroke:none"
           d="m 647.84766,83.964844 0.0215,0.109375 c 0.0724,0.0052 0.13534,0.02416 0.1875,0.07813 v 0.002 h 0.002 c 0.0602,0.05822 0.0879,0.124429 0.0879,0.208984 0,0.08456 -0.0292,0.152238 -0.0898,0.212891 -0.0218,0.02255 -0.0536,0.01949 -0.0781,0.0332 l 0.0195,0.0918 c 0.0434,-0.01982 0.096,-0.01858 0.13086,-0.05469 0.0771,-0.07715 0.11718,-0.174835 0.11718,-0.283203 0,-0.107458 -0.0409,-0.204567 -0.11718,-0.279297 -0.075,-0.07757 -0.17289,-0.11914 -0.28125,-0.11914 z m -0.28711,0.11914 c -0.0751,0.07514 -0.11328,0.171328 -0.11328,0.279297 0,0.108367 0.04,0.206052 0.11718,0.283203 0.0739,0.07386 0.16862,0.108002 0.27149,0.111328 -0.0203,-0.0599 -0.0296,-0.06365 -0.0488,-0.11914 -0.0541,-0.0117 -0.10898,-0.01914 -0.15234,-0.0625 -0.0607,-0.06065 -0.0879,-0.128333 -0.0879,-0.212891 0,-0.06355 0.0325,-0.109237 0.0645,-0.15625 -0.0105,-0.01393 -0.0446,-0.129275 -0.0508,-0.123047 z m 0.41211,1.53125 -1.00586,0.408203 0.084,0.216797 0.0469,-0.01758 c 0.0883,-0.03311 0.16139,-0.04883 0.21679,-0.04883 0.0514,0 0.0838,0.01075 0.10742,0.03125 l 0.002,0.002 c 0.0205,0.01639 0.0438,0.05557 0.0586,0.123047 0.0184,0.0902 0.0293,0.313091 0.0293,0.654297 v 1.216797 c 0,0.192478 -0.0185,0.322491 -0.043,0.375 -0.0267,0.06146 -0.0615,0.101262 -0.10352,0.125 -0.0347,0.01962 -0.1345,0.03906 -0.28515,0.03906 h -0.0508 v 0.22461 h 1.63281 v -0.22461 h -0.0488 c -0.14572,0 -0.24388,-0.01985 -0.28516,-0.04297 -0.0449,-0.02656 -0.0815,-0.06393 -0.10742,-0.119141 v -0.002 c -0.0207,-0.05105 -0.0371,-0.180806 -0.0371,-0.375 v -2.585938 h -0.0488 z m 0.0195,0.09961 h 0.0918 v 2.486328 c 0,0.199842 0.0107,0.331331 0.0449,0.414062 v 0.002 h 0.002 c 0.0335,0.07207 0.0822,0.130483 0.14648,0.167969 h 0.002 c 0.0624,0.03494 0.16486,0.04314 0.2832,0.04687 v 0.03125 h -1.43164 v -0.03125 c 0.12049,-0.0032 0.22306,-0.009 0.2832,-0.04297 0.0629,-0.03554 0.11145,-0.09492 0.14453,-0.169921 0.0398,-0.0853 0.0527,-0.220004 0.0527,-0.417969 v -1.216797 c 0,-0.34322 -0.008,-0.561918 -0.0312,-0.673828 v -0.002 c -0.0172,-0.07847 -0.0445,-0.138916 -0.0918,-0.177735 -4.6e-4,-3.98e-4 -10e-4,3.94e-4 -0.002,0 -0.0451,-0.03839 -0.10453,-0.05664 -0.17188,-0.05664 -0.0591,0 -0.12987,0.02132 -0.20312,0.04492 l -0.0156,-0.04102 z"
           id="path167" /></g></g><g
       id="text6-4-1"
       style="font-size:7.05556px;font-family:'Times New Roman';-inkscape-font-specification:'Times New Roman, ';stroke:#000000;stroke-width:0.1"
       aria-label="ti+1&#10;"><g
         id="path168"><path
           style="color:#000000;-inkscape-font-specification:'Times New Roman, ';fill:#000000;stroke:none;-inkscape-stroke:none"
           d="m 725.54252,83.310192 v 1.036975 h 0.73725 v 0.241157 h -0.73725 v 2.046388 q 0,0.306613 0.0861,0.413411 0.0896,0.106798 0.22738,0.106798 0.11368,0 0.22048,-0.0689 0.1068,-0.07235 0.16537,-0.210151 h 0.13436 q -0.12058,0.33762 -0.34107,0.509875 -0.22049,0.16881 -0.45475,0.16881 -0.15848,0 -0.31006,-0.08613 -0.15159,-0.08957 -0.22393,-0.251492 -0.0724,-0.165365 -0.0724,-0.506429 v -2.12218 h -0.49954 v -0.113689 q 0.18948,-0.07579 0.38585,-0.254937 0.19982,-0.18259 0.35485,-0.430637 0.0792,-0.130914 0.22048,-0.478869 z"
           id="path170" /><path
           style="color:#000000;-inkscape-font-specification:'Times New Roman, ';fill:#000000;stroke:none;-inkscape-stroke:none"
           d="m 725.40234,83.259766 -0.0137,0.03125 c -0.0938,0.230977 -0.16733,0.3909 -0.2168,0.472656 -0.10095,0.161283 -0.21641,0.301785 -0.3457,0.419922 -0.12759,0.1164 -0.25185,0.196447 -0.37109,0.24414 l -0.0312,0.01367 v 0.197266 h 0.5 v 2.072265 c 0,0.230914 0.0228,0.403579 0.0762,0.525391 v 0.002 c 0.0521,0.116689 0.13472,0.208784 0.24414,0.273438 h 0.002 c 0.10756,0.06112 0.21928,0.09375 0.33399,0.09375 0.16818,0 0.33255,-0.06195 0.48633,-0.179688 0.15599,-0.121871 0.27469,-0.301569 0.35742,-0.533203 l 0.0234,-0.06641 h -0.23829 l -0.0137,0.0293 c -0.036,0.0847 -0.084,0.147106 -0.14648,0.189453 -0.0644,0.04155 -0.12768,0.06055 -0.19336,0.06055 -0.078,0 -0.13635,-0.02796 -0.1875,-0.08789 v -0.002 c -0.0424,-0.05348 -0.0762,-0.182111 -0.0762,-0.380859 v -1.996094 h 0.73828 v -0.341797 h -0.73828 v -1.037109 z m 0.0664,0.09961 h 0.0234 v 1.037109 h 0.73828 v 0.142578 h -0.73828 v 2.095704 c 0,0.209088 0.0256,0.355912 0.0976,0.445312 0.0679,0.08087 0.16086,0.125 0.26563,0.125 0.0859,0 0.17005,-0.02586 0.24805,-0.07617 v -0.002 h 0.002 c 0.069,-0.04673 0.11537,-0.120486 0.15625,-0.201172 h 0.0234 c -0.0746,0.175074 -0.16216,0.326879 -0.28125,0.419922 -0.14021,0.107344 -0.27967,0.158203 -0.42383,0.158203 -0.0966,0 -0.19061,-0.0244 -0.28516,-0.07813 -0.0927,-0.05477 -0.1588,-0.129308 -0.20312,-0.228515 -0.0432,-0.09868 -0.0684,-0.262491 -0.0684,-0.486329 v -2.171875 h -0.49805 V 84.5 c 0.12246,-0.05428 0.24592,-0.131724 0.36914,-0.244141 0.13678,-0.124988 0.25773,-0.270577 0.36328,-0.439453 v -0.002 c 0.0526,-0.08689 0.12489,-0.245603 0.21094,-0.455078 z"
           id="path172" /></g><g
         id="path169"><path
           style="color:#000000;-inkscape-font-specification:'Times New Roman, ';fill:#000000;stroke:none;-inkscape-stroke:none"
           d="m 727.38909,84.015059 q 0.1447,0 0.24461,0.103353 0.10335,0.09991 0.10335,0.244602 0,0.144694 -0.10335,0.248047 -0.0999,0.103353 -0.24461,0.103353 -0.14469,0 -0.24804,-0.103353 -0.10336,-0.103353 -0.10336,-0.248047 0,-0.144694 0.0999,-0.244602 0.10336,-0.103353 0.25149,-0.103353 z m 0.28595,1.650202 v 2.535592 q 0,0.296279 0.0413,0.396186 0.0448,0.09646 0.12747,0.144694 0.0861,0.04823 0.31006,0.04823 v 0.124023 h -1.53307 v -0.124023 q 0.23082,0 0.31006,-0.04479 0.0792,-0.04479 0.12402,-0.14814 0.0482,-0.103353 0.0482,-0.396186 v -1.216119 q 0,-0.51332 -0.031,-0.664904 -0.0241,-0.110243 -0.0758,-0.151585 -0.0517,-0.04479 -0.14125,-0.04479 -0.0965,0 -0.23426,0.05168 l -0.0482,-0.124024 0.95084,-0.385851 z m 2.49425,2.762969 v -1.719104 h -1.71566 v -0.282498 h 1.71566 v -1.712214 h 0.27561 v 1.712214 h 1.72254 v 0.282498 h -1.72254 v 1.719104 z m 2.96278,-3.727596 1.13688,-0.554661 h 0.11369 v 3.944637 q 0,0.392741 0.031,0.489204 0.0344,0.09646 0.1378,0.148139 0.10336,0.05168 0.4203,0.05857 v 0.127468 h -1.757 V 88.78652 q 0.33073,-0.0069 0.4272,-0.05512 0.0965,-0.05168 0.13436,-0.134359 0.0379,-0.08613 0.0379,-0.506429 V 85.5688 q 0,-0.509874 -0.0344,-0.654568 -0.0241,-0.110243 -0.0896,-0.16192 -0.062,-0.05168 -0.15159,-0.05168 -0.12746,0 -0.35484,0.106798 z"
           id="path173" /><path
           style="color:#000000;-inkscape-font-specification:'Times New Roman, ';fill:#000000;stroke:none;-inkscape-stroke:none"
           d="m 727.10156,84.083984 c -0.0751,0.07514 -0.11328,0.171328 -0.11328,0.279297 0,0.108368 0.04,0.206052 0.11719,0.283203 0.0772,0.07715 0.17484,0.117188 0.2832,0.117188 0.10838,0 0.20627,-0.03961 0.28125,-0.117188 0.0771,-0.07715 0.11719,-0.174836 0.11719,-0.283203 0,-0.08507 -0.0453,-0.154738 -0.0937,-0.220703 -0.0284,-0.0015 -0.13224,-0.01498 -0.1543,-0.01563 0.0179,0.01193 0.0422,0.0084 0.0586,0.02539 v 0.002 h 0.002 c 0.0602,0.05822 0.0879,0.124428 0.0879,0.208984 0,0.08456 -0.0292,0.152239 -0.0898,0.212891 -0.0582,0.06023 -0.12442,0.08789 -0.20899,0.08789 -0.0846,0 -0.15224,-0.02724 -0.21289,-0.08789 -0.0607,-0.06065 -0.0879,-0.128334 -0.0879,-0.212891 0,-0.08495 0.0279,-0.150913 0.0859,-0.208984 0.0341,-0.03409 0.08,-0.03646 0.12109,-0.05078 -0.0141,9.81e-4 -0.19085,-0.02204 -0.19336,-0.01953 z m 7.15625,0.01172 -1.19336,0.582031 0.0234,0.04492 0.0723,0.150391 0.0449,-0.01953 c 0.14833,-0.06967 0.26297,-0.103516 0.33398,-0.103516 0.0501,0 0.0869,0.01415 0.11914,0.04102 h 0.002 c 0.0324,0.02559 0.0559,0.06891 0.0703,0.134765 0.0199,0.08361 0.0332,0.303787 0.0332,0.642578 v 2.521485 c 0,0.139348 -0.004,0.251632 -0.01,0.333984 -0.006,0.08235 -0.0168,0.137355 -0.0234,0.152344 -0.0202,0.04408 -0.0544,0.08083 -0.11133,0.111328 -0.0447,0.02236 -0.18809,0.04428 -0.40625,0.04883 l -0.0488,0.002 v 0.226563 h 1.85742 v -0.226563 l -0.0488,-0.002 c -0.2087,-0.0045 -0.34702,-0.02703 -0.39844,-0.05273 -0.0593,-0.02962 -0.0946,-0.06778 -0.11328,-0.119141 v -0.002 c -0.0146,-0.0463 -0.0274,-0.213213 -0.0274,-0.472656 v -3.994141 z m 0.0234,0.09961 h 0.0508 v 3.894532 c 0,0.263142 0.006,0.422733 0.0332,0.505859 h 0.002 c 0.0273,0.07658 0.084,0.138711 0.16211,0.177734 0.0768,0.03841 0.21653,0.04814 0.39257,0.05469 v 0.03516 h -1.65625 v -0.03516 c 0.18155,-0.0062 0.32405,-0.01555 0.39844,-0.05273 h 0.002 c 0.0717,-0.03841 0.12595,-0.09205 0.15625,-0.158204 0.0187,-0.04243 0.0267,-0.09909 0.0332,-0.185546 0.006,-0.08646 0.008,-0.200946 0.008,-0.341797 v -2.521485 c 0,-0.340042 -0.009,-0.554441 -0.0352,-0.664062 v -0.002 c -0.0176,-0.07929 -0.0521,-0.144509 -0.10546,-0.1875 -0.0504,-0.04204 -0.11426,-0.06445 -0.1836,-0.06445 -0.0862,0 -0.20043,0.042 -0.32812,0.09766 l -0.0117,-0.02344 z m -4.16211,0.46875 v 1.712891 h -1.71484 v 0.382813 h 1.71484 v 1.71875 h 0.0508 0.32422 v -1.71875 h 1.72266 v -0.382813 h -1.72266 v -1.712891 z m 0.0996,0.09961 h 0.17578 v 1.71289 h 1.72266 v 0.181641 h -1.72266 v 1.720703 h -0.17578 v -1.720703 h -1.71484 v -0.181641 h 1.71484 z m -2.70508,0.851562 -1.00586,0.408203 0.084,0.216797 0.0469,-0.01758 c 0.0882,-0.0331 0.16139,-0.04883 0.2168,-0.04883 0.0514,0 0.0838,0.01075 0.10742,0.03125 l 0.002,0.002 c 0.0205,0.01639 0.0439,0.05557 0.0586,0.123047 0.0184,0.0902 0.0293,0.313091 0.0293,0.654297 v 1.216797 c 0,0.192478 -0.0185,0.322491 -0.043,0.375 -0.0267,0.06146 -0.0616,0.101262 -0.10352,0.125 -0.0347,0.01963 -0.13451,0.03906 -0.28516,0.03906 h -0.0508 v 0.22461 h 1.63281 v -0.22461 h -0.0488 c -0.14572,0 -0.24389,-0.01985 -0.28516,-0.04297 -0.045,-0.02656 -0.0815,-0.06393 -0.10742,-0.119141 v -0.002 c -0.0207,-0.05105 -0.0371,-0.180806 -0.0371,-0.375 v -2.585938 h -0.0488 z m 0.0195,0.09961 h 0.0918 v 2.486328 c 0,0.199842 0.0107,0.331331 0.0449,0.414062 v 0.002 h 0.002 c 0.0335,0.07208 0.0822,0.130483 0.14649,0.167969 h 0.002 c 0.0624,0.03494 0.16486,0.04314 0.28321,0.04687 v 0.03125 h -1.4336 v -0.03125 c 0.12177,-0.0031 0.22461,-0.0087 0.28516,-0.04297 0.0629,-0.03554 0.11145,-0.09492 0.14453,-0.169921 0.0398,-0.0853 0.0527,-0.220004 0.0527,-0.417969 v -1.216797 c 0,-0.34322 -0.008,-0.561918 -0.0312,-0.673828 v -0.002 c -0.0172,-0.07847 -0.0445,-0.138916 -0.0918,-0.177735 -4.6e-4,-3.98e-4 -10e-4,3.94e-4 -0.002,0 -0.0451,-0.03839 -0.10453,-0.05664 -0.17187,-0.05664 -0.0591,0 -0.12988,0.02132 -0.20313,0.04492 l -0.0156,-0.04102 z"
           id="path174" /></g></g><g
       id="text6-1-3"
       style="font-size:7.05556px;font-family:'Times New Roman';-inkscape-font-specification:'Times New Roman, ';stroke:#000000;stroke-width:0.1"
       aria-label="ti+t/2"><g
         id="path175"><path
           style="color:#000000;-inkscape-font-specification:'Times New Roman, ';fill:#000000;stroke:none;-inkscape-stroke:none"
           d="m 675.41966,83.804562 v 1.036974 h 0.73725 v 0.241157 h -0.73725 v 2.046388 q 0,0.306614 0.0861,0.413412 0.0896,0.106798 0.22737,0.106798 0.11369,0 0.22049,-0.0689 0.1068,-0.07235 0.16536,-0.210151 h 0.13436 q -0.12058,0.33762 -0.34106,0.509874 -0.22049,0.16881 -0.45476,0.16881 -0.15847,0 -0.31005,-0.08613 -0.15159,-0.08957 -0.22394,-0.251492 -0.0723,-0.165365 -0.0723,-0.50643 v -2.12218 h -0.49954 v -0.113688 q 0.18948,-0.07579 0.38585,-0.254937 0.19981,-0.182591 0.35484,-0.430638 0.0792,-0.130913 0.22049,-0.478868 z"
           id="path178" /><path
           style="color:#000000;-inkscape-font-specification:'Times New Roman, ';fill:#000000;stroke:none;-inkscape-stroke:none"
           d="m 675.2793,83.753906 -0.0137,0.03125 c -0.0938,0.230978 -0.16733,0.390901 -0.21679,0.472656 h 0.002 c -0.10116,0.161854 -0.21802,0.301457 -0.34766,0.419922 -0.12759,0.116401 -0.2499,0.196447 -0.36914,0.244141 l -0.0332,0.01367 v 0.197265 h 0.5 v 2.072266 c 0,0.23091 0.0229,0.403587 0.0762,0.525391 v 0.002 c 0.0521,0.116688 0.13472,0.208784 0.24414,0.273437 h 0.002 c 0.10756,0.06112 0.21928,0.09375 0.33398,0.09375 0.16819,0 0.33255,-0.06195 0.48633,-0.179687 0.15599,-0.121871 0.27469,-0.30157 0.35742,-0.533203 l 0.0234,-0.06641 H 676.086 l -0.0137,0.03125 c -0.036,0.0847 -0.084,0.145154 -0.14649,0.1875 -0.0644,0.04155 -0.12767,0.06055 -0.19336,0.06055 -0.0789,0 -0.13588,-0.02831 -0.1875,-0.08984 -0.0424,-0.05348 -0.0762,-0.182111 -0.0762,-0.38086 V 85.13286 h 0.73828 v -0.341796 h -0.73828 v -1.03711 z m 0.0664,0.101563 h 0.0234 v 1.035156 h 0.73828 v 0.142578 h -0.73828 v 2.095703 c 0,0.20909 0.0256,0.355912 0.0977,0.445313 0.0678,0.08087 0.16086,0.125 0.26562,0.125 0.0859,0 0.17006,-0.02586 0.24805,-0.07617 l 0.002,-0.002 c 0.0697,-0.0472 0.11721,-0.119367 0.1582,-0.201172 h 0.0215 c -0.0746,0.175074 -0.16216,0.32688 -0.28125,0.419922 -0.13964,0.10646 -0.28024,0.158203 -0.42383,0.158203 -0.096,0 -0.18926,-0.0251 -0.2832,-0.07813 -0.0927,-0.05477 -0.16075,-0.129308 -0.20508,-0.228516 -0.0431,-0.09868 -0.0684,-0.262484 -0.0684,-0.486328 v -2.171875 h -0.49805 v -0.03906 c 0.12285,-0.05427 0.24553,-0.129411 0.36914,-0.242188 0.13678,-0.124989 0.25774,-0.272531 0.36329,-0.441406 v -0.002 c 0.0525,-0.08687 0.12491,-0.243726 0.21093,-0.453125 z"
           id="path179" /></g><g
         id="path176"><path
           style="color:#000000;-inkscape-font-specification:'Times New Roman, ';fill:#000000;stroke:none;-inkscape-stroke:none"
           d="m 677.26623,84.509429 q 0.14469,0 0.2446,0.103353 0.10336,0.09991 0.10336,0.244602 0,0.144694 -0.10336,0.248047 -0.0999,0.103353 -0.2446,0.103353 -0.14469,0 -0.24805,-0.103353 -0.10335,-0.103353 -0.10335,-0.248047 0,-0.144694 0.0999,-0.244602 0.10335,-0.103353 0.25149,-0.103353 z m 0.28594,1.650202 v 2.535592 q 0,0.296278 0.0413,0.396186 0.0448,0.09646 0.12747,0.144694 0.0861,0.04823 0.31006,0.04823 v 0.124024 h -1.53307 v -0.124024 q 0.23083,0 0.31006,-0.04479 0.0792,-0.04479 0.12403,-0.148139 0.0482,-0.103353 0.0482,-0.396186 v -1.21612 q 0,-0.513319 -0.031,-0.664904 -0.0241,-0.110243 -0.0758,-0.151584 -0.0517,-0.04479 -0.14125,-0.04479 -0.0965,0 -0.23427,0.05168 l -0.0482,-0.124023 0.95085,-0.385851 z"
           id="path180" /><path
           style="color:#000000;-inkscape-font-specification:'Times New Roman, ';fill:#000000;stroke:none;-inkscape-stroke:none"
           d="m 677.26562,84.458984 0.0215,0.109375 c 0.0724,0.0052 0.13531,0.0261 0.1875,0.08008 h 0.002 c 0.0602,0.05822 0.0879,0.124429 0.0879,0.208985 0,0.08456 -0.0292,0.152238 -0.0898,0.21289 -0.0218,0.02255 -0.0536,0.01949 -0.0781,0.0332 l 0.0195,0.0918 c 0.0434,-0.01982 0.096,-0.01858 0.13085,-0.05469 0.0772,-0.07715 0.11719,-0.174835 0.11719,-0.283203 0,-0.107459 -0.0409,-0.204568 -0.11719,-0.279297 -0.075,-0.07757 -0.17288,-0.119141 -0.28125,-0.119141 z m -0.2871,0.119141 c -0.0751,0.07514 -0.11329,0.171327 -0.11329,0.279297 0,0.108367 0.04,0.206051 0.11719,0.283203 0.0739,0.07386 0.16862,0.108001 0.27149,0.111328 -0.0203,-0.0599 -0.0296,-0.06365 -0.0488,-0.119141 -0.0541,-0.0117 -0.10898,-0.01914 -0.15235,-0.0625 -0.0607,-0.06065 -0.0879,-0.128332 -0.0879,-0.21289 0,-0.06355 0.0325,-0.109238 0.0645,-0.15625 -0.0105,-0.01393 -0.0446,-0.129275 -0.0508,-0.123047 z m 0.4121,1.53125 -1.00585,0.408203 0.084,0.216797 0.0469,-0.01758 c 0.0883,-0.03311 0.16139,-0.04883 0.2168,-0.04883 0.0514,0 0.0838,0.0127 0.10742,0.0332 h 0.002 c 0.0205,0.01639 0.0438,0.05557 0.0586,0.123047 0.0185,0.0902 0.0293,0.313091 0.0293,0.654297 v 1.216796 c 0,0.192479 -0.0185,0.322492 -0.043,0.375 v 0.002 c -0.0267,0.06146 -0.0615,0.09931 -0.10352,0.123046 -0.0347,0.01962 -0.1345,0.03906 -0.28515,0.03906 h -0.0508 v 0.224609 h 1.63281 v -0.224609 h -0.0488 c -0.14572,0 -0.24388,-0.0179 -0.28516,-0.04102 -0.0452,-0.02637 -0.0794,-0.06608 -0.10547,-0.121093 -0.0209,-0.05048 -0.0391,-0.181758 -0.0391,-0.376954 v -2.585937 h -0.0488 z m 0.0195,0.09961 h 0.0918 v 2.486328 c 0,0.199842 0.0107,0.333285 0.0449,0.416016 l 0.002,0.002 c 0.0335,0.07208 0.0822,0.12853 0.14648,0.166016 h 0.002 c 0.0624,0.03493 0.16486,0.04314 0.2832,0.04687 v 0.03125 h -1.43164 v -0.03125 c 0.12049,-0.0032 0.22306,-0.009 0.2832,-0.04297 0.0628,-0.03554 0.11145,-0.09492 0.14453,-0.169922 0.0398,-0.0853 0.0527,-0.220003 0.0527,-0.417969 v -1.216796 c 0,-0.343219 -0.008,-0.561918 -0.0312,-0.673829 v -0.002 c -0.0172,-0.07847 -0.0445,-0.138916 -0.0918,-0.177734 -4.6e-4,-3.98e-4 -10e-4,3.94e-4 -0.002,0 -0.0451,-0.03839 -0.10453,-0.05664 -0.17188,-0.05664 -0.0591,0 -0.12988,0.02132 -0.20312,0.04492 l -0.0156,-0.03906 z"
           id="path181" /></g><g
         id="path177"><path
           style="color:#000000;-inkscape-font-specification:'Times New Roman, ';fill:#000000;stroke:none;-inkscape-stroke:none"
           d="m 680.04642,87.511487 v -1.719104 h -1.71565 v -0.282498 h 1.71565 v -1.712213 h 0.27561 v 1.712213 h 1.72255 v 0.282498 h -1.72255 v 1.719104 z m 2.30822,0.485759 2.09462,-4.778351 h 0.11713 l 1.97749,4.778351 z m 3.36586,-0.292834 -1.39526,-3.431317 -1.50896,3.431317 z m 2.13596,-3.89985 v 1.036974 h 0.73725 v 0.241157 h -0.73725 v 2.046388 q 0,0.306614 0.0861,0.413412 0.0896,0.106798 0.22737,0.106798 0.11369,0 0.22049,-0.0689 0.1068,-0.07235 0.16537,-0.210151 h 0.13435 q -0.12057,0.33762 -0.34106,0.509874 -0.22049,0.16881 -0.45475,0.16881 -0.15848,0 -0.31006,-0.08613 -0.15159,-0.08957 -0.22393,-0.251492 -0.0724,-0.165365 -0.0724,-0.50643 v -2.12218 h -0.49954 v -0.113688 q 0.18948,-0.07579 0.38585,-0.254937 0.19982,-0.182591 0.35485,-0.430638 0.0792,-0.130913 0.22048,-0.478868 z m 2.80087,-0.706245 -1.69155,4.995392 h -0.27561 l 1.69155,-4.995392 z m 3.21772,3.999758 -0.32729,0.899171 h -2.75608 v -0.127469 q 1.21612,-1.109321 1.71222,-1.812121 0.49609,-0.7028 0.49609,-1.285022 0,-0.444417 -0.27216,-0.73036 -0.27216,-0.285943 -0.65112,-0.285943 -0.34451,0 -0.62012,0.20326 -0.27216,0.199816 -0.40308,0.589112 h -0.12747 q 0.0861,-0.637343 0.44098,-0.978408 0.35829,-0.341064 0.89228,-0.341064 0.56844,0 0.9474,0.36518 0.3824,0.36518 0.3824,0.861274 0,0.354845 -0.16536,0.70969 -0.25494,0.558106 -0.82682,1.181669 -0.85783,0.937067 -1.07143,1.129992 h 1.21957 q 0.37207,0 0.5202,-0.02756 0.15159,-0.02756 0.27217,-0.110243 0.12058,-0.08613 0.21015,-0.241157 z"
           id="path182" /><path
           style="color:#000000;-inkscape-font-specification:'Times New Roman, ';fill:#000000;stroke:none;-inkscape-stroke:none"
           d="m 690.3457,83.048828 -1.41601,4.183594 0.10742,-0.0039 1.38086,-4.080079 h 0.16797 l -1.37891,4.074219 0.10742,-0.0039 1.41211,-4.169922 h -0.0684 z m -5.92968,0.119141 -1.88477,4.298828 0.11133,-0.0039 1.83984,-4.19336 h 0.0508 l 1.68164,4.0625 0.10743,-0.0039 -1.72266,-4.160156 z m 7.84375,0.01172 c -0.36664,0 -0.67989,0.117587 -0.92774,0.353516 v 0.002 c -0.24635,0.236759 -0.39662,0.575059 -0.45508,1.007813 l -0.008,0.05664 h 0.2207 l 0.0117,-0.03516 c 0.0848,-0.252058 0.21273,-0.438146 0.38477,-0.564453 0.17573,-0.1296 0.37,-0.193359 0.58984,-0.193359 0.24007,0 0.44179,0.0873 0.61524,0.269531 0.17252,0.181258 0.25781,0.411194 0.25781,0.697265 0,0.373947 -0.15935,0.792641 -0.48633,1.25586 -0.20178,0.285854 -0.6667,0.721801 -1.05273,1.113281 l 0.14257,-0.0059 c 0.35207,-0.361948 0.79899,-0.777083 0.99219,-1.050782 0.33448,-0.473847 0.50586,-0.910151 0.50586,-1.3125 0,-0.306484 -0.0968,-0.565626 -0.28711,-0.765625 -0.18943,-0.199023 -0.42228,-0.300781 -0.6875,-0.300781 -0.2395,0 -0.45669,0.07148 -0.64844,0.212891 -0.18001,0.132162 -0.30833,0.332787 -0.39843,0.578125 h -0.0274 c 0.0626,-0.379924 0.18776,-0.685702 0.40039,-0.890625 0.22988,-0.218823 0.51208,-0.328125 0.85743,-0.328125 0.36825,0 0.66846,0.116777 0.9121,0.351562 0.24676,0.235643 0.36719,0.506337 0.36719,0.824219 0,0.228796 -0.0526,0.458674 -0.16015,0.689453 -0.16702,0.36562 -0.43963,0.755009 -0.81836,1.167969 -0.41399,0.452228 -0.58592,0.625504 -0.77344,0.816406 l 0.14258,-0.0059 c 0.19119,-0.197208 0.33023,-0.332721 0.70508,-0.742188 h -0.002 c 0.38378,-0.418457 0.66303,-0.816791 0.83594,-1.195312 0.11294,-0.242347 0.16992,-0.486139 0.16992,-0.730469 0,-0.343576 -0.13337,-0.645221 -0.39648,-0.896484 -0.26164,-0.252121 -0.59276,-0.378907 -0.98242,-0.378907 z m -12.26368,0.56836 v 1.710937 h -1.71484 v 0.382813 h 1.71484 v 1.71875 l 0.375,-0.01367 v -1.705078 h 1.72266 v -0.382813 h -1.72266 v -1.710937 z m 7.72071,0.0059 -0.0137,0.03125 c -0.0938,0.230978 -0.16733,0.390902 -0.21679,0.472656 -0.10116,0.161854 -0.21606,0.301457 -0.34571,0.419922 -0.12759,0.116401 -0.25185,0.196447 -0.37109,0.244141 l -0.0312,0.01367 v 0.197265 h 0.5 v 2.072266 c 0,0.03953 0.0123,0.05364 0.0137,0.08984 l 0.0977,-0.0039 c -0.002,-0.03576 -0.0117,-0.04641 -0.0117,-0.08594 v -2.171875 h -0.5 v -0.03906 c 0.12285,-0.05427 0.24552,-0.129411 0.36914,-0.242188 0.13678,-0.124989 0.25969,-0.27253 0.36524,-0.441406 v -0.002 c 0.0525,-0.08687 0.12492,-0.243725 0.21093,-0.453125 h 0.0234 v 1.035156 h 0.73633 v 0.142578 h -0.73633 v 2.095703 c 0,0.06782 0.0252,0.08972 0.0312,0.144531 l 0.0957,-0.0039 c -0.008,-0.05404 -0.0273,-0.06732 -0.0273,-0.140625 v -1.996094 h 0.73828 v -0.341796 h -0.73828 v -1.03711 h -0.0488 z m -7.6211,0.09375 h 0.17578 v 1.712891 h 1.72266 v 0.18164 h -1.72266 v 1.71875 h -0.17578 v -1.71875 h -1.71484 v -0.18164 h 1.71484 z m 4.23047,0.296875 -1.45508,3.310547 0.11133,-0.0039 1.3418,-3.050781 1.20117,2.957031 0.10742,-0.0039 z m 9.39258,2.904297 -0.006,0.0078 0.23438,-0.0078 h -0.0723 z m 0.22852,0 -0.23438,0.0098 -0.008,0.01367 c -0.0569,0.09841 -0.12366,0.173986 -0.19727,0.226562 -0.0741,0.0505 -0.15788,0.08446 -0.25195,0.101563 -0.0914,0.017 -0.26491,0.02734 -0.51172,0.02734 h -1.10352 c 0.0479,-0.04542 0.20939,-0.22259 0.28711,-0.302734 l -0.14257,0.0059 c -0.0707,0.07199 -0.25537,0.274632 -0.29297,0.308594 l -0.0957,0.08789 h 1.34766 c 0.24928,0 0.42314,-0.0095 0.5293,-0.0293 0.10742,-0.01953 0.20666,-0.058 0.29297,-0.117188 0.0787,-0.05621 0.14451,-0.138545 0.20312,-0.232422 h 0.0332 l -0.28906,0.798829 h -2.67187 v -0.05664 c 0.33351,-0.304827 0.457,-0.492995 0.70898,-0.751953 l -0.14258,0.0059 c -0.23864,0.241922 -0.34169,0.405917 -0.65039,0.6875 l -0.0156,0.01563 v 0.199219 h 2.83984 z m -4.63282,0.173828 -0.10937,0.0059 -0.27539,0.814453 h -0.16797 l 0.27344,-0.808594 -0.10743,0.0039 -0.30664,0.90625 h 0.38086 z m -1.3789,0.05273 -0.0957,0.0039 c 0.0129,0.110808 0.0167,0.235723 0.0645,0.294922 0.0678,0.08087 0.16086,0.125 0.26562,0.125 0.0859,0 0.17006,-0.02586 0.24805,-0.07617 v -0.002 c 0.0697,-0.04723 0.11915,-0.1193 0.16015,-0.201172 h 0.0195 c -0.0746,0.174997 -0.16024,0.326907 -0.2793,0.419922 -0.14021,0.107344 -0.27967,0.158203 -0.42383,0.158203 -0.0966,0 -0.19061,-0.0244 -0.28516,-0.07813 -0.0927,-0.05477 -0.1588,-0.129309 -0.20312,-0.228516 -0.035,-0.08003 -0.0472,-0.231527 -0.0547,-0.394531 l -0.0996,0.0039 c 0.007,0.17198 0.0189,0.330058 0.0625,0.429688 v 0.002 c 0.0521,0.116689 0.13472,0.208783 0.24414,0.273437 0.10756,0.06112 0.22123,0.09375 0.33594,0.09375 0.16818,0 0.3306,-0.06195 0.48438,-0.179687 0.15599,-0.121871 0.2747,-0.301569 0.35742,-0.533203 l 0.0254,-0.06641 h -0.23828 l -0.0137,0.03125 c -0.036,0.0847 -0.084,0.145154 -0.14649,0.1875 -0.0644,0.04155 -0.12767,0.06055 -0.19336,0.06055 -0.078,0 -0.13634,-0.02796 -0.1875,-0.08789 v -0.002 c -0.0261,-0.03291 -0.0337,-0.145607 -0.0469,-0.234375 z m -1.61133,0.06055 -0.10547,0.0039 0.25195,0.607422 h -4.03906 l 0.20703,-0.472657 -0.11328,0.0039 -0.24805,0.568359 h 0.0781 4.26367 z m -0.6875,0.02539 -0.10742,0.0039 0.11718,0.289063 h -2.7539 l 0.084,-0.191406 -0.10937,0.0039 -0.12696,0.287109 h 3.05469 l -0.0273,-0.06836 z"
           id="path183" /></g></g><g
       id="path11"><path
         style="color:#000000;fill:#294464;-inkscape-stroke:none"
         d="m 702.57031,38.732422 c -5.68383,-0.481397 -10.67902,0.565925 -14.04101,4.001953 -2.17643,2.224353 -3.44827,4.050003 -4.11914,5.851562 -0.67088,1.80156 -0.72151,3.551882 -0.52539,5.554688 0.39719,4.056371 2.36328,9.001953 2.36328,9.001953 l 0.92968,-0.367187 c 0,0 -1.92556,-4.918448 -2.29882,-8.730469 -0.18912,-1.93139 -0.13478,-3.488676 0.46875,-5.109375 0.60352,-1.620699 1.77512,-3.331928 3.89648,-5.5 4.11291,-4.20348 11.08629,-4.607263 18.97852,-2.769531 3.84545,0.895428 8.27851,3.709148 11.71289,6.308593 3.43437,2.599446 5.87695,4.966797 5.87695,4.966797 l 0.69727,-0.71875 c 0,0 -2.48533,-2.406873 -5.97071,-5.044922 -3.48538,-2.638049 -7.9642,-5.525658 -12.08984,-6.486328 -2.0125,-0.468616 -3.9843,-0.798518 -5.87891,-0.958984 z"
         id="path188" /><g
         id="g184"><g
           id="path184"><path
             style="color:#000000;fill:#294464;fill-rule:evenodd;-inkscape-stroke:none"
             d="m 728.23292,53.589308 -4.84582,-1.213947 3.47915,-3.591034 z"
             id="path185" /><path
             style="color:#000000;fill:#294464;fill-rule:evenodd;-inkscape-stroke:none"
             d="m 727.0293,48.136719 -4.28321,4.421875 5.96485,1.49414 z m -0.32618,1.294922 1.05079,3.693359 -3.72461,-0.931641 z"
             id="path187" /></g></g></g><g
       id="text4-7-1-3-9"><path
         style="color:#000000;-inkscape-font-specification:'Times New Roman, ';fill:#000000;-inkscape-stroke:none"
         d="m 704.01803,35.630379 v 0.440283 h -0.56431 v 1.11001 h -0.51159 v -1.11001 h -1.77974 v -0.396875 l 1.95027,-2.784326 h 0.34106 v 2.740918 z m -1.0759,0 v -2.086695 l -1.47588,2.086695 z"
         id="path189" /><path
         style="color:#000000;-inkscape-font-specification:'Times New Roman, ';fill:#000000;-inkscape-stroke:none"
         d="m 703.08594,32.839844 -1.97266,2.818359 v 0.462891 h 1.7793 v 1.109375 h 0.61133 v -1.109375 h 0.56445 v -0.541016 l -0.66406,0.06055 v 0.03906 h 0.56445 v 0.341797 h -0.56445 v 1.109375 h -0.41211 v -1.109375 h -1.7793 v -0.332031 l 1.92578,-2.75 h 0.26563 v 2.650391 l 0.0488,-0.0098 0.0508,0.05078 V 32.83981 Z m -0.0937,0.546875 -1.62305,2.292968 h 1.62305 v -0.04883 z m -0.0996,0.3125 v 1.880859 h -1.32813 z"
         id="path190" /></g></g></svg>
